<svg id="CREA" xmlns="http://www.w3.org/2000/svg" viewBox="0 0 879.73 568.85"><defs><style>.cls-1{font-size:90px;font-family:Marianne-Bold, Marianne;font-weight:700;}.cls-1,.cls-8{letter-spacing:-0.01em;}.cls-2{letter-spacing:-0.01em;}.cls-3{letter-spacing:0.02em;}.cls-4{letter-spacing:-0.01em;}.cls-5{letter-spacing:0.02em;}.cls-6{letter-spacing:-0.02em;}.cls-7{letter-spacing:-0.01em;}.cls-9{letter-spacing:-0.03em;}.cls-10{letter-spacing:0.01em;}.cls-11{letter-spacing:0em;}.cls-12{fill:#000091;}.cls-13{fill:#e1000f;}.cls-14{fill:#9e9d9c;}</style></defs><path d="M290.52,630.87c1.71,0,3.19,1.29,2.41,4.58l-8,1.85c1.39-3.7,3.71-6.43,5.56-6.43m4.4,12.82h-1.58c-2,2.36-4.12,4.22-6.25,4.22s-3.29-1.3-3.29-4.22a17.58,17.58,0,0,1,.37-3.52L297,636c2.5-5.93-.51-8.52-4-8.52-6.06,0-13,10.14-13,19,0,4,1.9,6.16,4.86,6.16,3.47,0,7.08-3.38,10.05-8.94m-2.55-18.61,9-8.43v-1h-4.86l-5.56,9.4ZM264.68,631h4.26l-6.76,18.48c-.6,1.57.23,3.15,1.85,3.15,3.84,0,10.05-3.8,12.23-9h-1.21c-1.71,1.8-5,4.21-7.82,4.72l6.2-17.37h6.35l.78-2.64H274.4l2.37-6.66h-2.46l-4.4,6.66-5.23.75Zm-5.74-.88a1.9,1.9,0,0,0-1.53-2.68c-3.7,0-8.1,3.33-9.86,8h1.2c1.2-1.71,3.24-3.61,5.14-3.94l-7.08,18.43a1.84,1.84,0,0,0,1.52,2.69c3.52,0,7.64-3.38,9.4-8h-1.2c-1.2,1.71-3.24,3.61-5.14,3.93Zm1.29-9.26a3.05,3.05,0,0,0,3.06-3.05,3.09,3.09,0,0,0-3.06-3.06,3.05,3.05,0,0,0-3.05,3.06,3,3,0,0,0,3.05,3.05M219.44,649.2c-.93,2.09.05,3.43,2.08,3.43a2.07,2.07,0,0,0,2.32-1.67l4.91-13c2.27-2.78,6.94-5.74,8.79-5.74,1.35,0,1.16,1.11.28,2.78l-7.55,14.49a2.13,2.13,0,0,0,1.86,3.15c3.7,0,8.1-3.33,9.86-8h-1.2c-1.21,1.71-3.25,3.61-5.14,3.93l6.48-13.1a10.56,10.56,0,0,0,1.25-4.49,3.19,3.19,0,0,0-3.43-3.52c-3.19,0-6.43,3.61-10.28,8.06v-3.43c0-2.46-.78-4.63-3-4.63-1.39,0-2.73,1.2-4,2.92v.46c2.41-.14,3.47,3.47,1.76,7.27Zm-.09-16.11c.88-3,.41-5.65-1.9-5.65-2.73,0-3.43,2.08-6.21,8.06v-3.43c0-2.46-.78-4.63-3-4.63-2.59,0-4.95,4-6.76,8h1.21c1.25-1.81,2.4-2.87,3.33-2.87,1.11,0,1.71,1.71,0,5.51l-5,11.11c-.93,2.09.05,3.43,2.08,3.43a2.07,2.07,0,0,0,2.32-1.67l4.91-13c1.39-1.71,2.64-3.2,4.21-4.86Zm-28.44-2.22c1.72,0,3.2,1.29,2.41,4.58l-8,1.85c1.39-3.7,3.7-6.43,5.55-6.43m4.4,12.82h-1.57c-2,2.36-4.12,4.22-6.25,4.22s-3.29-1.3-3.29-4.22a17.58,17.58,0,0,1,.37-3.52L197.4,636c2.5-5.93-.51-8.52-4-8.52-6.07,0-13,10.14-13,19,0,4,1.9,6.16,4.86,6.16,3.48,0,7.09-3.38,10.05-8.94M165.08,631h4.26l-6.77,18.48c-.6,1.57.24,3.15,1.86,3.15,3.84,0,10-3.8,12.22-9h-1.2c-1.72,1.8-5,4.21-7.83,4.72L173.83,631h6.34l.79-2.64H174.8l2.36-6.66h-2.45l-4.4,6.66-5.23.75Zm-23.39,14.41c0-5.7,6.34-13.43,9.91-13.43a8.24,8.24,0,0,1,2.18.27l-3.71,9.87c-2.13,2.59-5.42,5.74-6.94,5.74-.88,0-1.44-.74-1.44-2.45m19.5-19-1.95-.14-2.18,2.13h-.46c-10.56,0-19.68,11.86-19.68,20.47a3.51,3.51,0,0,0,3.8,3.8c2.73,0,5.42-3.89,8.43-8.06l-.14,1.48c-.37,4.26.92,6.58,3.15,6.58,2.59,0,5-4,6.76-8h-1.21c-1.25,1.8-2.41,2.87-3.33,2.87s-1.67-1.76,0-5.51Zm-22.51,6.72c.88-3,.42-5.65-1.9-5.65-2.73,0-3.42,2.08-6.2,8.06v-3.43c0-2.46-.79-4.63-3-4.63-2.6,0-5,4-6.76,8H122c1.25-1.81,2.41-2.87,3.33-2.87,1.12,0,1.72,1.71,0,5.51l-5,11.11c-.92,2.09,0,3.43,2.09,3.43,1.25,0,1.8-.32,2.31-1.67l4.91-13c1.39-1.71,2.64-3.2,4.22-4.86ZM103.21,651.7l.46-1.43c-6.16-1.16-6.94-1.16-4.49-7.87l2.5-6.9h6.81c3.06,0,3.1,1.25,2.64,4.58h1.76L117,628.92H115.2c-1.52,2.64-2.73,4.58-6.06,4.58h-6.72l3.57-9.77c1.11-3.1,1.76-3.75,5.93-3.75h3c4.31,0,4.82,1.16,4.82,5.51h1.71l1.43-7.59H97.28l-.46,1.43c5,1,5.42,1.49,3.1,7.88L94.37,642.4c-2.32,6.34-3.29,6.85-9,7.87L85,651.7Z" transform="translate(-76.27 -83.78)"/><path d="M228.52,573c1.71,0,3.19,1.3,2.4,4.59l-8,1.85c1.39-3.71,3.7-6.44,5.56-6.44m4.39,12.83h-1.57c-2,2.36-4.12,4.21-6.25,4.21s-3.29-1.29-3.29-4.21a17.5,17.5,0,0,1,.37-3.52L235,578.08c2.5-5.93-.51-8.53-4-8.53-6.07,0-13,10.15-13,19,0,4,1.9,6.16,4.87,6.16,3.47,0,7.08-3.38,10-8.94m-2.54-18.62,9-8.42v-1h-4.87l-5.55,9.4Zm-27.69,5.93h4.26l-6.76,18.48c-.61,1.57.23,3.15,1.85,3.15,3.84,0,10.05-3.8,12.22-9h-1.2c-1.71,1.81-5,4.22-7.83,4.73l6.21-17.37h6.34l.79-2.64H212.4l2.36-6.67h-2.45l-4.4,6.67-5.23.74Zm-5.75-.88a1.9,1.9,0,0,0-1.52-2.69c-3.71,0-8.11,3.34-9.87,8h1.21c1.2-1.72,3.24-3.62,5.14-3.94l-7.09,18.43a1.85,1.85,0,0,0,1.53,2.69c3.52,0,7.64-3.38,9.4-8h-1.2c-1.21,1.72-3.24,3.62-5.14,3.94Zm1.3-9.26a3.06,3.06,0,1,0-3-3.06,3,3,0,0,0,3,3.06M173.6,590.67l12.92-33.85-.42-.51-8.1.93v1l1.57,1.2c1.44,1.11,1,2.18-.32,5.61l-10.1,26.58a2.13,2.13,0,0,0,1.85,3.15c3.71,0,7.64-3.34,9.4-8h-1.2a10.42,10.42,0,0,1-5.6,3.94m-24.55-3.15c0-5.69,6.35-13.43,9.91-13.43a8.22,8.22,0,0,1,2.18.28l-3.7,9.86c-2.13,2.6-5.42,5.75-6.95,5.75-.88,0-1.44-.74-1.44-2.46m19.5-19-2-.14-2.17,2.13H164c-10.55,0-19.68,11.86-19.68,20.47a3.51,3.51,0,0,0,3.8,3.8c2.73,0,5.42-3.89,8.43-8.06l-.14,1.48c-.37,4.26.93,6.58,3.15,6.58,2.59,0,4.95-4,6.76-8h-1.2c-1.25,1.81-2.41,2.88-3.34,2.88s-1.66-1.76,0-5.51Zm-47.14,30.75c0-2.46,2.36-4,5.74-5.33a41.23,41.23,0,0,0,5,1.9c3.52,1.16,4.86,1.62,4.86,2.69,0,2.27-3.84,4-9.07,4-4.4,0-6.53-.93-6.53-3.24m9.58-15c-1.52,0-2.13-1.3-2.13-2.78,0-4.12,2.23-10.19,5.7-10.19,1.53,0,2.13,1.3,2.13,2.78,0,4.12-2.22,10.19-5.7,10.19M141,597c0-3-2.64-4-6.94-5.33-3.71-1.11-5.37-1.43-5.37-2.64,0-1,.78-2.13,2.36-3a10.8,10.8,0,0,0,10-10.37,6.3,6.3,0,0,0-.51-2.55h5.14l.79-2.64h-8.15a6.31,6.31,0,0,0-3.29-.93,10.73,10.73,0,0,0-10.6,10.24,6,6,0,0,0,4.9,6.16c-3,1.34-4.67,2.91-4.67,4.77a2.92,2.92,0,0,0,1.25,2.5c-7,2-9.68,4.35-9.68,7.64s4.21,4.54,9.21,4.54C134,605.4,141,600.81,141,597m-32.37-19.82c3.06,0,3.11,1.25,2.64,4.58h1.76l4.08-11.16h-1.76c-1.53,2.64-2.73,4.59-6.07,4.59h-6.71l3.38-9.31c1.11-3.1,1.76-3.7,5.93-3.7h3c4.31,0,4.82,1.15,4.82,5.46h1.71l1.43-7.59H97.28l-.46,1.43c5,1,5.42,1.48,3.1,7.87l-5.55,15.19c-2.32,6.35-3.29,6.86-9,7.87L85,593.82H113.4l5.09-8.06h-1.94c-3.24,3.06-7.32,6-13,6-7.54,0-6.85-.33-4.35-7.23l2.69-7.36Zm3.71-19.4,9-6.21v-1H116l-5,7.18Z" transform="translate(-76.27 -83.78)"/><path d="M225.5,515.1c1.72,0,3.2,1.29,2.41,4.58l-8,1.85c1.39-3.7,3.7-6.43,5.55-6.43m4.4,12.82h-1.57c-2,2.37-4.12,4.22-6.25,4.22s-3.29-1.3-3.29-4.22a17.48,17.48,0,0,1,.37-3.51L232,520.19c2.5-5.93-.51-8.52-4-8.52-6.07,0-13,10.14-13,19,0,4,1.9,6.16,4.87,6.16,3.47,0,7.08-3.38,10-8.94m-2.54-18.61,9-8.43v-1h-4.87l-5.55,9.4Zm-26.54,5.93h3.38l-6.76,18.47c-.6,1.58.23,3.15,1.86,3.15,3.84,0,10-3.8,12.22-9h-1.2c-1.72,1.8-5,4.21-7.83,4.72l6.21-17.36H215l.79-2.64h-6.16l2.36-6.67h-2.45l-4.4,6.67-4.36.74Zm-3.33,2.08c.88-3,.42-5.65-1.9-5.65-2.73,0-3.43,2.08-6.2,8.06V516.3c0-2.45-.79-4.63-3-4.63-2.6,0-5,4-6.76,8h1.2c1.25-1.8,2.41-2.87,3.33-2.87,1.11,0,1.72,1.71,0,5.51l-5,11.12c-.92,2.08,0,3.42,2.09,3.42,1.25,0,1.8-.32,2.31-1.67l4.91-13c1.39-1.71,2.64-3.19,4.21-4.86Zm-28.43-2.22c1.71,0,3.19,1.29,2.41,4.58l-8,1.85c1.39-3.7,3.71-6.43,5.56-6.43m4.4,12.82h-1.58c-2,2.37-4.12,4.22-6.25,4.22s-3.29-1.3-3.29-4.22a17.48,17.48,0,0,1,.37-3.51l12.83-4.22c2.5-5.93-.51-8.52-4-8.52-6.06,0-13,10.14-13,19,0,4,1.89,6.16,4.86,6.16,3.47,0,7.08-3.38,10.05-8.94M142,533.11c-1.25,0-3-1.16-3-2.18a25,25,0,0,1,1.25-3.56l2.08-5.51c2.23-2.64,5.61-5.47,7.5-5.47,1.16,0,2,.75,2,2.46,0,5-4.72,14.26-9.82,14.26m14.59-16.3c0-3.75-1.39-5.14-4-5.14-3.24,0-6.3,3.43-9.35,7.6L151,498.94l-.42-.51-8.1.92v1l1.57,1.2c1.44,1.11,1,2.27-.32,5.6l-8.34,21.49a24.32,24.32,0,0,0-1.34,3.94c0,2.22,3,4.3,5.74,4.3,6.3,0,16.81-11.34,16.81-20.05m-25.19-2.45a1.9,1.9,0,0,0-1.53-2.69c-3.7,0-8.1,3.34-9.86,8h1.2c1.21-1.71,3.25-3.61,5.14-3.93l-7.08,18.43a1.84,1.84,0,0,0,1.53,2.68c3.52,0,7.64-3.38,9.4-8H129c-1.2,1.71-3.24,3.61-5.14,3.94Zm1.3-9.26a3.06,3.06,0,1,0-3.06-3.06,3.06,3.06,0,0,0,3.06,3.06m-18.66-3H97.19l-.46,1.44c5,1,5.42,1.48,3.1,7.87l-5.46,15.19c-2.32,6.34-3.29,6.85-9,7.87L85,535.94h25.65l5.56-9.91h-2c-3.15,3.47-6.85,7.82-12.55,7.82-4.3,0-4.81-.74-2.5-7.22l5.47-15.19c2.27-6.34,3.28-6.85,9-7.87Z" transform="translate(-76.27 -83.78)"/><text class="cls-1" transform="translate(0 190.39)">MINI<tspan class="cls-2" x="216.36" y="0">S</tspan><tspan x="268.02" y="0">TÈRE </tspan><tspan x="0" y="92">DE </tspan><tspan class="cls-3" x="145.8" y="92">L</tspan><tspan class="cls-4" x="196.56" y="92">A T</tspan><tspan class="cls-5" x="342.89" y="92">R</tspan><tspan x="404.99" y="92">ANSITION</tspan><tspan class="cls-6"><tspan x="0" y="184">É</tspan><tspan class="cls-7" x="50.22" y="184">C</tspan><tspan class="cls-8" x="115.56" y="184">O</tspan><tspan class="cls-9" x="189.36" y="184">L</tspan><tspan class="cls-10" x="235.17" y="184">O</tspan><tspan class="cls-8" x="310.59" y="184">GI</tspan><tspan class="cls-11" x="411.84" y="184">Q</tspan><tspan class="cls-8" x="486.36" y="184">UE</tspan></tspan></text><path class="cls-12" d="M179.13,157.76c.9-.9,1.81-1.87,2.71-2.84h0a52.74,52.74,0,0,1,5.29-5.39,17.61,17.61,0,0,1,1.72-1.38c.16-.16.16-.48.32-.64-.8.32-1.27,1-2.06,1.27-.16,0-.32-.16-.16-.31l1.69-1.27h-.11c-.16,0-.16-.16-.16-.32-2.06-.32-3.64,1.11-5.07,2.38-.31.16-.63-.16-.79-.16-2.38.79-4.12,2.85-6.5,3.8v-.31c-1,.31-1.87.89-2.85,1.11a17.27,17.27,0,0,1-4,.15,55.25,55.25,0,0,0-5.76,1l-.17,0a13.4,13.4,0,0,0-2.95,1.19l-.11.06-.23.28a3.81,3.81,0,0,1-1.09,1,15.46,15.46,0,0,0-2.62,2,.45.45,0,0,1-.26.09c-.85.81-1.69,1.64-2.55,2.44a.78.78,0,0,1-.49.06l0,0,.09-.15.41-.67c.15-.25.31-.49.47-.73s.43-.66.67-1a.14.14,0,0,0,0-.21.3.3,0,0,0-.21-.08,14.59,14.59,0,0,1,2.66-2v0c-.11,0-.26,0-.18-.16s.18-.29.27-.43,0-.1.05-.14l-.12-.13a6,6,0,0,0-.74.52c-.38.34-.68,1-1.26,1a1.93,1.93,0,0,1-.24,0,.38.38,0,0,1-.16-.06l0,0,0-.05,0,0,.08-.13a1,1,0,0,1,.08-.14l.06-.11a2,2,0,0,1,.11-.2s.05-.1.08-.14l.21-.35.09-.17c.06-.1.12-.19.17-.29a.18.18,0,0,0-.12-.28,3.83,3.83,0,0,1,1.09-1h-.05c.61-.3,1.21-.68,1.82-1l.26-.22a10.73,10.73,0,0,0-2.52,1.24,1.32,1.32,0,0,0-.27.15.4.4,0,0,1-.39-.15.19.19,0,0,1,0-.12c.16-.31.64-.47,1-.79.16,0,.32,0,.32.16,5.07-4,12-3,17.91-5.07l1.42-.95c.8-.32,1.43-1.11,2.38-1.59a6.9,6.9,0,0,0,2.69-3.64.57.57,0,0,0-.15-.32,24.38,24.38,0,0,1-7,5.23c-3.33,1.74-7,1.43-10.46,1.9.16-.31.48-.31.8-.31,0-.48.31-.64.63-.95h.48c.15,0,.15-.32.31-.32.32,0,.79-.16.64-.16-.48-.63-1.43.48-2.22,0,.31-.32.16-.79.47-1h.64a1.09,1.09,0,0,1,.31-.63c2.38-1.43,4.6-2.54,6.82-3.81-.48,0-.79.48-1.27.16.32,0,0-.48.32-.48,1.74-.47,3.17-1.42,4.91-2.06-.63,0-1.11.48-1.74,0,.31-.15.47-.47,1-.47v-.48c0-.15.16-.15.31-.15a.56.56,0,0,1-.31-.16c.16-.32.63-.16.95-.48-.16,0-.48,0-.48-.16a3.18,3.18,0,0,1,2.06-.95c-.16-.32-.63,0-.63-.32,0-.15.16-.15.32-.15h-.32c-.32-.16-.16-.48-.16-.64,1-1.11,1-2.53,1.43-3.8-.16,0-.32,0-.32-.16-1.58,1.74-4.12,2.38-6.5,3h-.79a3.18,3.18,0,0,1-2.69-.16,11,11,0,0,1-1.59-1.26,18.08,18.08,0,0,0-4-1.91,35.71,35.71,0,0,0-12.2-1.74c1.74-1,3.66-1,5.54-1.58,2.7-.8,5.23-1.75,8.09-1.59a5.3,5.3,0,0,0-1.59,0c-2.22-.16-4.44.48-6.81,1-1.59.32-3,.95-4.6,1.27-1,.32-1.43,1.27-2.53,1.11v-.48c1.58-1.9,3.48-3.8,6-4,2.85-.47,5.54,0,8.4.32a39.75,39.75,0,0,1,6,1.11c.79,0,.95,1.27,1.58,1.42,1,.32,1.91,0,2.86.64,0-.32-.16-.64,0-.95.63-.64,1.42.16,2.06-.16,1.26-.79-1.11-2.22-1.75-3.33a.56.56,0,0,1,.16-.32c1.27,1.11,2.22,2.38,3.8,3.17.8.32,2.7.8,2.38-.16-.79-1.74-2.38-3.16-3.64-4.75v-.63c-.32,0-.32-.16-.48-.32v-.63c-.63-.32-.47-1-.79-1.43-.48-.79-.16-1.9-.48-2.85a17.57,17.57,0,0,1-.63-2.7c-.48-2.69-1.11-5.07-1.43-7.6-.31-3,1.75-5.39,3.17-8.09a13.61,13.61,0,0,1,4.44-5.07,14,14,0,0,1,3-5.07,13.22,13.22,0,0,1,4.89-3.17,41.61,41.61,0,0,1,4.22-1.61H83.78v83.87h77c3-2.17,6-3.21,10.24-5.28C173,161.39,177.59,159.3,179.13,157.76Zm-24.37-11.35c-.32,0-.95.15-.79-.16.15-.8,1.26-.8,1.9-1.11.31-.16.79-.48,1.11-.32.31.48.79.32,1.11.63C157.13,146.41,155.87,145.93,154.76,146.41Zm-24.25-3.49a.56.56,0,0,1-.16-.32,48.47,48.47,0,0,0,5.07-8.08,22,22,0,0,0,5.39-4.44,30.85,30.85,0,0,1,8.88-7,6.09,6.09,0,0,1,4.12.16c-.48.63-1.27.47-1.91,1a.58.58,0,0,1-.47-.16.59.59,0,0,0,.16-.48c-1.59,1.75-3.81,2.54-5.07,4.6-1,1.58-1.59,3.65-3.65,4.12-.63.16.16-.47-.16-.32C137.8,135,134.31,138.64,130.51,142.92Zm13.15-10.46c-.15.32-.33.35-.47.63a1.25,1.25,0,0,1-.64.64c-.15,0-.31,0-.31-.16a1.93,1.93,0,0,1,1.27-1.43C143.66,132.14,143.66,132.3,143.66,132.46ZM151,156.2a1.33,1.33,0,0,1-.39.47c.2,0,.34.12.21.24a3.44,3.44,0,0,1-1.2.84l-.24,0-.59.56c-.19.16-1.06,0-.8-.19.41-.36.78-.75,1.17-1.11a5.64,5.64,0,0,0,.66-.63,2.26,2.26,0,0,1,.34-.35C150.31,156,151.15,155.89,151,156.2Zm-2.84-1.31,0,0c-.59.42-1.18.84-1.81,1.21s-1.38.69-2.09,1c0,0,0,0,0,0a.2.2,0,0,0-.26-.07,7.61,7.61,0,0,0-1.6,1.22l-.22.21h0l-.23.23,0,0h0a4.26,4.26,0,0,0-.34.37,1.1,1.1,0,0,1-.21.22c-.1.07-.37.07-.35-.12v0l-.28.15-.25.13a.17.17,0,0,0-.1,0l-.12,0-.57.49a8.44,8.44,0,0,0-.92,1v0l0,0,0,.06-.05.07,0,0-.11.16h0a.26.26,0,0,1-.13.06.86.86,0,0,1-.07-.1l0-.07c0-.08-.09-.17-.14-.26h0l0-.07.5-.57,0,0,.17-.21.26-.34.1-.12c.17-.23.34-.45.49-.67l0,0,.06-.1a4,4,0,0,0,.22-.34l.17-.31,0,0v0l0-.06a2.39,2.39,0,0,0,.15-.37v0a.42.42,0,0,0,0-.1c0-.06,0-.12,0-.18h0v0a1.55,1.55,0,0,0,0-.23.14.14,0,0,0,0-.11,6.22,6.22,0,0,1,.63-.85l-.07,0c-.23.15-.38.35-.59.51s-.49-.09-.28-.24.24-.22.36-.33,0,0,0,0a7.74,7.74,0,0,1,.81-.81c.18-.13.34-.24.49-.37l.07-.06a3.46,3.46,0,0,1,.35-.4l0,0c1.52-1.46,4.07-1.4,6.07-2.33.79-.32,1.74.16,2.54,0a2.32,2.32,0,0,1,1.42.32C150.8,153.2,149.48,154.08,148.18,154.89Zm3.25-11c-.16-.16.47,0,.63-.32H150.8c-.16,0-.16-.16-.16-.31-.8.15-1.75.47-2.54.63-1.11.32-2.06,1.11-3.33,1.43-1.74.63-3.17,2.06-5.07,2.69-.16,0-.16-.16-.16-.32.16-.47.8-.63,1.11-1.11,0-.15,0-.31-.16-.31,1.27-1.75,3-2.7,4.6-4.12v-.48c.48-.63,1.27-1,1.59-1.74a2.82,2.82,0,0,1,1.58-1.43c-.16-.16-.48-.16-.48-.47-.63,0-1.26.31-1.9-.16a2.3,2.3,0,0,1,1-.57.52.52,0,0,1-.36-.23c-.16-.31.3-.67.79-.79s1.43-.16,1.9-.63c-1.11-.16-2.38.32-3.49-.32a8.46,8.46,0,0,1,4-4.75c.15,0,.47,0,.47.16a1.54,1.54,0,0,1-1.27,1.58,17.14,17.14,0,0,1,3.81.95c-.16.32-.48.16-.64.16.8.48,1.75.16,2.54.79-.48.48-.95,0-1.43,0,4.92,1.43,10.15,2.54,14.27,5.71a44.24,44.24,0,0,1-10.94,3.33,3.5,3.5,0,0,1-1.27-.16c0,.16,0,.47-.16.47a2.58,2.58,0,0,0-1.58.32A1.93,1.93,0,0,1,151.43,143.87Z" transform="translate(-76.27 -83.78)"/><path class="cls-13" d="M314.41,83.78H224.2a4,4,0,0,1,.85.4l2.28,1.21a7.49,7.49,0,0,1,3,2.54c.32.47.79,1.42.48,2.06-.32.79-.48,2.06-1.27,2.37a5.84,5.84,0,0,1-3.33.32,7.87,7.87,0,0,1-1.9-.32c2.38,1,4.59,2.06,6.18,4.28.16.32.79.48,1.43.48.15,0,.15.32.15.47-.31.32-.63.48-.47,1h.47c.8-.32.64-1.91,1.75-1.43a1.79,1.79,0,0,1,.63,2.38,16.55,16.55,0,0,1-1.9,1.58,1.34,1.34,0,0,0,0,1.11,5,5,0,0,1,.79,1.9c.48,1.11.64,2.38,1.11,3.49a22.38,22.38,0,0,1,1.11,7.13c0,1.27-.63,2.38-.16,3.64a13.25,13.25,0,0,0,1.75,3.33,25.55,25.55,0,0,1,1.74,2.54c1,1.58,2.69,3.17,1.9,5.07-.48,1.11-2.22,1-3.33,1.58-.95.8-.16,2.06.32,2.86.79,1.42-1,2.37-2.06,2.85.32.47.95.32,1.11.63.16.8,1,1.27.47,2.06-.63.95-2.53,1.43-1.58,2.86.63,1.11.22,2.34-.16,3.48a3.89,3.89,0,0,1-2.85,2.38,6.41,6.41,0,0,1-3,.16,2.28,2.28,0,0,0-.95-.32c-2.7-.32-5.39-1.11-8.09-1.11a9.14,9.14,0,0,0-2.22.64,13.63,13.63,0,0,0-1.91,1.69l0,0-.35.39-.2.24-.14.16a15.08,15.08,0,0,0-1.24,1.83.75.75,0,0,0-.07.12,2.53,2.53,0,0,0-.13.22,15.85,15.85,0,0,0-1.2,2.91c-1.07,3.63-.6,6.74.15,7.5.21.21,5.23,1.76,8.73,3.32a29.59,29.59,0,0,1,3.74,1.89h88.59Z" transform="translate(-76.27 -83.78)"/><path class="cls-14" d="M229.56,114.38c.64.16,1.59.16,1.59.47-.32,1.27-2.22,1.59-3.17,2.86h-.48c-.47.31-.32,1.11-.79,1.11a2.29,2.29,0,0,0-1.43.15,2.71,2.71,0,0,0,2.38,1,.71.71,0,0,1,.48.64.48.48,0,0,0,.31-.16c.16,0,.32,0,.32.16v.63c-.48.64-1.27.32-1.9.48a7,7,0,0,0,3.64,0c1-.32,0-1.9.64-2.7-.32,0,0-.47-.32-.47.32-.32.63-.79.95-1a1.12,1.12,0,0,0,.95-.48c0-.31-.63-.47-.47-.79,1-.63,1.74-1.58,1.42-2.54-.16-.47-1.42-.47-2.22-.79a5.34,5.34,0,0,0-2.69.16,14,14,0,0,0-2.38.63,11.14,11.14,0,0,0-3,1.59,22.23,22.23,0,0,1,3.49-1A10.09,10.09,0,0,1,229.56,114.38Z" transform="translate(-76.27 -83.78)"/></svg>