<svg width="311" height="243" viewBox="0 0 311 243" fill="none" xmlns="http://www.w3.org/2000/svg">
<rect x="300.138" y="47.5989" width="4.62768" height="13.883" rx="2.31384" transform="rotate(90 300.138 47.5989)" fill="#ACE9BD"/>
<rect x="300.138" y="47.5989" width="4.62768" height="13.883" rx="2.31384" transform="rotate(90 300.138 47.5989)" fill="#ACE9BD"/>
<rect x="300.138" y="47.5989" width="4.62768" height="13.883" rx="2.31384" transform="rotate(90 300.138 47.5989)" fill="#ACE9BD"/>
<rect width="8.43235" height="16.7463" rx="4.21618" transform="matrix(-7.40162e-06 1 -1 -2.71229e-05 301.679 39.6663)" fill="#ACE9BD"/>
<rect width="8.43235" height="16.7463" rx="4.21618" transform="matrix(-7.40162e-06 1 -1 -2.71229e-05 301.679 39.6663)" fill="#ACE9BD"/>
<rect width="8.43235" height="16.7463" rx="4.21618" transform="matrix(-7.40162e-06 1 -1 -2.71229e-05 301.679 39.6663)" fill="#89CC9C"/>
<rect x="221.467" y="51.8752" width="88.5869" height="190.777" rx="10" fill="#89CC9C"/>
<rect x="229.4" y="69.4148" width="73.3817" height="42.3102" rx="10" fill="#ACE9BD"/>
<rect x="229.4" y="119.658" width="10.5775" height="22.4773" rx="5" fill="#A1C4CB"/>
<path d="M193.399 78.7601C191.892 80.4037 191.057 82.5538 191.057 84.7886L191.057 94.5368L191.057 123.295L191.057 137.839L191.057 155.999C191.057 157.11 191.193 158.217 191.463 159.296L191.63 159.962C192.12 161.924 193.136 163.717 194.567 165.148C196.36 166.941 198.709 168.071 201.224 168.35L202.131 168.451C202.9 168.537 203.675 168.557 204.448 168.511L205.959 168.422C207.911 168.308 209.829 167.873 211.637 167.137C215.631 165.51 218.894 162.488 220.822 158.632L223.12 154.036L231.866 137.146C232.382 136.15 233.411 135.525 234.535 135.525C236.833 135.525 238.301 137.989 237.201 140.002L224.249 163.708C222.854 166.26 220.889 168.455 218.507 170.123L217.907 170.543C214.2 173.138 209.78 174.529 205.246 174.529H203.057C202.11 174.529 201.164 174.453 200.229 174.302C191.636 172.91 185.304 165.476 185.304 156.777L185.304 85.2627C185.304 78.4844 189.426 72.4062 195.716 69.9085C200.676 67.9387 206.293 68.483 210.805 71.3708L211.881 72.0595L213.472 73.2524C214.172 73.7776 214.809 74.3825 215.369 75.0548C215.907 75.7003 216.371 76.4038 216.752 77.1521L217.038 77.7122C218.245 80.0802 218.874 82.6981 218.874 85.351L218.874 112.944C218.874 114.565 217.564 115.875 215.943 115.875C214.327 115.875 213.007 114.574 212.984 112.958L212.591 84.7842C212.56 82.5492 211.71 80.3994 210.203 78.7418C209.563 78.0375 208.817 77.4368 207.993 76.9614L207.882 76.8972C206.512 76.1074 204.976 75.6536 203.4 75.5732L201.937 75.4985C200.216 75.4107 198.498 75.7174 196.917 76.3952L196.454 76.5934C195.293 77.091 194.252 77.8295 193.399 78.7601Z" fill="#3E98A0"/>
<rect x="210.89" y="104.453" width="10.5775" height="22.4773" rx="5" fill="#A1C4CB"/>
<circle cx="265.935" cy="171.399" r="17.9701" transform="rotate(-2.3284 265.935 171.399)" fill="#FCE762"/>
<path d="M266.199 163.206L266.434 163.367C267.9 164.371 268.852 165.967 269.039 167.734L263.15 167.663C263.444 165.894 264.467 164.331 265.971 163.354L266.199 163.206Z" fill="#D2C051"/>
<rect x="263.181" y="165.095" width="5.9097" height="14.2352" rx="2.95485" transform="rotate(0.68988 263.181 165.095)" fill="#D2C051"/>
<path d="M275.173 166.35L275.245 166.625C275.694 168.345 275.365 170.174 274.347 171.629L269.949 167.712C271.331 166.571 273.129 166.062 274.905 166.312L275.173 166.35Z" fill="#D2C051"/>
<rect x="271.656" y="165.795" width="5.9097" height="14.2352" rx="2.95485" transform="rotate(41.6899 271.656 165.795)" fill="#D2C051"/>
<path d="M256.872 166.076L257.155 166.044C258.919 165.839 260.685 166.419 261.985 167.63L257.494 171.44C256.556 169.912 256.303 168.061 256.797 166.337L256.872 166.076Z" fill="#D2C051"/>
<rect x="255.833" y="169.482" width="5.9097" height="14.2352" rx="2.95485" transform="rotate(-40.3101 255.833 169.482)" fill="#D2C051"/>
<path fill-rule="evenodd" clip-rule="evenodd" d="M102.754 35.4565C101.328 31.6269 100.946 27.431 102.689 23.5192C107.71 12.2485 122.884 20.653 123.891 27.6305C124.899 34.608 119.137 49.28 114.709 48.8501C112.944 48.6787 109.876 46.4079 107.144 43.0245L103.684 59.3654L90.7132 54.6443L102.754 35.4565Z" fill="#57331F"/>
<path fill-rule="evenodd" clip-rule="evenodd" d="M107.539 36.2771C104.807 38.7791 101.736 40.2945 99.5138 39.4856C95.2924 37.9491 94.3451 31.2128 96.5537 25.1446C96.6313 24.9314 96.7126 24.7212 96.7975 24.514C91.2167 25.953 85.5767 30.7406 79.6682 28.59C71.6296 25.6642 74.3385 8.28844 85.5695 12.3762C93.2075 15.1562 96.5592 17.6372 99.1977 20.4625C100.492 18.8946 102.016 17.7354 103.592 17.1117C103.996 16.8935 104.547 16.7449 105.218 16.6651C105.633 16.6016 106.048 16.5777 106.458 16.5957C108.672 16.5888 111.685 17.1121 114.884 18.1517C115.482 18.3458 116.063 18.5506 116.626 18.764C117.719 15.7903 121.012 14.2592 123.991 15.3435C126.976 16.4299 128.515 19.7304 127.429 22.7153C126.378 25.6019 123.257 27.1363 120.353 26.2515C118.54 26.1612 116.312 25.7683 113.933 25.0789C113.85 26.0087 113.622 27.0165 113.226 28.1048C112.876 29.0658 112.399 30.0464 111.827 31.0102C111.541 30.2283 111.01 29.5926 110.327 29.3439C108.415 28.648 106.512 29.7364 105.904 31.4064C105.132 33.5258 105.798 35.5044 107.539 36.2771Z" fill="#191847"/>
<path fill-rule="evenodd" clip-rule="evenodd" d="M56.207 161.707C70.0044 165.566 81.9084 167.496 91.919 167.496C101.93 167.496 111.228 164.525 119.814 158.581C106.312 154.62 95.1923 152.64 86.4553 152.64C77.7183 152.64 67.6355 155.662 56.207 161.707Z" fill="#000091"/>
<path fill-rule="evenodd" clip-rule="evenodd" d="M103.863 173.059C103.73 172.859 103.618 172.641 103.529 172.405C101.684 167.528 72.1438 114.912 69.2008 105.292H102.459C104.697 112.606 114.768 158.505 116.185 167.662C120.657 182.107 129.865 228.889 131.04 232.129C132.276 235.539 125.319 239.09 123.465 234.899C120.515 228.23 113.486 209.776 110.357 198.509C107.423 187.945 105.034 178.442 103.863 173.059Z" fill="#3D2216"/>
<path fill-rule="evenodd" clip-rule="evenodd" d="M76.6531 179.483C63.1476 182.896 13.7475 189.067 10.3574 190.035C6.87012 191.03 3.81242 183.842 8.12292 182.285C14.9817 179.808 33.8806 174.083 45.339 171.747C54.5555 169.868 62.9657 168.335 68.6121 167.437C68.1337 151.576 65.9471 113.513 67.3803 105.292H96.8079C95.4335 113.176 83.8154 170.697 81.656 176.454C80.9707 178.51 78.9259 179.418 76.6531 179.483Z" fill="#57331F"/>
<path fill-rule="evenodd" clip-rule="evenodd" d="M8.43595 180.371C6.63264 180.036 5.31109 179.942 4.47129 180.09C3.44989 180.271 1.98942 180.704 0.0898757 181.389C0.298804 182.574 2.17648 193.223 5.72291 213.336C8.61382 213.682 10.011 212.942 9.91446 211.114C9.81791 209.287 9.75351 207.766 9.72125 206.552L13.7226 190.537C13.7996 190.229 13.6122 189.916 13.304 189.839C13.2987 189.838 13.2934 189.837 13.2881 189.836L10.8046 189.289C9.74006 187.77 9.11653 186.492 8.93399 185.457C8.78568 184.616 8.92056 183.395 9.33862 181.793L9.33863 181.793C9.49906 181.178 9.1308 180.55 8.5161 180.389C8.4896 180.382 8.46287 180.376 8.43595 180.371Z" fill="#B9B59E"/>
<path fill-rule="evenodd" clip-rule="evenodd" d="M121.354 234.356C120.711 236.074 120.389 237.359 120.389 238.212C120.389 239.249 120.562 240.763 120.907 242.752C122.11 242.752 132.924 242.752 153.347 242.752C154.19 239.966 153.703 238.461 151.887 238.239C150.071 238.017 148.562 237.816 147.36 237.637L132.283 230.915C131.993 230.786 131.653 230.916 131.523 231.206C131.521 231.211 131.519 231.216 131.517 231.221L130.548 233.572C128.867 234.357 127.5 234.749 126.449 234.749C125.595 234.749 124.416 234.404 122.911 233.714L122.911 233.714C122.333 233.449 121.65 233.703 121.386 234.281C121.374 234.305 121.364 234.331 121.354 234.356Z" fill="#B9B59E"/>
<path fill-rule="evenodd" clip-rule="evenodd" d="M67.4755 105.292C80.4432 101.582 92.713 101.582 104.285 105.292C108.311 123.661 118.094 130.952 119.814 159.114C100.259 168.83 76.1027 152.184 55.9725 161.66C50.2211 148.406 58.2731 116.487 67.4755 105.292Z" fill="#4941C0"/>
<path fill-rule="evenodd" clip-rule="evenodd" d="M67.4755 105.292C80.4432 101.582 92.713 101.582 104.285 105.292C108.311 123.661 118.094 130.952 119.814 159.114C100.259 168.83 76.1027 152.184 55.9725 161.66C50.2211 148.406 58.2731 116.487 67.4755 105.292Z" fill="black" fill-opacity="0.2"/>
<path fill-rule="evenodd" clip-rule="evenodd" d="M130.781 100.348L153.341 96.9648C157.817 94.4164 161.947 92.6745 165.73 91.7391C166.799 91.6921 168.508 92.0493 166.014 94.1694C163.521 96.2896 160.995 98.6314 161.468 99.7355C161.942 100.84 164.291 100.39 164.715 102.093C164.998 103.228 161.176 103.472 153.249 102.823L135.037 110.271L130.781 100.348ZM48.4551 80.8859L59.2781 86.195C42.0992 104.347 32.9222 113.948 31.7471 114.999C29.1032 117.362 29.446 123.084 29.3513 126.024C25.0443 125.873 28.2659 120.249 22.7942 120.137C17.8 120.035 13.0343 121.931 9.7354 116.768C9.32982 116.133 9.34775 114.494 11.3899 114.197C16.4776 113.459 24.2018 111.594 25.6767 110.462C27.6879 108.918 35.2807 99.0589 48.4551 80.8859Z" fill="#57331F"/>
<path fill-rule="evenodd" clip-rule="evenodd" d="M102.29 49.8848L107.331 50.3567C115.126 63.2704 112.909 88.6836 119.047 93.7706C124.85 98.5802 135.017 98.1549 147.229 97.1744L148.616 105.653C135.575 113.805 111.534 117.202 104.191 109.618C92.4508 97.4913 97.2411 66.6991 102.29 49.8848Z" fill="#DB2721"/>
<path fill-rule="evenodd" clip-rule="evenodd" d="M65.1763 104.327C84.5077 109.506 98.7275 113.317 107.836 115.757C109.785 116.279 110.165 113.39 110.261 111.906C111.364 94.7821 103.363 73.8606 109.562 50.7249L97.77 45.5147C83.2435 59.0172 74.3696 78.0562 65.1763 104.327Z" fill="#DDE3E9"/>
<path fill-rule="evenodd" clip-rule="evenodd" d="M65.3307 86.7309C52.4668 99.9539 42.1567 109.193 34.4002 114.448L25.9237 110.315C41.1738 76.4408 64.8579 54.7697 96.9761 45.3018L97.1166 45.3395L101.848 46.6073C102.891 86.9025 99.2706 112.595 90.9873 123.685L52.5872 113.396C55.6294 104.472 60.1522 95.385 65.3307 86.7309Z" fill="#FF4133"/>
</svg>
