<svg width="683" height="485" viewBox="0 0 683 485" fill="none" xmlns="http://www.w3.org/2000/svg">
<path d="M248.638 421.648C238.526 421.648 231.294 413.584 231.294 403.6C231.294 393.616 238.526 385.552 248.638 385.552C254.654 385.552 259.582 388.496 262.59 392.848L267.39 389.136C263.294 383.632 256.702 379.92 248.638 379.92C234.622 379.92 225.086 390.8 225.086 403.6C225.086 416.4 234.622 427.28 248.638 427.28C256.702 427.28 263.294 423.632 267.39 418.064L262.59 414.352C259.582 418.704 254.654 421.648 248.638 421.648ZM284.162 426.896C288.45 426.896 292.546 425.104 294.978 421.968V426H300.418V404.368C300.418 397.264 295.554 392.464 287.362 392.464C281.73 392.464 277.186 394.832 274.37 398.672L278.466 401.808C280.45 399.056 283.458 397.328 287.17 397.328C291.778 397.328 294.978 399.888 294.978 404.368V406.608L284.098 408.4C277.25 409.552 273.538 413.008 273.538 417.872C273.538 423.376 277.826 426.896 284.162 426.896ZM279.042 417.68C279.042 414.928 281.026 412.944 285.442 412.176L294.978 410.576V416.912C292.866 420.368 289.346 422.416 285.058 422.416C281.282 422.416 279.042 420.432 279.042 417.68ZM311.332 426H316.772V403.856C318.756 400.592 321.508 398.416 325.732 398.416C327.012 398.416 327.972 398.544 328.932 398.8V393.488C328.164 393.232 327.204 393.104 326.18 393.104C322.084 393.104 319.14 394.96 316.772 397.776V393.744H311.332V426ZM370.241 409.872C370.241 400.464 363.777 392.464 353.665 392.464C348.865 392.464 345.089 394.32 342.209 397.584V378H336.769V426H342.209V422.16C345.089 425.424 348.865 427.28 353.665 427.28C363.777 427.28 370.241 419.28 370.241 409.872ZM353.025 397.584C359.873 397.584 364.545 403.024 364.545 409.872C364.545 416.72 359.873 422.16 353.025 422.16C348.609 422.16 344.705 420.048 342.209 416.208V403.536C344.577 399.76 348.545 397.584 353.025 397.584ZM401.546 412.176C401.546 418.512 398.09 422.16 392.714 422.16C387.21 422.16 383.818 418.512 383.818 412.176V393.744H378.378V411.984C378.378 421.648 383.946 427.28 392.65 427.28C401.418 427.28 406.986 421.648 406.986 411.984V393.744H401.546V412.176ZM411.755 426H423.147V409.04H425.835L437.099 426H450.411L436.715 406.992C441.195 404.688 443.755 400.592 443.755 395.152C443.755 386.384 437.291 381.2 426.795 381.2H411.755V426ZM427.499 390.608C430.379 390.608 432.043 392.464 432.043 395.024C432.043 397.776 430.379 399.632 427.499 399.632H423.147V390.608H427.499ZM478.022 420.816L470.854 415.12C469.382 416.976 466.694 418.192 463.622 418.192C459.782 418.192 456.966 417.04 456.006 412.688H476.87C477.19 411.536 477.51 409.488 477.51 407.312C477.51 398.544 471.494 392.464 462.342 392.464C451.398 392.464 445.574 400.528 445.574 409.872C445.574 419.28 451.846 427.28 463.686 427.28C469.894 427.28 474.95 424.848 478.022 420.816ZM462.086 400.656C465.862 400.656 467.526 403.344 467.654 405.52H456.07C456.838 402.256 458.822 400.656 462.086 400.656Z" fill="#3F32B8"/>
<path d="M236.375 462.572C233.057 462.572 230.684 459.926 230.684 456.65C230.684 453.374 233.057 450.728 236.375 450.728C238.349 450.728 239.966 451.694 240.953 453.122L242.528 451.904C241.184 450.098 239.021 448.88 236.375 448.88C231.776 448.88 228.647 452.45 228.647 456.65C228.647 460.85 231.776 464.42 236.375 464.42C239.021 464.42 241.184 463.223 242.528 461.396L240.953 460.178C239.966 461.606 238.349 462.572 236.375 462.572ZM248.031 464.294C249.438 464.294 250.782 463.706 251.58 462.677V464H253.365V456.902C253.365 454.571 251.769 452.996 249.081 452.996C247.233 452.996 245.742 453.773 244.818 455.033L246.162 456.062C246.813 455.159 247.8 454.592 249.018 454.592C250.53 454.592 251.58 455.432 251.58 456.902V457.637L248.01 458.225C245.763 458.603 244.545 459.737 244.545 461.333C244.545 463.139 245.952 464.294 248.031 464.294ZM246.351 461.27C246.351 460.367 247.002 459.716 248.451 459.464L251.58 458.939V461.018C250.887 462.152 249.732 462.824 248.325 462.824C247.086 462.824 246.351 462.173 246.351 461.27ZM256.946 464H258.731V456.734C259.382 455.663 260.285 454.949 261.671 454.949C262.091 454.949 262.406 454.991 262.721 455.075V453.332C262.469 453.248 262.154 453.206 261.818 453.206C260.474 453.206 259.508 453.815 258.731 454.739V453.416H256.946V464ZM276.276 458.708C276.276 455.621 274.155 452.996 270.837 452.996C269.262 452.996 268.023 453.605 267.078 454.676V448.25H265.293V464H267.078V462.74C268.023 463.811 269.262 464.42 270.837 464.42C274.155 464.42 276.276 461.795 276.276 458.708ZM270.627 454.676C272.874 454.676 274.407 456.461 274.407 458.708C274.407 460.955 272.874 462.74 270.627 462.74C269.178 462.74 267.897 462.047 267.078 460.787V456.629C267.855 455.39 269.157 454.676 270.627 454.676ZM286.548 459.464C286.548 461.543 285.414 462.74 283.65 462.74C281.844 462.74 280.731 461.543 280.731 459.464V453.416H278.946V459.401C278.946 462.572 280.773 464.42 283.629 464.42C286.506 464.42 288.333 462.572 288.333 459.401V453.416H286.548V459.464ZM291.85 464H293.635V456.734C294.286 455.663 295.189 454.949 296.575 454.949C296.995 454.949 297.31 454.991 297.625 455.075V453.332C297.373 453.248 297.058 453.206 296.722 453.206C295.378 453.206 294.412 453.815 293.635 454.739V453.416H291.85V464ZM302.602 464.294C304.009 464.294 305.353 463.706 306.151 462.677V464H307.936V456.902C307.936 454.571 306.34 452.996 303.652 452.996C301.804 452.996 300.313 453.773 299.389 455.033L300.733 456.062C301.384 455.159 302.371 454.592 303.589 454.592C305.101 454.592 306.151 455.432 306.151 456.902V457.637L302.581 458.225C300.334 458.603 299.116 459.737 299.116 461.333C299.116 463.139 300.523 464.294 302.602 464.294ZM300.922 461.27C300.922 460.367 301.573 459.716 303.022 459.464L306.151 458.939V461.018C305.458 462.152 304.303 462.824 302.896 462.824C301.657 462.824 300.922 462.173 300.922 461.27ZM311.517 464H313.302V456.671C313.974 455.558 314.94 454.676 316.473 454.676C318.111 454.676 319.182 455.768 319.182 457.658V464H320.967V457.595C320.967 454.592 319.203 452.996 316.83 452.996C315.255 452.996 314.163 453.668 313.302 454.613V453.416H311.517V464ZM325.169 460.451C325.169 463.034 326.492 464.21 328.844 464.21C329.6 464.21 330.167 464.126 330.671 463.916V462.32C330.272 462.488 329.789 462.572 329.096 462.572C327.815 462.572 326.975 462.11 326.975 460.451V455.033H330.65V453.416H326.975V450.77H325.169V453.416H323.174V455.033H325.169V460.451ZM332.245 462.551C333.211 463.748 334.534 464.42 336.214 464.42C338.188 464.42 339.763 463.181 339.784 461.207C339.784 457.595 334.471 458.351 334.471 455.978C334.471 455.159 335.08 454.487 336.214 454.487C337.138 454.487 337.936 454.991 338.503 455.789L339.742 454.739C339.007 453.71 337.705 452.996 336.193 452.996C334.156 452.996 332.749 454.361 332.749 456.02C332.749 459.758 338.041 458.918 338.041 461.291C338.041 462.215 337.369 462.929 336.193 462.929C335.122 462.929 334.24 462.404 333.505 461.48L332.245 462.551Z" fill="#3F32B8"/>
<path d="M356.117 464H359.855V458.435H360.737L364.433 464H368.801L364.307 457.763C365.777 457.007 366.617 455.663 366.617 453.878C366.617 451.001 364.496 449.3 361.052 449.3H356.117V464ZM361.283 452.387C362.228 452.387 362.774 452.996 362.774 453.836C362.774 454.739 362.228 455.348 361.283 455.348H359.855V452.387H361.283ZM377.861 462.299L375.509 460.43C375.026 461.039 374.144 461.438 373.136 461.438C371.876 461.438 370.952 461.06 370.637 459.632H377.483C377.588 459.254 377.693 458.582 377.693 457.868C377.693 454.991 375.719 452.996 372.716 452.996C369.125 452.996 367.214 455.642 367.214 458.708C367.214 461.795 369.272 464.42 373.157 464.42C375.194 464.42 376.853 463.622 377.861 462.299ZM372.632 455.684C373.871 455.684 374.417 456.566 374.459 457.28H370.658C370.91 456.209 371.561 455.684 372.632 455.684ZM377.864 464H381.203V457.406C381.413 457.049 381.938 456.125 383.114 456.125C384.185 456.125 384.752 456.86 384.752 457.931V464H388.112V457.784C388.112 454.571 386.264 452.996 384.017 452.996C382.778 452.996 381.896 453.416 381.203 454.004V453.416H377.864V464ZM393.872 452.996C390.386 452.996 388.013 455.474 388.013 458.708C388.013 461.942 390.386 464.42 393.872 464.42C397.337 464.42 399.71 461.942 399.71 458.708C399.71 455.474 397.337 452.996 393.872 452.996ZM393.893 461.291C392.507 461.291 391.478 460.283 391.478 458.708C391.478 457.133 392.507 456.125 393.893 456.125C395.237 456.125 396.266 457.112 396.266 458.708C396.266 460.262 395.237 461.291 393.893 461.291ZM406.408 459.401C406.408 460.514 405.841 461.291 404.644 461.291C403.405 461.291 402.859 460.514 402.859 459.401V453.416H399.499V459.212C399.499 462.383 401.326 464.42 404.623 464.42C407.878 464.42 409.768 462.383 409.768 459.212V453.416H406.408V459.401ZM408.936 453.416L412.569 464H416.958L420.591 453.416H417.021L414.774 459.989L412.506 453.416H408.936ZM429.684 462.299L427.332 460.43C426.849 461.039 425.967 461.438 424.959 461.438C423.699 461.438 422.775 461.06 422.46 459.632H429.306C429.411 459.254 429.516 458.582 429.516 457.868C429.516 454.991 427.542 452.996 424.539 452.996C420.948 452.996 419.037 455.642 419.037 458.708C419.037 461.795 421.095 464.42 424.98 464.42C427.017 464.42 428.676 463.622 429.684 462.299ZM424.455 455.684C425.694 455.684 426.24 456.566 426.282 457.28H422.481C422.733 456.209 423.384 455.684 424.455 455.684ZM429.687 464H433.026V448.25H429.687V464ZM436.724 464.315C437.837 464.315 439.034 463.853 439.622 463.202V464H442.94V457.322C442.94 455.012 441.386 452.996 438.026 452.996C436.052 452.996 434.435 453.794 433.469 455.138L435.905 456.986C436.388 456.293 437.039 455.873 437.921 455.873C438.908 455.873 439.601 456.482 439.622 457.28L436.64 457.784C434.33 458.162 433.091 459.401 433.091 461.018C433.091 463.076 434.582 464.315 436.724 464.315ZM436.388 460.85C436.388 460.367 436.682 460.052 437.543 459.905L439.622 459.548V460.598C439.202 461.228 438.53 461.732 437.459 461.732C436.808 461.732 436.388 461.396 436.388 460.85ZM455.086 458.708C455.086 455.621 453.133 452.996 449.752 452.996C448.45 452.996 447.526 453.353 446.812 454.004V448.25H443.473V464H446.812V463.412C447.526 464.063 448.45 464.42 449.752 464.42C453.133 464.42 455.086 461.795 455.086 458.708ZM449.269 456.125C450.739 456.125 451.642 457.154 451.642 458.708C451.642 460.262 450.739 461.291 449.269 461.291C448.24 461.291 447.442 460.85 446.812 460.052V457.364C447.379 456.587 448.198 456.125 449.269 456.125ZM455.072 464H458.411V448.25H455.072V464ZM469.059 462.299L466.707 460.43C466.224 461.039 465.342 461.438 464.334 461.438C463.074 461.438 462.15 461.06 461.835 459.632H468.681C468.786 459.254 468.891 458.582 468.891 457.868C468.891 454.991 466.917 452.996 463.914 452.996C460.323 452.996 458.412 455.642 458.412 458.708C458.412 461.795 460.47 464.42 464.355 464.42C466.392 464.42 468.051 463.622 469.059 462.299ZM463.83 455.684C465.069 455.684 465.615 456.566 465.657 457.28H461.856C462.108 456.209 462.759 455.684 463.83 455.684ZM468.08 462.404C469.151 463.622 470.495 464.42 472.532 464.42C474.569 464.42 476.522 463.202 476.564 460.808C476.564 457.112 471.671 457.658 471.671 456.293C471.671 455.936 471.944 455.642 472.532 455.642C473.288 455.642 473.918 456.209 474.422 456.797L476.606 454.844C475.808 453.815 474.212 452.996 472.532 452.996C470.201 452.996 468.5 454.445 468.5 456.461C468.5 460.178 473.393 459.59 473.393 461.039C473.393 461.459 473.099 461.774 472.49 461.774C471.545 461.774 470.831 461.144 470.264 460.409L468.08 462.404Z" fill="#3F32B8"/>
<path d="M649.673 397.369C650.43 396.215 650.107 394.665 648.952 393.908C647.798 393.151 646.248 393.474 645.491 394.629L649.673 397.369ZM541.951 454.188C540.571 454.215 539.474 455.355 539.5 456.736C539.527 458.116 540.668 459.214 542.049 459.187L541.951 454.188ZM555.899 456.416L555.947 458.916L555.899 456.416ZM644.242 396.535C643.485 397.69 643.807 399.24 644.962 399.996C646.117 400.753 647.667 400.431 648.424 399.276L644.242 396.535ZM640.927 410.714C641.684 409.559 641.361 408.01 640.206 407.253C639.052 406.496 637.502 406.819 636.745 407.973L640.927 410.714ZM634.174 411.845C633.389 412.981 633.674 414.538 634.81 415.322C635.946 416.107 637.503 415.822 638.288 414.686L634.174 411.845ZM628.94 426.312C629.881 425.302 629.825 423.72 628.815 422.779C627.805 421.838 626.223 421.894 625.282 422.904L628.94 426.312ZM621.972 426.288C620.983 427.251 620.962 428.834 621.925 429.823C622.888 430.812 624.471 430.833 625.46 429.87L621.972 426.288ZM614.043 439.471C615.162 438.662 615.412 437.099 614.603 435.981C613.794 434.862 612.231 434.611 611.112 435.421L614.043 439.471ZM607.21 438.102C606.054 438.856 605.728 440.405 606.482 441.562C607.236 442.718 608.785 443.044 609.942 442.29L607.21 438.102ZM596.887 449.508C598.14 448.93 598.688 447.445 598.109 446.191C597.531 444.937 596.045 444.39 594.792 444.968L596.887 449.508ZM590.446 446.847C589.166 447.364 588.547 448.821 589.064 450.101C589.581 451.381 591.038 452 592.318 451.483L590.446 446.847ZM578.115 456.047C579.457 455.721 580.281 454.37 579.956 453.028C579.63 451.686 578.278 450.862 576.937 451.188L578.115 456.047ZM572.311 452.192C570.955 452.452 570.067 453.762 570.326 455.118C570.586 456.474 571.896 457.362 573.252 457.102L572.311 452.192ZM558.435 458.837C559.815 458.777 560.884 457.609 560.824 456.23C560.763 454.851 559.596 453.781 558.217 453.842L558.435 458.837ZM554.112 453.95C552.732 453.977 551.635 455.118 551.662 456.499C551.689 457.879 552.83 458.976 554.21 458.95L554.112 453.95ZM543.786 459.153C545.167 459.126 546.264 457.985 546.237 456.605C546.21 455.224 545.069 454.127 543.689 454.154L543.786 459.153ZM645.491 394.629L644.242 396.535L648.424 399.276L649.673 397.369L645.491 394.629ZM636.745 407.973L635.496 409.88L639.678 412.621L640.927 410.714L636.745 407.973ZM635.496 409.88C635.062 410.541 634.622 411.196 634.174 411.845L638.288 414.686C638.759 414.004 639.222 413.316 639.678 412.621L635.496 409.88ZM625.282 422.904C624.204 424.06 623.101 425.189 621.972 426.288L625.46 429.87C626.647 428.714 627.807 427.528 628.94 426.312L625.282 422.904ZM611.112 435.421C609.833 436.346 608.532 437.24 607.21 438.102L609.942 442.29C611.331 441.384 612.698 440.445 614.043 439.471L611.112 435.421ZM594.792 444.968C593.359 445.629 591.911 446.256 590.446 446.847L592.318 451.483C593.858 450.862 595.381 450.203 596.887 449.508L594.792 444.968ZM576.937 451.188C575.406 451.559 573.863 451.894 572.311 452.192L573.252 457.102C574.885 456.79 576.506 456.438 578.115 456.047L576.937 451.188ZM558.217 453.842C557.429 453.876 556.64 453.901 555.85 453.917L555.947 458.916C556.778 458.899 557.608 458.873 558.435 458.837L558.217 453.842ZM555.85 453.917L554.112 453.95L554.21 458.95L555.947 458.916L555.85 453.917ZM543.689 454.154L541.951 454.188L542.049 459.187L543.786 459.153L543.689 454.154Z" fill="#CECECE"/>
<path d="M57.2735 86.9281C56.5134 88.0807 56.8316 89.6313 57.9842 90.3914C59.1369 91.1515 60.6874 90.8333 61.4476 89.6807L57.2735 86.9281ZM165.156 30.416C166.537 30.393 167.637 29.2552 167.614 27.8747C167.591 26.4942 166.453 25.3937 165.073 25.4167L165.156 30.416ZM151.215 28.1479L151.174 25.6483L151.215 28.1479ZM62.7024 87.7779C63.4625 86.6252 63.1443 85.0746 61.9916 84.3145C60.839 83.5544 59.2884 83.8726 58.5283 85.0252L62.7024 87.7779ZM66.0572 73.6082C65.2971 74.7609 65.6153 76.3115 66.768 77.0716C67.9206 77.8317 69.4712 77.5135 70.2313 76.3609L66.0572 73.6082ZM72.8138 72.4969C73.6016 71.363 73.3211 69.8051 72.1872 69.0173C71.0533 68.2295 69.4954 68.5101 68.7076 69.644L72.8138 72.4969ZM78.0884 58.0442C77.1443 59.0517 77.1957 60.6338 78.2032 61.5779C79.2107 62.5219 80.7928 62.4705 81.7369 61.463L78.0884 58.0442ZM85.0563 58.0888C86.0482 57.1284 86.0737 55.5457 85.1132 54.5537C84.1528 53.5618 82.5701 53.5363 81.5782 54.4968L85.0563 58.0888ZM93.0227 44.9274C91.9018 45.7337 91.6468 47.2959 92.453 48.4168C93.2592 49.5376 94.8214 49.7927 95.9423 48.9865L93.0227 44.9274ZM99.8515 46.3163C101.01 45.5654 101.341 44.0174 100.59 42.8587C99.8389 41.7 98.2909 41.3694 97.1323 42.1203L99.8515 46.3163ZM110.208 34.9392C108.952 35.5141 108.401 36.9978 108.976 38.2532C109.551 39.5085 111.034 40.0601 112.29 39.4852L110.208 34.9392ZM116.64 37.619C117.922 37.1057 118.545 35.6505 118.032 34.3688C117.518 33.087 116.063 32.4641 114.781 32.9774L116.64 37.619ZM128.997 28.454C127.655 28.7757 126.827 30.125 127.149 31.4677C127.47 32.8104 128.82 33.6381 130.162 33.3163L128.997 28.454ZM134.791 32.3256C136.147 32.0694 137.04 30.762 136.784 29.4052C136.527 28.0485 135.22 27.1562 133.863 27.4123L134.791 32.3256ZM148.685 25.7199C147.306 25.7763 146.233 26.9404 146.289 28.32C146.346 29.6995 147.51 30.7721 148.89 30.7157L148.685 25.7199ZM152.994 30.6186C154.375 30.5956 155.475 29.4579 155.452 28.0773C155.429 26.6968 154.291 25.5963 152.911 25.6193L152.994 30.6186ZM163.335 25.4456C161.955 25.4686 160.854 26.6064 160.877 27.9869C160.9 29.3675 162.038 30.4679 163.419 30.4449L163.335 25.4456ZM61.4476 89.6807L62.7024 87.7779L58.5283 85.0252L57.2735 86.9281L61.4476 89.6807ZM70.2313 76.3609L71.4862 74.458L67.3121 71.7054L66.0572 73.6082L70.2313 76.3609ZM71.4862 74.458C71.9215 73.798 72.3641 73.1442 72.8138 72.4969L68.7076 69.644C68.2348 70.3244 67.7696 71.0116 67.3121 71.7054L71.4862 74.458ZM81.7369 61.463C82.8177 60.3096 83.9246 59.1846 85.0563 58.0888L81.5782 54.4968C80.3884 55.6488 79.2247 56.8315 78.0884 58.0442L81.7369 61.463ZM95.9423 48.9865C97.2242 48.0644 98.5277 47.1741 99.8515 46.3163L97.1323 42.1203C95.7407 43.0222 94.3704 43.9581 93.0227 44.9274L95.9423 48.9865ZM112.29 39.4852C113.724 38.8284 115.174 38.2061 116.64 37.619L114.781 32.9774C113.24 33.5946 111.715 34.2488 110.208 34.9392L112.29 39.4852ZM130.162 33.3163C131.694 32.9492 133.237 32.6188 134.791 32.3256L133.863 27.4123C132.23 27.7206 130.608 28.068 128.997 28.454L130.162 33.3163ZM148.89 30.7157C149.677 30.6835 150.466 30.6608 151.257 30.6476L151.174 25.6483C150.343 25.6621 149.513 25.686 148.685 25.7199L148.89 30.7157ZM151.257 30.6476L152.994 30.6186L152.911 25.6193L151.174 25.6483L151.257 30.6476ZM163.419 30.4449L165.156 30.416L165.073 25.4167L163.335 25.4456L163.419 30.4449Z" fill="#CECECE"/>
<path d="M351.5 260.999C351.5 259.618 350.381 258.499 349 258.499C347.619 258.499 346.5 259.618 346.5 260.999H351.5ZM346.5 351.999C346.5 353.38 347.619 354.499 349 354.499C350.381 354.499 351.5 353.38 351.5 351.999H346.5ZM346.5 263.957C346.5 265.338 347.619 266.457 349 266.457C350.381 266.457 351.5 265.338 351.5 263.957H346.5ZM351.5 281.706C351.5 280.325 350.381 279.206 349 279.206C347.619 279.206 346.5 280.325 346.5 281.706H351.5ZM346.5 287.622C346.5 289.003 347.619 290.122 349 290.122C350.381 290.122 351.5 289.003 351.5 287.622H346.5ZM351.5 305.371C351.5 303.991 350.381 302.871 349 302.871C347.619 302.871 346.5 303.991 346.5 305.371H351.5ZM346.5 311.059C346.5 312.44 347.619 313.559 349 313.559C350.381 313.559 351.5 312.44 351.5 311.059H346.5ZM351.5 327.435C351.5 326.054 350.381 324.935 349 324.935C347.619 324.935 346.5 326.054 346.5 327.435H351.5ZM346.5 332.894C346.5 334.274 347.619 335.394 349 335.394C350.381 335.394 351.5 334.274 351.5 332.894H346.5ZM351.5 349.27C351.5 347.889 350.381 346.77 349 346.77C347.619 346.77 346.5 347.889 346.5 349.27H351.5ZM346.5 260.999V263.957H351.5V260.999H346.5ZM346.5 281.706V287.622H351.5V281.706H346.5ZM346.5 305.371V308.329H351.5V305.371H346.5ZM346.5 308.329V311.059H351.5V308.329H346.5ZM346.5 327.435V332.894H351.5V327.435H346.5ZM346.5 349.27V351.999H351.5V349.27H346.5Z" fill="#CECECE"/>
<path d="M175.441 458.019C176.822 458.051 177.966 456.957 177.998 455.577C178.03 454.197 176.936 453.052 175.556 453.02L175.441 458.019ZM70.2536 396.636C69.5007 395.479 67.9522 395.151 66.7948 395.904C65.6373 396.657 65.3094 398.205 66.0622 399.362L70.2536 396.636ZM75.7375 409.652L73.6418 411.015L75.7375 409.652ZM173.277 452.968C171.897 452.936 170.752 454.029 170.721 455.41C170.689 456.79 171.782 457.935 173.162 457.967L173.277 452.968ZM159.49 457.653C160.87 457.684 162.015 456.591 162.047 455.211C162.079 453.83 160.985 452.686 159.605 452.654L159.49 457.653ZM154.959 452.518C153.58 452.453 152.409 453.519 152.344 454.898C152.279 456.277 153.344 457.448 154.724 457.513L154.959 452.518ZM139.913 455.727C141.268 455.992 142.581 455.108 142.845 453.753C143.11 452.398 142.226 451.084 140.871 450.82L139.913 455.727ZM136.249 449.8C134.908 449.47 133.554 450.289 133.224 451.629C132.893 452.97 133.713 454.325 135.053 454.655L136.249 449.8ZM120.866 450.042C122.145 450.563 123.604 449.949 124.125 448.671C124.647 447.392 124.033 445.933 122.754 445.412L120.866 450.042ZM118.415 443.518C117.164 442.936 115.677 443.478 115.094 444.73C114.511 445.981 115.053 447.468 116.305 448.051L118.415 443.518ZM103.275 440.788C104.429 441.546 105.979 441.225 106.737 440.071C107.495 438.917 107.174 437.367 106.021 436.609L103.275 440.788ZM102.128 433.914C101.013 433.101 99.4487 433.346 98.6355 434.462C97.8222 435.578 98.0674 437.142 99.1832 437.955L102.128 433.914ZM87.7992 428.314C88.785 429.28 90.3679 429.265 91.3346 428.279C92.3012 427.293 92.2857 425.71 91.2999 424.744L87.7992 428.314ZM88.0018 421.349C87.0641 420.335 85.4824 420.274 84.4689 421.211C83.4555 422.149 83.3941 423.731 84.3318 424.744L88.0018 421.349ZM75.0243 413.086C75.805 414.224 77.361 414.515 78.4999 413.734C79.6387 412.954 79.9291 411.398 79.1484 410.259L75.0243 413.086ZM76.8857 406.833C76.1329 405.675 74.5844 405.347 73.4269 406.1C72.2695 406.853 71.9415 408.401 72.6944 409.559L76.8857 406.833ZM67.0097 400.819C67.7625 401.977 69.3111 402.305 70.4685 401.552C71.6259 400.799 71.9539 399.25 71.201 398.093L67.0097 400.819ZM175.556 453.02L173.277 452.968L173.162 457.967L175.441 458.019L175.556 453.02ZM159.605 452.654L157.326 452.601L157.211 457.6L159.49 457.653L159.605 452.654ZM157.326 452.601C156.536 452.583 155.747 452.556 154.959 452.518L154.724 457.513C155.551 457.552 156.38 457.581 157.211 457.6L157.326 452.601ZM140.871 450.82C139.32 450.517 137.778 450.177 136.249 449.8L135.053 454.655C136.661 455.051 138.282 455.409 139.913 455.727L140.871 450.82ZM122.754 445.412C121.292 444.816 119.845 444.184 118.415 443.518L116.305 448.051C117.808 448.751 119.329 449.415 120.866 450.042L122.754 445.412ZM106.021 436.609C104.702 435.743 103.404 434.844 102.128 433.914L99.1832 437.955C100.525 438.933 101.889 439.877 103.275 440.788L106.021 436.609ZM91.2999 424.744C90.1751 423.641 89.0753 422.509 88.0018 421.349L84.3318 424.744C85.4605 425.964 86.6167 427.154 87.7992 428.314L91.2999 424.744ZM79.1484 410.259C78.7028 409.609 78.2643 408.952 77.8332 408.289L73.6418 411.015C74.095 411.712 74.5559 412.402 75.0243 413.086L79.1484 410.259ZM77.8332 408.289L76.8857 406.833L72.6944 409.559L73.6418 411.015L77.8332 408.289ZM71.201 398.093L70.2536 396.636L66.0622 399.362L67.0097 400.819L71.201 398.093Z" fill="#CECECE"/>
<path d="M531.676 27.6258C530.295 27.5902 529.148 28.6802 529.112 30.0605C529.076 31.4407 530.166 32.5885 531.547 32.6241L531.676 27.6258ZM636.689 89.3068C637.438 90.4664 638.986 90.7988 640.145 90.0492C641.305 89.2997 641.637 87.752 640.888 86.5925L636.689 89.3068ZM631.242 76.2752L633.341 74.9181L631.242 76.2752ZM533.825 32.6829C535.205 32.7185 536.353 31.6285 536.389 30.2483C536.424 28.868 535.334 27.7202 533.954 27.6846L533.825 32.6829ZM547.626 28.0374C546.245 28.0018 545.098 29.0918 545.062 30.4721C545.026 31.8523 546.116 33.0001 547.497 33.0358L547.626 28.0374ZM552.142 33.1843C553.521 33.2534 554.695 32.1914 554.764 30.8125C554.833 29.4335 553.771 28.2596 552.392 28.1906L552.142 33.1843ZM567.198 30.0184C565.843 29.7499 564.528 30.6302 564.259 31.9845C563.991 33.3389 564.871 34.6545 566.225 34.923L567.198 30.0184ZM570.844 35.956C572.184 36.29 573.541 35.4747 573.875 34.135C574.209 32.7953 573.394 31.4385 572.054 31.1045L570.844 35.956ZM586.228 35.7577C584.951 35.2327 583.49 35.8423 582.965 37.1193C582.44 38.3963 583.049 39.8572 584.326 40.3822L586.228 35.7577ZM588.66 42.288C589.91 42.8744 591.399 42.3363 591.985 41.0863C592.571 39.8363 592.033 38.3476 590.783 37.7613L588.66 42.288ZM603.793 45.0616C602.641 44.3002 601.09 44.6166 600.328 45.7683C599.567 46.9201 599.883 48.4711 601.035 49.2325L603.793 45.0616ZM604.92 51.9384C606.033 52.7548 607.598 52.514 608.414 51.4005C609.231 50.2871 608.99 48.7226 607.876 47.9062L604.92 51.9384ZM619.233 57.5797C618.25 56.6102 616.667 56.6213 615.697 57.6044C614.728 58.5875 614.739 60.1703 615.722 61.1398L619.233 57.5797ZM619.011 64.5442C619.945 65.5603 621.527 65.6262 622.543 64.6914C623.559 63.7565 623.625 62.175 622.69 61.1589L619.011 64.5442ZM631.964 72.8439C631.187 71.7029 629.632 71.4081 628.491 72.1855C627.35 72.9629 627.055 74.5182 627.832 75.6592L631.964 72.8439ZM630.085 79.0917C630.835 80.2513 632.382 80.5836 633.542 79.8341C634.702 79.0845 635.034 77.5369 634.284 76.3774L630.085 79.0917ZM639.944 85.1332C639.195 83.9736 637.647 83.6413 636.488 84.3908C635.328 85.1404 634.996 86.688 635.745 87.8475L639.944 85.1332ZM531.547 32.6241L533.825 32.6829L533.954 27.6846L531.676 27.6258L531.547 32.6241ZM547.497 33.0358L549.775 33.0946L549.904 28.0962L547.626 28.0374L547.497 33.0358ZM549.775 33.0946C550.566 33.115 551.355 33.1449 552.142 33.1843L552.392 28.1906C551.564 28.1491 550.735 28.1177 549.904 28.0962L549.775 33.0946ZM566.225 34.923C567.776 35.2304 569.316 35.575 570.844 35.956L572.054 31.1045C570.447 30.7039 568.828 30.3416 567.198 30.0184L566.225 34.923ZM584.326 40.3822C585.787 40.9826 587.232 41.6181 588.66 42.288L590.783 37.7613C589.282 37.0571 587.763 36.389 586.228 35.7577L584.326 40.3822ZM601.035 49.2325C602.351 50.1024 603.646 51.0046 604.92 51.9384L607.876 47.9062C606.538 46.9245 605.176 45.9761 603.793 45.0616L601.035 49.2325ZM615.722 61.1398C616.844 62.2459 617.94 63.3809 619.011 64.5442L622.69 61.1589C621.565 59.9359 620.412 58.7426 619.233 57.5797L615.722 61.1398ZM627.832 75.6592C628.276 76.3106 628.713 76.9684 629.142 77.6324L633.341 74.9181C632.89 74.2201 632.431 73.5287 631.964 72.8439L627.832 75.6592ZM629.142 77.6324L630.085 79.0917L634.284 76.3774L633.341 74.9181L629.142 77.6324ZM635.745 87.8475L636.689 89.3068L640.888 86.5925L639.944 85.1332L635.745 87.8475Z" fill="#CECECE"/>
<path d="M288.66 122.772H325.055H361.449V238.954H288.66V122.772Z" fill="#ACE9BD"/>
<path d="M288.66 122.772H325.055H361.449V238.954H288.66V122.772Z" fill="#ACE9BD"/>
<path d="M288.66 122.772H325.055H361.449V238.954H288.66V122.772Z" fill="#ACE9BD"/>
<rect x="286.561" y="122.772" width="76.988" height="2.79956" rx="1.39978" fill="#4941C0"/>
<path d="M341.152 101.176C341.152 98.4146 343.391 96.176 346.152 96.176H377.547H408.941C411.702 96.176 413.941 98.4146 413.941 101.176V233.954C413.941 236.715 411.702 238.954 408.941 238.954H346.152C343.391 238.954 341.152 236.715 341.152 233.954V101.176Z" fill="#00AC8C"/>
<rect x="339.053" y="96.176" width="76.988" height="2.79956" rx="1.39978" fill="#4941C0"/>
<rect x="297.059" y="138.169" width="10.4984" height="17.4973" rx="5" fill="#ACE9BD"/>
<rect x="297.059" y="138.169" width="10.4984" height="17.4973" rx="5" fill="#ACE9BD"/>
<rect x="297.059" y="138.169" width="10.4984" height="17.4973" rx="5" fill="#4941C0"/>
<rect x="297.059" y="160.566" width="10.4984" height="17.4973" rx="5" fill="#ACE9BD"/>
<rect x="297.059" y="160.566" width="10.4984" height="17.4973" rx="5" fill="#ACE9BD"/>
<rect x="297.059" y="160.566" width="10.4984" height="17.4973" rx="5" fill="#4941C0"/>
<rect x="297.059" y="182.962" width="10.4984" height="17.4973" rx="5" fill="#ACE9BD"/>
<rect x="297.059" y="182.962" width="10.4984" height="17.4973" rx="5" fill="#ACE9BD"/>
<rect x="297.059" y="182.962" width="10.4984" height="17.4973" rx="5" fill="#4941C0"/>
<rect x="311.757" y="138.169" width="10.4984" height="17.4973" rx="5" fill="#ACE9BD"/>
<rect x="311.757" y="138.169" width="10.4984" height="17.4973" rx="5" fill="#ACE9BD"/>
<rect x="311.757" y="138.169" width="10.4984" height="17.4973" rx="5" fill="#4941C0"/>
<rect x="311.757" y="160.566" width="10.4984" height="17.4973" rx="5" fill="#ACE9BD"/>
<rect x="311.757" y="160.566" width="10.4984" height="17.4973" rx="5" fill="#ACE9BD"/>
<rect x="311.757" y="160.566" width="10.4984" height="17.4973" rx="5" fill="#4941C0"/>
<rect x="311.757" y="182.962" width="10.4984" height="17.4973" rx="5" fill="#ACE9BD"/>
<rect x="311.757" y="182.962" width="10.4984" height="17.4973" rx="5" fill="#ACE9BD"/>
<rect x="311.757" y="182.962" width="10.4984" height="17.4973" rx="5" fill="#4941C0"/>
<path d="M280.262 239.304C280.262 237.951 281.359 236.854 282.711 236.854H350.601H418.49C419.843 236.854 420.94 237.951 420.94 239.304C420.94 240.657 419.843 241.753 418.49 241.753H282.711C281.359 241.753 280.262 240.657 280.262 239.304Z" fill="#C9C9FC"/>
<rect x="350.951" y="161.266" width="10.4984" height="39.8938" rx="5" fill="#ACE9BD"/>
<rect x="350.951" y="161.266" width="10.4984" height="39.8938" rx="5" fill="#ACE9BD"/>
<rect x="350.951" y="161.266" width="10.4984" height="39.8938" rx="5" fill="#C9C9FC"/>
<rect x="350.951" y="110.874" width="10.4984" height="39.8938" rx="5" fill="#ACE9BD"/>
<rect x="350.951" y="110.874" width="10.4984" height="39.8938" rx="5" fill="#ACE9BD"/>
<rect x="350.951" y="110.874" width="10.4984" height="39.8938" rx="5" fill="#C9C9FC"/>
<rect x="380.346" y="161.266" width="10.4984" height="39.8938" rx="5" fill="#ACE9BD"/>
<rect x="380.346" y="161.266" width="10.4984" height="39.8938" rx="5" fill="#ACE9BD"/>
<rect x="380.346" y="161.266" width="10.4984" height="39.8938" rx="5" fill="#C9C9FC"/>
<rect x="380.346" y="110.874" width="10.4984" height="39.8938" rx="5" fill="#ACE9BD"/>
<rect x="380.346" y="110.874" width="10.4984" height="39.8938" rx="5" fill="#ACE9BD"/>
<rect x="380.346" y="110.874" width="10.4984" height="39.8938" rx="5" fill="#C9C9FC"/>
<rect x="365.648" y="161.266" width="10.4984" height="39.8938" rx="5" fill="#ACE9BD"/>
<rect x="365.648" y="161.266" width="10.4984" height="39.8938" rx="5" fill="#ACE9BD"/>
<rect x="365.648" y="161.266" width="10.4984" height="39.8938" rx="5" fill="#C9C9FC"/>
<rect x="365.648" y="110.874" width="10.4984" height="39.8938" rx="5" fill="#ACE9BD"/>
<rect x="365.648" y="110.874" width="10.4984" height="39.8938" rx="5" fill="#ACE9BD"/>
<rect x="365.648" y="110.874" width="10.4984" height="39.8938" rx="5" fill="#C9C9FC"/>
<rect x="395.044" y="161.266" width="10.4984" height="39.8938" rx="5" fill="#ACE9BD"/>
<rect x="395.044" y="161.266" width="10.4984" height="39.8938" rx="5" fill="#ACE9BD"/>
<rect x="395.044" y="161.266" width="10.4984" height="39.8938" rx="5" fill="#C9C9FC"/>
<rect x="395.044" y="110.874" width="10.4984" height="39.8938" rx="5" fill="#ACE9BD"/>
<rect x="395.044" y="110.874" width="10.4984" height="39.8938" rx="5" fill="#ACE9BD"/>
<rect x="395.044" y="110.874" width="10.4984" height="39.8938" rx="5" fill="#C9C9FC"/>
<path d="M297.059 213.758H305.808H314.556V237.554H297.059V213.758Z" fill="#C9C9FC"/>
<path d="M368.448 213.058H377.197H385.945V236.854H368.448V213.058Z" fill="#D2D2FF"/>
<path d="M350.951 213.058H359.699H368.448V236.854H350.951V213.058Z" fill="#3F32B8"/>
<path d="M314.556 213.758H323.305H332.054V237.554H314.556V213.758Z" fill="#00AC8C"/>
<path d="M550.399 229.999C550.399 227.237 552.637 224.999 555.399 224.999H586.793H618.187C620.949 224.999 623.187 227.237 623.187 229.999V336.18C623.187 338.942 620.949 341.18 618.187 341.18H555.399C552.637 341.18 550.399 338.942 550.399 336.18V229.999Z" fill="#D2D2FF"/>
<rect x="555.298" y="240.396" width="10.4984" height="4.89923" fill="#ACE9BD"/>
<rect x="555.298" y="240.396" width="10.4984" height="4.89923" fill="#ACE9BD"/>
<rect x="555.298" y="240.396" width="10.4984" height="4.89923" fill="#00AC8C"/>
<path d="M602.89 274.092C602.89 271.33 605.129 269.092 607.89 269.092H639.285H670.679C673.44 269.092 675.679 271.33 675.679 274.092V336.181C675.679 338.942 673.44 341.181 670.679 341.181H607.89C605.129 341.181 602.89 338.942 602.89 336.181V274.092Z" fill="#4941C0"/>
<path d="M542 341.53C542 340.178 543.097 339.081 544.45 339.081H612.339H680.228C681.581 339.081 682.678 340.178 682.678 341.53C682.678 342.883 681.581 343.98 680.228 343.98H544.45C543.097 343.98 542 342.883 542 341.53Z" fill="#ACE9BD"/>
<path d="M542 341.53C542 340.178 543.097 339.081 544.45 339.081H612.339H680.228C681.581 339.081 682.678 340.178 682.678 341.53C682.678 342.883 681.581 343.98 680.228 343.98H544.45C543.097 343.98 542 342.883 542 341.53Z" fill="#ACE9BD"/>
<path d="M542 341.53C542 340.178 543.097 339.081 544.45 339.081H612.339H680.228C681.581 339.081 682.678 340.178 682.678 341.53C682.678 342.883 681.581 343.98 680.228 343.98H544.45C543.097 343.98 542 342.883 542 341.53Z" fill="#ACE9BD"/>
<rect x="569.996" y="240.396" width="10.4984" height="4.89923" fill="#ACE9BD"/>
<rect x="569.996" y="240.396" width="10.4984" height="4.89923" fill="#ACE9BD"/>
<rect x="569.996" y="240.396" width="10.4984" height="4.89923" fill="#00AC8C"/>
<rect x="595.192" y="269.092" width="87.4863" height="2.79956" rx="1.39978" fill="#00AC8C"/>
<rect x="595.192" y="276.791" width="87.4863" height="2.79956" rx="1.39978" fill="#00AC8C"/>
<rect x="607.09" y="283.09" width="10.4984" height="4.89923" fill="#ACE9BD"/>
<rect x="607.09" y="283.09" width="10.4984" height="4.89923" fill="#ACE9BD"/>
<rect x="607.09" y="283.09" width="10.4984" height="4.89923" fill="#ACE9BD"/>
<rect x="621.788" y="283.09" width="10.4984" height="4.89923" fill="#ACE9BD"/>
<rect x="621.788" y="283.09" width="10.4984" height="4.89923" fill="#ACE9BD"/>
<rect x="621.788" y="283.09" width="10.4984" height="4.89923" fill="#ACE9BD"/>
<rect x="658.882" y="331.382" width="9.09858" height="3.49945" fill="#ACE9BD"/>
<rect x="658.882" y="331.382" width="9.09858" height="3.49945" fill="#ACE9BD"/>
<rect x="658.882" y="331.382" width="9.09858" height="3.49945" fill="#ACE9BD"/>
<rect x="658.882" y="323.683" width="9.09858" height="3.49945" fill="#ACE9BD"/>
<rect x="658.882" y="323.683" width="9.09858" height="3.49945" fill="#ACE9BD"/>
<rect x="658.882" y="323.683" width="9.09858" height="3.49945" fill="#ACE9BD"/>
<rect x="658.882" y="315.984" width="9.09858" height="3.49945" fill="#ACE9BD"/>
<rect x="658.882" y="315.984" width="9.09858" height="3.49945" fill="#ACE9BD"/>
<rect x="658.882" y="315.984" width="9.09858" height="3.49945" fill="#ACE9BD"/>
<rect x="658.882" y="308.286" width="9.09858" height="3.49945" fill="#ACE9BD"/>
<rect x="658.882" y="308.286" width="9.09858" height="3.49945" fill="#ACE9BD"/>
<rect x="658.882" y="308.286" width="9.09858" height="3.49945" fill="#ACE9BD"/>
<rect x="658.882" y="300.587" width="9.09858" height="3.49945" fill="#ACE9BD"/>
<rect x="658.882" y="300.587" width="9.09858" height="3.49945" fill="#ACE9BD"/>
<rect x="658.882" y="300.587" width="9.09858" height="3.49945" fill="#ACE9BD"/>
<rect x="658.882" y="292.888" width="9.09858" height="3.49945" fill="#ACE9BD"/>
<rect x="658.882" y="292.888" width="9.09858" height="3.49945" fill="#ACE9BD"/>
<rect x="658.882" y="292.888" width="9.09858" height="3.49945" fill="#ACE9BD"/>
<rect x="658.882" y="285.189" width="9.09858" height="3.49945" fill="#ACE9BD"/>
<rect x="658.882" y="285.189" width="9.09858" height="3.49945" fill="#ACE9BD"/>
<rect x="658.882" y="285.189" width="9.09858" height="3.49945" fill="#ACE9BD"/>
<rect x="658.882" y="277.49" width="9.09858" height="3.49945" fill="#ACE9BD"/>
<rect x="658.882" y="277.49" width="9.09858" height="3.49945" fill="#ACE9BD"/>
<rect x="658.882" y="277.49" width="9.09858" height="3.49945" fill="#ACE9BD"/>
<path d="M658.882 269.792H667.98V273.291H658.882V269.792Z" fill="#ACE9BD"/>
<path d="M658.882 269.792H667.98V273.291H658.882V269.792Z" fill="#ACE9BD"/>
<path d="M658.882 269.792H667.98V273.291H658.882V269.792Z" fill="#ACE9BD"/>
<path d="M658.882 267.342V264.629C658.882 262.933 660.036 261.454 661.681 261.043C662.836 260.812 664.026 260.812 665.181 261.043L665.979 261.243C667.155 261.537 667.98 262.594 667.98 263.806V266.292C667.98 267.446 666.663 268.104 665.741 267.412C665.388 267.148 665.181 266.733 665.181 266.292V264.684C665.181 264.152 664.939 263.649 664.524 263.317C663.885 262.806 662.977 262.806 662.338 263.317C661.923 263.649 661.681 264.152 661.681 264.684V266.292C661.681 266.733 661.474 267.148 661.121 267.412L660.281 268.042C659.705 268.475 658.882 268.063 658.882 267.342Z" fill="#ACE9BD"/>
<path d="M658.882 267.342V264.629C658.882 262.933 660.036 261.454 661.681 261.043C662.836 260.812 664.026 260.812 665.181 261.043L665.979 261.243C667.155 261.537 667.98 262.594 667.98 263.806V266.292C667.98 267.446 666.663 268.104 665.741 267.412C665.388 267.148 665.181 266.733 665.181 266.292V264.684C665.181 264.152 664.939 263.649 664.524 263.317C663.885 262.806 662.977 262.806 662.338 263.317C661.923 263.649 661.681 264.152 661.681 264.684V266.292C661.681 266.733 661.474 267.148 661.121 267.412L660.281 268.042C659.705 268.475 658.882 268.063 658.882 267.342Z" fill="#ACE9BD"/>
<path d="M658.882 267.342V264.629C658.882 262.933 660.036 261.454 661.681 261.043C662.836 260.812 664.026 260.812 665.181 261.043L665.979 261.243C667.155 261.537 667.98 262.594 667.98 263.806V266.292C667.98 267.446 666.663 268.104 665.741 267.412C665.388 267.148 665.181 266.733 665.181 266.292V264.684C665.181 264.152 664.939 263.649 664.524 263.317C663.885 262.806 662.977 262.806 662.338 263.317C661.923 263.649 661.681 264.152 661.681 264.684V266.292C661.681 266.733 661.474 267.148 661.121 267.412L660.281 268.042C659.705 268.475 658.882 268.063 658.882 267.342Z" fill="#ACE9BD"/>
<path d="M612.689 321.518C612.689 320.637 612.867 319.757 613.206 318.943C615.515 313.402 623.457 313.439 625.565 319.059C625.844 319.803 625.987 320.591 625.987 321.385V339.081H612.689V321.518Z" fill="#ACE9BD"/>
<path d="M612.689 321.518C612.689 320.637 612.867 319.757 613.206 318.943C615.515 313.402 623.457 313.439 625.565 319.059C625.844 319.803 625.987 320.591 625.987 321.385V339.081H612.689V321.518Z" fill="#ACE9BD"/>
<path d="M612.689 321.518C612.689 320.637 612.867 319.757 613.206 318.943C615.515 313.402 623.457 313.439 625.565 319.059C625.844 319.803 625.987 320.591 625.987 321.385V339.081H612.689V321.518Z" fill="#ACE9BD"/>
<path d="M560.897 321.518C560.897 320.637 561.075 319.757 561.414 318.943C563.723 313.402 571.666 313.439 573.773 319.059C574.052 319.803 574.195 320.591 574.195 321.385V339.081H560.897V321.518Z" fill="#00AC8C"/>
<rect x="542.7" y="224.999" width="87.4863" height="2.79956" rx="1.39978" fill="#00AC8C"/>
<rect x="667.98" y="264.193" width="76.988" height="2.79956" transform="rotate(90 667.98 264.193)" fill="#ACE9BD"/>
<rect x="661.681" y="264.193" width="76.988" height="2.79956" transform="rotate(90 661.681 264.193)" fill="#ACE9BD"/>
<rect x="542.7" y="232.698" width="87.4863" height="2.79956" rx="1.39978" fill="#00AC8C"/>
<rect x="550.399" y="218" width="56.6911" height="9.79847" rx="4.89923" fill="#00AC8C"/>
<rect x="553.198" y="220.799" width="4.19934" height="2.09967" fill="#ACE9BD"/>
<rect x="553.198" y="220.799" width="4.19934" height="2.09967" fill="#ACE9BD"/>
<rect x="553.198" y="220.799" width="4.19934" height="2.09967" fill="#ACE9BD"/>
<rect x="560.897" y="220.799" width="4.19934" height="2.09967" fill="#ACE9BD"/>
<rect x="560.897" y="220.799" width="4.19934" height="2.09967" fill="#ACE9BD"/>
<rect x="560.897" y="220.799" width="4.19934" height="2.09967" fill="#ACE9BD"/>
<rect x="568.596" y="220.799" width="4.19934" height="2.09967" fill="#ACE9BD"/>
<rect x="568.596" y="220.799" width="4.19934" height="2.09967" fill="#ACE9BD"/>
<rect x="568.596" y="220.799" width="4.19934" height="2.09967" fill="#ACE9BD"/>
<rect x="576.295" y="220.799" width="4.19934" height="2.09967" fill="#ACE9BD"/>
<rect x="576.295" y="220.799" width="4.19934" height="2.09967" fill="#ACE9BD"/>
<rect x="576.295" y="220.799" width="4.19934" height="2.09967" fill="#ACE9BD"/>
<rect x="583.993" y="220.799" width="4.19934" height="2.09967" fill="#ACE9BD"/>
<rect x="583.993" y="220.799" width="4.19934" height="2.09967" fill="#ACE9BD"/>
<rect x="583.993" y="220.799" width="4.19934" height="2.09967" fill="#ACE9BD"/>
<rect x="591.692" y="220.799" width="4.19934" height="2.09967" fill="#ACE9BD"/>
<rect x="591.692" y="220.799" width="4.19934" height="2.09967" fill="#ACE9BD"/>
<rect x="591.692" y="220.799" width="4.19934" height="2.09967" fill="#ACE9BD"/>
<rect x="599.391" y="220.799" width="4.19934" height="2.09967" fill="#ACE9BD"/>
<rect x="599.391" y="220.799" width="4.19934" height="2.09967" fill="#ACE9BD"/>
<rect x="599.391" y="220.799" width="4.19934" height="2.09967" fill="#ACE9BD"/>
<path d="M68.95 206.714C66.0956 209.828 64.5132 213.901 64.5132 218.135L64.5132 236.603L64.5132 291.085L64.5132 318.639L64.5132 321.703C64.5132 324.703 62.0887 327.127 59.089 327.127C56.0696 327.127 53.6144 324.672 53.6144 321.653L53.6144 219.033C53.6144 206.192 61.4229 194.676 73.3393 189.944C82.7374 186.213 93.3786 187.244 101.927 192.715L103.966 194.019L106.979 196.279C108.305 197.274 109.512 198.42 110.573 199.694C111.592 200.917 112.471 202.25 113.194 203.667L113.735 204.728C116.021 209.215 117.214 214.174 117.214 219.2L117.214 271.476C117.214 274.547 114.731 277.03 111.66 277.03C108.599 277.03 106.098 274.563 106.055 271.502L105.31 218.127C105.251 213.892 103.641 209.819 100.786 206.679C99.5735 205.345 98.1607 204.207 96.5991 203.306L96.388 203.184C93.7937 201.688 90.8837 200.829 87.8981 200.676L85.1265 200.535C81.8646 200.368 78.6113 200.949 75.615 202.233L74.7388 202.609C72.539 203.552 70.5661 204.951 68.95 206.714Z" fill="#3F32B8"/>
<path d="M14.8992 284.185C14.8992 281.423 17.1378 279.185 19.8992 279.185H85.2382H150.577C153.339 279.185 155.577 281.423 155.577 284.185V339.275C155.577 342.036 153.339 344.275 150.577 344.275H19.8992C17.1378 344.275 14.8992 342.036 14.8992 339.275V284.185Z" fill="#ACE9BD"/>
<path d="M14.8992 284.185C14.8992 281.423 17.1378 279.185 19.8992 279.185H85.2382H150.577C153.339 279.185 155.577 281.423 155.577 284.185V339.275C155.577 342.036 153.339 344.275 150.577 344.275H19.8992C17.1378 344.275 14.8992 342.036 14.8992 339.275V284.185Z" fill="#ACE9BD"/>
<path d="M14.8992 284.185C14.8992 281.423 17.1378 279.185 19.8992 279.185H85.2382H150.577C153.339 279.185 155.577 281.423 155.577 284.185V339.275C155.577 342.036 153.339 344.275 150.577 344.275H19.8992C17.1378 344.275 14.8992 342.036 14.8992 339.275V284.185Z" fill="#ACE9BD"/>
<path d="M120.219 328.898L120.252 328.923C121.06 329.54 121.575 330.466 121.67 331.478L118.66 331.438C118.811 330.426 119.362 329.518 120.19 328.918L120.219 328.898Z" fill="#00AC8C"/>
<rect width="3.02088" height="8.11358" rx="1.51044" transform="matrix(0.99991 0.0134254 -0.0107982 0.999942 118.676 329.974)" fill="#00AC8C"/>
<path d="M124.806 330.689L124.84 330.833C125.071 331.822 124.905 332.868 124.384 333.698L122.136 331.466C122.842 330.815 123.765 330.526 124.681 330.669L124.806 330.689Z" fill="#00AC8C"/>
<rect width="3.17926" height="7.75452" rx="1.58963" transform="matrix(0.709542 0.704663 -0.6241 0.781344 123.009 330.373)" fill="#00AC8C"/>
<path d="M115.451 330.533L115.579 330.517C116.492 330.399 117.4 330.728 118.065 331.419L115.769 333.59C115.289 332.719 115.162 331.658 115.418 330.664L115.451 330.533Z" fill="#00AC8C"/>
<rect width="3.17092" height="7.7743" rx="1.58546" transform="matrix(0.726459 -0.68721 0.605501 0.795844 114.92 332.474)" fill="#00AC8C"/>
<path d="M135.616 319.099L135.649 319.124C136.458 319.741 136.972 320.668 137.068 321.679L134.058 321.639C134.209 320.627 134.76 319.719 135.588 319.12L135.616 319.099Z" fill="#00AC8C"/>
<rect width="3.02088" height="8.11358" rx="1.51044" transform="matrix(0.99991 0.0134254 -0.0107982 0.999942 134.074 320.176)" fill="#00AC8C"/>
<path d="M140.204 320.891L140.238 321.035C140.469 322.023 140.302 323.07 139.781 323.9L137.533 321.667C138.24 321.016 139.163 320.727 140.078 320.871L140.204 320.891Z" fill="#00AC8C"/>
<rect width="3.17926" height="7.75452" rx="1.58963" transform="matrix(0.709542 0.704663 -0.6241 0.781344 138.406 320.575)" fill="#00AC8C"/>
<path d="M130.849 320.735L130.976 320.718C131.89 320.6 132.798 320.929 133.462 321.62L131.167 323.792C130.687 322.921 130.559 321.86 130.815 320.865L130.849 320.735Z" fill="#00AC8C"/>
<rect width="3.17092" height="7.7743" rx="1.58546" transform="matrix(0.726459 -0.68721 0.605501 0.795844 130.318 322.676)" fill="#00AC8C"/>
<path d="M75.0898 254.789C75.0898 252.028 77.3284 249.789 80.0898 249.789H111.484H142.878C145.64 249.789 147.878 252.028 147.878 254.789V307.08C147.878 309.841 145.64 312.08 142.878 312.08H80.0898C77.3284 312.08 75.0898 309.841 75.0898 307.08V254.789Z" fill="#00AC8C"/>
<rect x="70.8905" y="307.18" width="79.7875" height="4.89923" rx="2.44962" fill="#3F32B8"/>
<rect x="84.1884" y="249.789" width="10.4984" height="62.2903" fill="#ACE9BD"/>
<rect x="84.1884" y="249.789" width="10.4984" height="62.2903" fill="#ACE9BD"/>
<rect x="84.1884" y="249.789" width="10.4984" height="62.2903" fill="#ACE9BD"/>
<path d="M110.195 238.331C111.031 238.046 111.938 238.046 112.774 238.331L142.566 248.477C146.847 249.935 145.799 256.263 141.277 256.263H81.6916C77.1689 256.263 76.1208 249.935 80.402 248.477L110.195 238.331Z" fill="#4941C0"/>
<path d="M26.0975 296.783C26.0975 294.021 28.3361 291.783 31.0975 291.783H58.6424H86.1873C88.9487 291.783 91.1873 294.021 91.1873 296.783V323.177C91.1873 325.939 88.9487 328.177 86.1873 328.177H31.0975C28.3361 328.177 26.0975 325.939 26.0975 323.177V296.783Z" fill="#D2D2FF"/>
<path d="M40.0953 309.28H48.8439H57.5926V328.177H40.0953V309.28Z" fill="#ACE9BD"/>
<path d="M40.0953 309.28H48.8439H57.5926V328.177H40.0953V309.28Z" fill="#ACE9BD"/>
<path d="M40.0953 309.28H48.8439H57.5926V328.177H40.0953V309.28Z" fill="#ACE9BD"/>
<path d="M40.0953 309.28H48.8439H57.5926V328.177H40.0953V309.28Z" fill="#ACE9BD"/>
<path d="M40.0953 309.28H48.8439H57.5926V328.177H40.0953V309.28Z" fill="#ACE9BD"/>
<path d="M40.0953 309.28H48.8439H57.5926V328.177H40.0953V309.28Z" fill="#ACE9BD"/>
<path d="M57.5926 309.28H66.3412H75.0898V328.177H57.5926V309.28Z" fill="#00AC8C"/>
<rect x="22.598" y="323.278" width="72.0887" height="4.89923" rx="2.44962" fill="#3F32B8"/>
<path d="M57.2408 276.91C58.1446 276.571 59.1401 276.571 60.0439 276.91L86.5779 286.836C90.7505 288.397 89.6314 294.582 85.1764 294.582H32.1083C27.6534 294.582 26.5342 288.397 30.7068 286.836L57.2408 276.91Z" fill="#3F32B8"/>
<rect width="8.92718" height="17.729" rx="4.46359" transform="matrix(-7.40162e-06 1 -1 -2.71229e-05 120.115 231.593)" fill="#00AC8C"/>
<path d="M25.0214 142H27.8614V136.34H29.6414C32.7214 136.34 34.6014 134.76 34.6014 132.18C34.6014 129.58 32.7214 128 29.6414 128H25.0214V142ZM29.7614 130.36C30.9614 130.36 31.6814 131.08 31.6814 132.14C31.6814 133.28 30.9614 133.98 29.7614 133.98H27.8614V130.36H29.7614ZM36.5712 142H39.1112V135.54C39.4912 134.9 40.2912 134.22 41.5312 134.22C41.9912 134.22 42.3312 134.28 42.6512 134.36V131.86C42.4112 131.78 42.1112 131.72 41.7712 131.72C40.6312 131.72 39.7712 132.24 39.1112 132.92V131.92H36.5712V142ZM49.0666 131.52C45.7866 131.52 43.5466 133.94 43.5466 136.96C43.5466 139.98 45.7866 142.4 49.0666 142.4C52.3466 142.4 54.5866 139.98 54.5866 136.96C54.5866 133.94 52.3466 131.52 49.0666 131.52ZM49.1066 140C47.4266 140 46.1866 138.72 46.1866 136.96C46.1866 135.2 47.4266 133.92 49.1066 133.92C50.7266 133.92 51.9466 135.2 51.9466 136.96C51.9466 138.7 50.7266 140 49.1066 140ZM56.2809 136.96C56.2809 139.9 58.2209 142.4 61.4009 142.4C62.7609 142.4 63.7409 141.98 64.5209 141.2V142H67.0809V127H64.5209V132.72C63.7409 131.94 62.7609 131.52 61.4009 131.52C58.2209 131.52 56.2809 134.02 56.2809 136.96ZM58.9409 136.96C58.9409 135.2 60.0409 133.92 61.7609 133.92C62.9009 133.92 63.8409 134.4 64.5209 135.32V138.6C63.8409 139.52 62.9009 140 61.7609 140C60.0409 140 58.9409 138.72 58.9409 136.96ZM76.7659 137.64C76.7659 139.1 76.0059 140 74.6259 140C73.2259 140 72.4659 139.1 72.4659 137.64V131.92H69.9059V137.52C69.9059 140.54 71.6459 142.4 74.6059 142.4C77.5659 142.4 79.3259 140.54 79.3259 137.52V131.92H76.7659V137.64ZM86.9777 140C85.2777 140 84.0577 138.74 84.0577 136.96C84.0577 135.2 85.2777 133.92 86.9377 133.92C87.9777 133.92 88.7777 134.38 89.2577 135.08L91.2377 133.56C90.2977 132.32 88.8177 131.52 86.9777 131.52C83.4977 131.52 81.4177 134.02 81.4177 136.96C81.4177 139.9 83.4977 142.4 86.9777 142.4C88.8177 142.4 90.2977 141.6 91.2377 140.36L89.2577 138.84C88.7777 139.54 87.9777 140 86.9777 140ZM93.8714 138.32C93.8714 140.78 95.0714 142.2 97.5914 142.2C98.4314 142.2 99.0314 142.1 99.5314 141.88V139.66C99.1914 139.8 98.7314 139.88 98.0314 139.88C97.0314 139.88 96.4314 139.44 96.4314 138.32V134.2H99.5114V131.92H96.4314V129.4H93.8714V131.92H91.9914V134.2H93.8714V138.32ZM110.871 140.36L109.051 138.92C108.511 139.64 107.551 140.12 106.451 140.12C104.871 140.12 103.711 139.36 103.471 137.48H110.531C110.611 137.14 110.691 136.6 110.691 136.04C110.691 133.4 108.851 131.52 106.051 131.52C102.751 131.52 100.871 133.98 100.871 136.96C100.871 139.9 102.891 142.4 106.471 142.4C108.371 142.4 109.931 141.62 110.871 140.36ZM105.991 133.6C107.391 133.6 108.151 134.62 108.191 135.64H103.551C103.831 134.32 104.691 133.6 105.991 133.6ZM119.696 137.64C119.696 139.1 118.936 140 117.556 140C116.156 140 115.396 139.1 115.396 137.64V131.92H112.836V137.52C112.836 140.54 114.576 142.4 117.536 142.4C120.496 142.4 122.256 140.54 122.256 137.52V131.92H119.696V137.64ZM125.067 142H127.607V135.54C127.987 134.9 128.787 134.22 130.027 134.22C130.487 134.22 130.827 134.28 131.147 134.36V131.86C130.907 131.78 130.607 131.72 130.267 131.72C129.127 131.72 128.267 132.24 127.607 132.92V131.92H125.067V142ZM132.312 140.54C133.272 141.68 134.552 142.4 136.352 142.4C138.252 142.4 139.952 141.24 139.992 139.12C139.992 135.64 135.172 136.24 135.172 134.52C135.172 134 135.552 133.56 136.352 133.56C137.132 133.56 137.792 134.08 138.312 134.72L139.992 133.24C139.272 132.26 137.872 131.52 136.332 131.52C134.232 131.52 132.732 132.86 132.732 134.64C132.732 138.18 137.552 137.52 137.552 139.28C137.552 139.88 137.132 140.36 136.312 140.36C135.352 140.36 134.612 139.8 133.992 139.02L132.312 140.54Z" fill="#3F32B8"/>
<path d="M329.49 20.5796H333.81V31.9996H336.65V20.5796H340.97V17.9996H329.49V20.5796ZM341.816 31.9996H344.356V25.5396C344.736 24.8996 345.536 24.2196 346.776 24.2196C347.236 24.2196 347.576 24.2796 347.896 24.3596V21.8596C347.656 21.7796 347.356 21.7196 347.016 21.7196C345.876 21.7196 345.016 22.2396 344.356 22.9196V21.9196H341.816V31.9996ZM352.293 32.2996C353.473 32.2996 354.673 31.7996 355.313 31.0196V31.9996H357.853V25.4796C357.853 23.2596 356.353 21.5196 353.433 21.5196C351.593 21.5196 350.113 22.2796 349.213 23.5196L351.073 24.9396C351.613 24.1996 352.373 23.7396 353.353 23.7396C354.513 23.7396 355.313 24.4196 355.313 25.4796V25.7396L352.233 26.2596C350.073 26.6196 348.893 27.7596 348.893 29.2796C348.893 31.1396 350.273 32.2996 352.293 32.2996ZM351.413 29.1596C351.413 28.5396 351.853 28.0996 352.913 27.9196L355.313 27.5196V28.9396C354.813 29.7396 353.973 30.2796 352.813 30.2796C351.953 30.2796 351.413 29.8396 351.413 29.1596ZM360.041 26.9596C360.041 29.8996 361.981 32.3996 365.161 32.3996C366.521 32.3996 367.501 31.9796 368.281 31.1996V31.9996H370.841V16.9996H368.281V22.7196C367.501 21.9396 366.521 21.5196 365.161 21.5196C361.981 21.5196 360.041 24.0196 360.041 26.9596ZM362.701 26.9596C362.701 25.1996 363.801 23.9196 365.521 23.9196C366.661 23.9196 367.601 24.3996 368.281 25.3196V28.5996C367.601 29.5196 366.661 29.9996 365.521 29.9996C363.801 29.9996 362.701 28.7196 362.701 26.9596ZM383.166 30.3596L381.346 28.9196C380.806 29.6396 379.846 30.1196 378.746 30.1196C377.166 30.1196 376.006 29.3596 375.766 27.4796H382.826C382.906 27.1396 382.986 26.5996 382.986 26.0396C382.986 23.3996 381.146 21.5196 378.346 21.5196C375.046 21.5196 373.166 23.9796 373.166 26.9596C373.166 29.8996 375.186 32.3996 378.766 32.3996C380.666 32.3996 382.226 31.6196 383.166 30.3596ZM378.286 23.5996C379.686 23.5996 380.446 24.6196 380.486 25.6396H375.846C376.126 24.3196 376.986 23.5996 378.286 23.5996ZM385.468 31.9996H388.008V25.5396C388.388 24.8996 389.188 24.2196 390.428 24.2196C390.888 24.2196 391.228 24.2796 391.548 24.3596V21.8596C391.308 21.7796 391.008 21.7196 390.668 21.7196C389.528 21.7196 388.668 22.2396 388.008 22.9196V21.9196H385.468V31.9996ZM392.713 30.5396C393.673 31.6796 394.953 32.3996 396.753 32.3996C398.653 32.3996 400.353 31.2396 400.393 29.1196C400.393 25.6396 395.573 26.2396 395.573 24.5196C395.573 23.9996 395.953 23.5596 396.753 23.5596C397.533 23.5596 398.193 24.0796 398.713 24.7196L400.393 23.2396C399.673 22.2596 398.273 21.5196 396.733 21.5196C394.633 21.5196 393.133 22.8596 393.133 24.6396C393.133 28.1796 397.953 27.5196 397.953 29.2796C397.953 29.8796 397.533 30.3596 396.713 30.3596C395.753 30.3596 395.013 29.7996 394.393 29.0196L392.713 30.5396Z" fill="#3F32B8"/>
<path d="M556.871 127.6C552.451 127.6 549.431 131 549.431 135C549.431 139 552.451 142.4 556.871 142.4C561.271 142.4 564.291 139 564.291 135C564.291 131 561.271 127.6 556.871 127.6ZM556.871 139.74C554.231 139.74 552.351 137.68 552.351 135C552.351 132.32 554.231 130.26 556.871 130.26C559.491 130.26 561.371 132.32 561.371 135C561.371 137.68 559.491 139.74 556.871 139.74ZM566.673 146.92H569.213V141.18C569.993 141.96 570.973 142.4 572.353 142.4C575.553 142.4 577.473 139.9 577.473 136.96C577.473 134.02 575.553 131.52 572.353 131.52C570.973 131.52 569.993 131.96 569.213 132.74V131.92H566.673V146.92ZM571.993 133.92C573.713 133.92 574.833 135.2 574.833 136.96C574.833 138.72 573.713 140 571.993 140C570.833 140 569.893 139.5 569.213 138.54V135.38C569.853 134.44 570.813 133.92 571.993 133.92ZM585.756 130.32L588.156 127H585.396L583.316 130.32H585.756ZM589.176 140.36L587.356 138.92C586.816 139.64 585.856 140.12 584.756 140.12C583.176 140.12 582.016 139.36 581.776 137.48H588.836C588.916 137.14 588.996 136.6 588.996 136.04C588.996 133.4 587.156 131.52 584.356 131.52C581.056 131.52 579.176 133.98 579.176 136.96C579.176 139.9 581.196 142.4 584.776 142.4C586.676 142.4 588.236 141.62 589.176 140.36ZM584.296 133.6C585.696 133.6 586.456 134.62 586.496 135.64H581.856C582.136 134.32 582.996 133.6 584.296 133.6ZM591.478 142H594.018V135.54C594.398 134.9 595.198 134.22 596.438 134.22C596.898 134.22 597.238 134.28 597.558 134.36V131.86C597.318 131.78 597.018 131.72 596.678 131.72C595.538 131.72 594.678 132.24 594.018 132.92V131.92H591.478V142ZM601.955 142.3C603.135 142.3 604.335 141.8 604.975 141.02V142H607.515V135.48C607.515 133.26 606.015 131.52 603.095 131.52C601.255 131.52 599.775 132.28 598.875 133.52L600.735 134.94C601.275 134.2 602.035 133.74 603.015 133.74C604.175 133.74 604.975 134.42 604.975 135.48V135.74L601.895 136.26C599.735 136.62 598.555 137.76 598.555 139.28C598.555 141.14 599.935 142.3 601.955 142.3ZM601.075 139.16C601.075 138.54 601.515 138.1 602.575 137.92L604.975 137.52V138.94C604.475 139.74 603.635 140.28 602.475 140.28C601.615 140.28 601.075 139.84 601.075 139.16ZM611.063 138.32C611.063 140.78 612.263 142.2 614.783 142.2C615.623 142.2 616.223 142.1 616.723 141.88V139.66C616.383 139.8 615.923 139.88 615.223 139.88C614.223 139.88 613.623 139.44 613.623 138.32V134.2H616.703V131.92H613.623V129.4H611.063V131.92H609.183V134.2H611.063V138.32ZM628.063 140.36L626.243 138.92C625.703 139.64 624.743 140.12 623.643 140.12C622.063 140.12 620.903 139.36 620.663 137.48H627.723C627.803 137.14 627.883 136.6 627.883 136.04C627.883 133.4 626.043 131.52 623.243 131.52C619.943 131.52 618.063 133.98 618.063 136.96C618.063 139.9 620.083 142.4 623.663 142.4C625.563 142.4 627.123 141.62 628.063 140.36ZM623.183 133.6C624.583 133.6 625.343 134.62 625.383 135.64H620.743C621.023 134.32 621.883 133.6 623.183 133.6ZM636.888 137.64C636.888 139.1 636.128 140 634.748 140C633.348 140 632.588 139.1 632.588 137.64V131.92H630.028V137.52C630.028 140.54 631.768 142.4 634.728 142.4C637.688 142.4 639.448 140.54 639.448 137.52V131.92H636.888V137.64ZM642.259 142H644.799V135.54C645.179 134.9 645.979 134.22 647.219 134.22C647.679 134.22 648.019 134.28 648.339 134.36V131.86C648.099 131.78 647.799 131.72 647.459 131.72C646.319 131.72 645.459 132.24 644.799 132.92V131.92H642.259V142ZM649.504 140.54C650.464 141.68 651.744 142.4 653.544 142.4C655.444 142.4 657.144 141.24 657.184 139.12C657.184 135.64 652.364 136.24 652.364 134.52C652.364 134 652.744 133.56 653.544 133.56C654.324 133.56 654.984 134.08 655.504 134.72L657.184 133.24C656.464 132.26 655.064 131.52 653.524 131.52C651.424 131.52 649.924 132.86 649.924 134.64C649.924 138.18 654.744 137.52 654.744 139.28C654.744 139.88 654.324 140.36 653.504 140.36C652.544 140.36 651.804 139.8 651.184 139.02L649.504 140.54Z" fill="#3F32B8"/>
</svg>
