<svg xmlns="http://www.w3.org/2000/svg" xmlns:xlink="http://www.w3.org/1999/xlink" width="558" height="60"><defs><path d="M209.17 7.63h7.3v12.2c1.43-1.33 2.86-2.28 4.31-2.84 1.43-.57 3.15-.85 5.13-.85 2.9 0 5.52.66 7.86 1.97 2.3 1.27 4.21 3.15 5.5 5.44 1.33 2.32 1.99 4.9 1.99 7.77 0 3.89-1.19 7.28-3.57 10.17-2.79 3.36-6.55 5.03-11.27 5.03-2.25 0-4.18-.33-5.79-.98-1.61-.66-3.21-1.78-4.78-3.36v3.66h-6.68V7.63zm9.32 17.35c-1.63 1.68-2.45 3.83-2.45 6.44 0 2.57.84 4.68 2.52 6.32 1.68 1.65 3.84 2.47 6.47 2.47 2.61 0 4.74-.81 6.38-2.44 1.65-1.62 2.47-3.74 2.47-6.35 0-2.64-.85-4.8-2.53-6.47-1.7-1.66-3.89-2.5-6.59-2.5-2.54 0-4.63.85-6.27 2.53zm36.46 9.59c.45 1.74 1.42 3.11 2.93 4.12 1.5 1.01 3.33 1.52 5.49 1.52 1.51 0 2.76-.22 3.76-.65 1-.43 1.98-1.16 2.92-2.21h7.97c-.43 1.3-1.23 2.63-2.41 3.99-3.15 3.46-7.17 5.18-12.07 5.18-2.22.01-4.42-.38-6.5-1.16a16.29 16.29 0 01-5.24-3.15 14.491 14.491 0 01-3.47-4.74 13.6 13.6 0 01-1.29-5.85c0-2.76.71-5.3 2.13-7.61 1.42-2.31 3.43-4.21 5.82-5.48 2.48-1.35 5.27-2.04 8.09-2.01 2.99 0 5.68.66 8.08 1.98 2.35 1.28 4.29 3.18 5.61 5.51 1.36 2.35 2.03 4.98 2.03 7.91 0 .95-.09 1.83-.27 2.65h-23.58zm16.66-6.06c-.46-1.83-1.42-3.24-2.87-4.21-1.45-.98-3.3-1.47-5.55-1.47-2.18 0-4 .49-5.43 1.45-1.45.97-2.45 2.38-3.02 4.23h16.87zm15.28-5.07h-3.57v-6.26h3.57V7.63h7.29v9.55h4.4v6.26h-4.4v22.4h-7.29v-22.4zm48.59 22.4h-6.68v-3.71c-1.46 1.56-2.98 2.68-4.54 3.37-1.57.68-3.42 1.02-5.57 1.02-2.93 0-5.57-.63-7.9-1.91a13.764 13.764 0 01-5.47-5.31c-1.32-2.27-1.98-4.83-1.98-7.68 0-2.88.67-5.47 1.99-7.77 1.3-2.27 3.22-4.14 5.53-5.39 2.36-1.29 5.02-1.94 7.99-1.94 2.2 0 4.1.36 5.69 1.07 1.59.72 3.01 1.86 4.26 3.42v-3.83h6.68v28.66zM313.2 25.36c-1.65 1.68-2.48 3.82-2.48 6.41 0 2.51.84 4.55 2.51 6.1 1.67 1.56 3.84 2.34 6.51 2.34 2.64 0 4.78-.79 6.39-2.38 1.62-1.58 2.43-3.65 2.43-6.21 0-2.59-.84-4.7-2.53-6.34-1.69-1.63-3.87-2.45-6.54-2.45-2.53 0-4.63.84-6.29 2.53zm31.85 18.25v.01c0 1.49 1.38 2.79 2.97 2.79 1.71 0 3.14-1.24 3.14-2.79 0-1.61-1.43-2.95-3.08-2.95-1.65-.03-3 1.29-3.03 2.94zm46.1-26.43v23.23c0 2.84-.26 5.2-.79 7.08-.48 1.78-1.35 3.43-2.56 4.81-2.9 3.32-7.04 4.98-12.43 4.98-3.72 0-6.95-.8-9.68-2.4a14.072 14.072 0 01-5.96-6.72h8.29c1.07 1.11 2.19 1.9 3.36 2.36 1.16.47 2.59.7 4.29.7 2.72 0 4.78-.76 6.2-2.28 1.41-1.51 2.18-3.81 2.3-6.89-1.43 1.58-2.92 2.72-4.46 3.42-1.55.7-3.4 1.05-5.55 1.05-2.85 0-5.43-.65-7.71-1.95a13.638 13.638 0 01-5.32-5.41c-1.27-2.32-1.91-4.93-1.91-7.84 0-4.25 1.43-7.77 4.27-10.58 2.84-2.82 6.42-4.22 10.73-4.22 4.36 0 7.68 1.43 9.95 4.29v-3.63h6.98zm-22.25 8.06c-1.53 1.61-2.3 3.74-2.3 6.38 0 2.61.78 4.7 2.32 6.25 1.55 1.56 3.63 2.34 6.24 2.34 2.65 0 4.76-.79 6.33-2.37 1.58-1.57 2.36-3.68 2.36-6.32 0-2.59-.82-4.69-2.45-6.29-1.64-1.6-3.79-2.4-6.46-2.4-2.5 0-4.52.81-6.04 2.41zm53.86-6.7c2.4 1.28 4.42 3.18 5.85 5.49 1.43 2.32 2.15 4.83 2.15 7.54 0 2.69-.72 5.19-2.16 7.49-1.45 2.3-3.48 4.19-5.89 5.45a16.852 16.852 0 01-8.1 2.01c-2.84.02-5.64-.67-8.15-2.01a15.48 15.48 0 01-5.91-5.45 13.734 13.734 0 01-2.17-7.49c0-2.05.42-4.01 1.27-5.87a14.7 14.7 0 013.46-4.8 16.6 16.6 0 015.22-3.19c2.03-.8 4.2-1.2 6.38-1.19 2.9 0 5.58.67 8.05 2.02zm-14.44 6.86c-1.71 1.71-2.57 3.75-2.57 6.12 0 2.39.86 4.44 2.58 6.14a8.533 8.533 0 006.2 2.55c2.43 0 4.51-.85 6.25-2.54 1.73-1.69 2.6-3.72 2.6-6.1 0-2.46-.87-4.53-2.6-6.21-1.74-1.69-3.86-2.53-6.36-2.53-2.36 0-4.4.86-6.1 2.57zm56.63 20.44h-6.76v-2.75c-1.4 1.26-2.74 2.15-4.04 2.66-1.3.51-2.86.77-4.68.77-2.06 0-3.9-.39-5.53-1.17A9.99 9.99 0 01440 42c-.79-1.17-1.35-2.47-1.67-3.84-.32-1.4-.48-3.27-.48-5.6V17.18h7.33v14.01c0 1.99.11 3.54.34 4.66.24 1.12.63 2 1.18 2.64 1.06 1.15 2.47 1.72 4.24 1.72 1.27 0 2.4-.24 3.4-.72.99-.48 1.75-1.16 2.27-2.04.39-.64.66-1.47.81-2.48.15-1.02.23-2.45.23-4.28V17.18h7.3v28.66zm5.86-28.66h8.13l7.02 18.99 6.93-18.99h8.26l-12.26 28.66h-5.82l-12.26-28.66zm31.35 26.44c0 1.49 1.29 2.79 2.79 2.79 1.6 0 2.94-1.24 2.94-2.79 0-1.61-1.34-2.95-2.89-2.95s-2.84 1.29-2.84 2.95z" id="a"/><path d="M520.7 19.32c-3.64 16.86-5.66 26.23-6.07 28.1-1.58 7.26-3.76 10.89-6.59 10.89-.8 0-1.32-.47-1.32-1.13 0-.19.06-.33.26-.66.22-.33.34-.72.33-1.12a2.59 2.59 0 00-2.61-2.57h-.03c-1.38 0-2.44 1.26-2.44 2.84 0 2.24 2.31 4.02 5.21 4.02 6.01 0 10.69-6.59 13.59-18.93l4.95-21.44h7.32l.4-2.11h-7.19c1.98-10.56 4.55-15.24 8.24-15.24.93 0 1.46.33 1.46.86 0 .13-.07.33-.27.66-.28.4-.42.89-.39 1.38 0 1.58.99 2.64 2.44 2.64 1.51 0 2.83-1.25 2.83-2.7 0-2.44-2.44-4.29-5.74-4.29-3.23 0-5.87 1.45-8.31 4.55-1.98 2.64-3.36 5.67-5.41 12.14h-6.2l-.46 2.11h6zm25.07 7.19c2.31-3.76 4.16-5.8 5.28-5.8.46 0 .79.26 1.12.92.53 1.12 1.06 1.45 2.37 1.45 1.98 0 3.1-1.19 3.1-3.3s-1.25-3.43-3.1-3.43c-1.51 0-3.36.99-5.08 2.84-2.77 2.77-5.54 6.79-6.59 9.36-.07.17-.4.98-.99 2.45l3.69-14.52a3.86 3.86 0 00-.2-.13c-4.81.86-5.54.99-10.35 1.78v1.12c1.45-.26 1.71-.33 2.24-.33 1.45 0 2.31.66 2.31 1.85 0 .86-.53 3.56-1.06 5.54-.37 1.3-2.24 7.81-5.6 19.53h5.08c3.16-9.5 5.76-15.94 7.78-19.33z" id="b"/><path d="M200.44 43.23a2.88 2.88 0 11-5.761-.001 2.88 2.88 0 015.761.001z" id="c"/><path d="M114.05 18.37h4.03v15.51c-.01.87.09 1.74.31 2.58.31 1.24.93 2.37 1.81 3.29a7.066 7.066 0 005.09 2.23h.3c.96.01 1.92-.15 2.83-.47.44-.15.85-.35 1.25-.57 1.82-1.05 2.63-2.59 2.92-2.88.56-.93.91-1.98 1.04-3.07.04-.38.06-.77.06-1.17V18.37h4.03V45.2h-4.03v-4.18c-1.45 1.93-3.18 2.94-3.54 3.27-.75.47-1.57.81-2.43 1.02-1.03.25-2.02.27-2.24.31-.23.01-.47.01-.7.01-2.73 0-4.68-1.18-5.2-1.31-2.47-1.32-3.6-3.53-4-3.92-1.46-2.49-1.37-5.48-1.53-6.09v-.33-15.61zm-91.46 8.42c-.91-2.31-2.63-3.38-2.92-3.75a7.617 7.617 0 00-3.45-1.36c-.47-.06-.94-.09-1.41-.09-2.95 0-4.64 1.25-5.15 1.39-2.2 1.4-3.05 3.34-3.38 3.71-.72 1.41-1.12 2.95-1.17 4.53-.01.19-.01.38-.02.56 0 2.74 1.07 4.57 1.19 5.08 1.18 2.33 3.04 3.35 3.38 3.73 1.13.7 2.4 1.15 3.72 1.3.48.06.95.09 1.43.09.82.01 1.65-.1 2.45-.31.86-.23 1.68-.61 2.41-1.14 1.34-.96 2.31-2.22 2.92-3.75h4.35c-1.18 3.91-4.08 5.74-4.54 6.38a12.56 12.56 0 01-5.82 2.32c-.76.1-1.53.15-2.31.15-1.21.01-2.41-.13-3.59-.42-1.2-.29-2.34-.78-3.38-1.43-2.96-1.85-4.13-4.52-4.59-5.02a14.792 14.792 0 01-1.63-6.38c-.01-.2-.01-.4-.01-.6-.01-1.53.21-3.07.64-4.54.25-.85.59-1.67 1-2.46 1.63-3.14 4.13-4.49 4.59-4.99a12.04 12.04 0 014.68-1.69c.76-.11 1.52-.17 2.29-.16 1.37-.01 2.72.16 4.04.5 1.48.4 2.86 1.06 4.09 1.97 2.24 1.64 3.75 3.77 4.54 6.38h-4.35zm165.58 6.6h-22.49c.32 2.37 1.38 3.89 1.53 4.33 1.21 1.95 2.92 2.8 3.25 3.11 1.01.56 2.11.92 3.25 1.06.49.06.98.09 1.47.09.73.01 1.45-.06 2.16-.21.93-.18 1.82-.54 2.62-1.05a8.738 8.738 0 003-3.25h4.41c-1.4 3.6-3.99 5.29-4.43 5.88-2.95 2.22-6.8 2.05-7.55 2.28h-.26c-4.08 0-6.43-1.66-7.14-1.85-3.06-1.85-4.27-4.52-4.75-5.02-1.69-3.17-1.52-6.28-1.69-6.98-.01-1.53.2-3.06.62-4.53.25-.85.58-1.68.99-2.47 1.61-3.14 4.15-4.49 4.62-4.99 1.45-.89 3.07-1.46 4.75-1.69.77-.11 1.55-.17 2.33-.16 1.18-.01 2.36.12 3.51.38 1.27.29 2.49.78 3.6 1.47 2.98 1.85 4.13 4.49 4.59 4.99.91 1.79 1.44 3.75 1.57 5.76.03.41.04.83.04 1.24v1.61zM86.41 45.2h-4.03V7.63h4.03v15.08c1.5-2.2 3.5-3.14 3.89-3.49 2.39-1.28 5.14-1.15 5.72-1.28 3.91 0 6.15 1.66 6.84 1.85 2.92 1.85 4.08 4.49 4.53 4.99.91 1.79 1.45 3.75 1.57 5.76.03.41.04.83.04 1.24.02 1.72-.25 3.42-.79 5.04-.23.67-.5 1.32-.82 1.94-1.61 3.17-4.08 4.52-4.53 5.02-1.5.94-3.19 1.53-4.95 1.74-.63.07-1.26.11-1.89.11-.92.01-1.84-.08-2.74-.24-1.04-.2-2.04-.55-2.98-1.05-1.59-.86-2.89-2-3.89-3.43v4.29zM52.86 18.37h4.03V45.2h-4.03v-4.29c-1.5 2.15-3.5 3.09-3.89 3.43-2.39 1.29-5.14 1.16-5.71 1.29-1.24.01-2.48-.15-3.67-.46-1.13-.3-2.2-.77-3.18-1.39-2.92-1.85-4.08-4.52-4.53-5.02-.98-1.95-1.53-4.09-1.6-6.27-.01-.23-.01-.47-.01-.71-.01-1.53.2-3.06.62-4.53.25-.85.58-1.68.99-2.47 1.61-3.14 4.08-4.49 4.53-4.99 1.5-.94 3.19-1.53 4.95-1.74.63-.08 1.26-.11 1.9-.11.91-.01 1.83.07 2.73.24 1.04.2 2.05.55 2.98 1.04 1.59.86 2.89 2.03 3.89 3.49v-4.34zM144.7 45.2V18.37h4.02v6.6c.22-.7.75-1.67.83-1.85.22-.4.46-.77.73-1.13.46-.6.97-1.09 1.07-1.21.49-.48 1.04-.91 1.62-1.28.44-.27.89-.52 1.36-.73.67-.31 1.38-.52 2.1-.65.67-.12 1.4-.18 2.17-.18h.27v4.02h-.49a9.11 9.11 0 00-2.79.41c-.86.27-1.67.69-2.39 1.23-2.17 1.64-2.99 3.82-3.32 4.24-.77 1.73-1.16 3.59-1.16 5.55V45.2h-4.02zm-80.83 0V18.37h4.02v6.6c.22-.7.75-1.67.83-1.85.22-.4.46-.77.73-1.13.46-.6.96-1.09 1.07-1.21.49-.48 1.04-.91 1.62-1.28.44-.27.89-.52 1.36-.73.67-.31 1.38-.52 2.1-.65.67-.12 1.4-.18 2.17-.18h.27v4.02h-.49c-.95-.01-1.89.13-2.79.41-.86.27-1.67.69-2.39 1.23-2.17 1.64-2.99 3.82-3.32 4.24-.77 1.73-1.16 3.59-1.16 5.55V45.2h-4.02zm-17.71-3.47c.97-.21 1.88-.6 2.7-1.14 2.07-1.4 2.83-3.36 3.14-3.73.68-1.49 1.05-3.1 1.07-4.73.01-.12.01-.23.01-.35 0-1.14-.14-2.27-.44-3.37-.17-.59-.38-1.17-.64-1.72-1.07-2.31-2.82-3.34-3.14-3.71-.91-.6-1.93-1.02-3.01-1.21-.68-.13-1.37-.19-2.06-.18-2.95 0-4.59 1.25-5.1 1.39-2.14 1.4-2.94 3.34-3.27 3.71a11.17 11.17 0 00-1.1 4.32 11.545 11.545 0 00.84 5.26c.08.2.17.39.26.59 1.13 2.33 2.95 3.35 3.27 3.73 1.44.93 3.13 1.39 5.1 1.39 1.06-.05 1.85-.13 2.37-.25zm54.44-1.14c2.12-1.4 2.93-3.36 3.25-3.73a11.49 11.49 0 001.13-4.99v-.09c.01-1.16-.16-2.33-.49-3.45a9.3 9.3 0 00-.64-1.64c-1.13-2.31-2.92-3.34-3.25-3.71-2.12-1.39-4.61-1.25-5.12-1.39-.84-.01-1.67.09-2.49.28-.91.22-1.78.6-2.56 1.11-2.09 1.4-2.85 3.34-3.16 3.71-1.08 2.3-.97 4.58-1.08 5.09 0 1.38.22 2.74.66 4.04.12.35.26.7.42 1.04 1.07 2.33 2.85 3.35 3.16 3.73 1.4.93 3.08 1.39 5.05 1.39 3.07-.84 4.78-1.3 5.12-1.39zm83.38-10.95c-.19-1.37-.67-2.68-1.38-3.86-.42-.69-.93-1.32-1.51-1.89a7.983 7.983 0 00-4.36-2.15c-.62-.11-1.24-.16-1.87-.15-.92-.01-1.84.1-2.73.33a7.678 7.678 0 00-3.47 1.97c-1.5 1.49-2.5 3.4-2.88 5.48-.01.09-.03.18-.04.27h18.24z" id="d"/></defs><use xlink:href="#a" fill="#373c42"/><use xlink:href="#a" fill-opacity="0" stroke="#000" stroke-opacity="0"/><use xlink:href="#b" fill="#373c42"/><use xlink:href="#b" fill-opacity="0" stroke="#000" stroke-opacity="0"/><g><use xlink:href="#c" fill="#373c42"/></g><g><use xlink:href="#d" fill="#373c42"/><use xlink:href="#d" fill-opacity="0" stroke="#000" stroke-width=".94"/></g></svg>