<svg id="Calque_1" data-name="Calque 1" xmlns="http://www.w3.org/2000/svg" viewBox="0 0 40.07 14.57"><defs><style>.cls-1{fill:#000091;}.cls-2{fill:#000091;}.cls-3{fill:#e1000f;}.cls-4{fill:#7f8080;}</style></defs><path class="cls-1" d="M13,12.75h0a.42.42,0,0,0,.12-.07h0l-.11.07"/><path class="cls-1" d="M18.31,11l0,0s0,0,0,0"/><path class="cls-2" d="M11.84,10.43s.08,0,.11-.06h-.22s0,0,0-.06l-.44.12c-.19.06-.36.19-.58.25s-.55.36-.87.46c0,0,0,0,0-.06s.13-.11.19-.19,0-.05,0-.05a4.57,4.57,0,0,1,.8-.72V10c.08-.12.22-.16.27-.31a.54.54,0,0,1,.28-.25s-.09,0-.09-.08-.22.06-.33,0a.75.75,0,0,1,.17-.1s0,0-.06,0,.06-.11.13-.13A.76.76,0,0,0,11.46,9c-.19,0-.41,0-.61-.06a1.45,1.45,0,0,1,.68-.83s.09,0,.09,0a.29.29,0,0,1-.22.28,2.92,2.92,0,0,1,.65.15c0,.06-.08,0-.11,0,.13.09.3,0,.43.13-.08.09-.16,0-.24,0a7.28,7.28,0,0,1,2.47,1,7.51,7.51,0,0,1-1.89.58.56.56,0,0,1-.22,0s0,.09,0,.09a.39.39,0,0,0-.27.06c-.11.09-.27.12-.35,0m-.57,1.92h0l-.32.21a4,4,0,0,1-.36.18.06.06,0,0,0-.05,0,1.13,1.13,0,0,0-.27.22l0,0,0,0-.06.06s0,0,0,0-.06,0-.06,0l0,0-.05,0h0a.9.9,0,0,1-.1.09.93.93,0,0,0-.16.18h0a0,0,0,0,1,0,0s0,0,0,0h0a0,0,0,0,0,0,0s0,0,0,0h0a.53.53,0,0,0,.09-.11s0,0,0,0l0-.05s0,0,0,0l.08-.12h0l0-.06a.11.11,0,0,0,0-.06h0l0-.06v0s0,0,0,0a0,0,0,0,1,0,0h0a.44.44,0,0,1,.12-.15h0l-.1.09s-.09,0,0-.05l0,0a1.06,1.06,0,0,1,.15-.15l.09-.06h0l.06-.07c.26-.25.71-.25,1-.41.14-.06.31,0,.44,0A.39.39,0,0,1,12,12a1.92,1.92,0,0,0-.7.35m.49.21a.28.28,0,0,1-.07.09s.06,0,0,0a.7.7,0,0,1-.2.15h0l-.1.1s-.19,0-.14,0l.2-.19a.63.63,0,0,0,.12-.11.1.1,0,0,1,0-.06c.05,0,.19,0,.16,0M10.49,8.45c0,.06-.06.06-.09.12a.23.23,0,0,1-.12.12s-.06,0-.06,0a.35.35,0,0,1,.22-.25c.05,0,.05,0,.05,0M8.21,10.27a.1.1,0,0,1,0-.06,9,9,0,0,0,.88-1.39A3.3,3.3,0,0,0,10,8.05a5.35,5.35,0,0,1,1.54-1.21,1,1,0,0,1,.71,0C12.16,7,12,7,11.91,7a.11.11,0,0,1-.09,0,.11.11,0,0,0,0-.09c-.27.31-.65.44-.87.8s-.28.63-.63.71c-.11,0,0-.08,0-.05a9.14,9.14,0,0,0-2.12,1.9m4.21.59c-.06,0-.16,0-.13,0s.21-.14.33-.19.13-.09.19-.06.13.06.19.11c-.18.16-.39.09-.58.16m4.21,2c.16-.16.32-.32.46-.49a9,9,0,0,1,.92-.93,2.1,2.1,0,0,1,.3-.24s0-.08.06-.11c-.13.06-.22.16-.36.22s-.06,0,0-.06l.29-.22h0s0,0,0-.06a1.06,1.06,0,0,0-.87.41c-.06,0-.12,0-.13,0-.41.13-.72.49-1.12.65v-.06a2.72,2.72,0,0,1-.5.19,2.62,2.62,0,0,1-.68,0,7,7,0,0,0-1,.18h0a2.85,2.85,0,0,0-.51.2v0l-.05,0a.58.58,0,0,1-.19.16,2.21,2.21,0,0,0-.45.37h0c-.15.15-.29.29-.44.42s-.05,0-.08,0,0,0,0,0l.07-.12.09-.13a.67.67,0,0,1,.12-.16s0,0,0,0h-.05a2.73,2.73,0,0,1,.47-.35s0,0,0,0,0,0,0-.07,0,0,0,0,0,0,0,0l-.13.09c-.07.05-.11.17-.22.17h0s0,0,0,0h0s0,0,0,0,0,0,0,0h0a0,0,0,0,1,0,0s0,0,0,0a.07.07,0,0,0,0-.06s0,0,0,0,0,0,0,0,0,0,0,0a.48.48,0,0,1,.19-.16h0l.32-.18,0,0a2.58,2.58,0,0,0-.44.22l0,0s0,0-.07,0v0c0-.06.11-.09.16-.13s.06,0,.06,0c.88-.68,2.09-.52,3.1-.87a1.75,1.75,0,0,1,.25-.16c.13-.06.25-.19.41-.28A1.19,1.19,0,0,0,17,10.3a.1.1,0,0,0,0-.06,4.44,4.44,0,0,1-1.2.9,5,5,0,0,1-1.82.33.14.14,0,0,1,.13-.05c0-.09.06-.12.12-.16h.09s0-.06.05-.06.15,0,.12,0-.25.09-.38,0c.06-.06,0-.13.09-.16h.12a.22.22,0,0,1,.05-.12c.41-.24.8-.43,1.18-.65-.09,0-.13.09-.22,0,.06,0,0-.09.06-.09.31-.09.55-.25.86-.36-.12,0-.19.09-.31,0,.06,0,.09-.09.16-.09V9.64s0,0,.06,0a.1.1,0,0,1-.06,0c0-.06.12,0,.16-.09s-.08,0-.08,0,.21-.13.36-.16c0-.06-.12,0-.12-.06s0,0,.06,0h-.06c-.06,0,0-.08,0-.11a2.2,2.2,0,0,0,.25-.66s-.06,0-.06,0A2.25,2.25,0,0,1,15.42,9h-.18a.52.52,0,0,1-.47,0,1.79,1.79,0,0,1-.28-.22,3.06,3.06,0,0,0-.68-.33,6,6,0,0,0-2.1-.31,5.16,5.16,0,0,1,.95-.27,4,4,0,0,1,1.4-.28.88.88,0,0,0-.28,0,4.91,4.91,0,0,0-1.17.16c-.28.06-.53.16-.8.22s-.25.21-.44.19V8a1.53,1.53,0,0,1,1.05-.68,5,5,0,0,1,1.45.05,10.1,10.1,0,0,1,1.05.19c.13,0,.16.22.27.25s.34,0,.5.12c0-.06,0-.12,0-.16s.24,0,.36,0-.19-.38-.31-.58a.1.1,0,0,1,0-.06,3.57,3.57,0,0,0,.66.55c.13.06.46.13.4,0a3.7,3.7,0,0,0-.64-.83V6.67c-.05,0-.05,0-.08-.06V6.49C16,6.43,16,6.33,16,6.25s0-.34-.09-.5a2.6,2.6,0,0,1-.12-.46c-.08-.47-.19-.87-.24-1.32s.3-.93.55-1.4a2.2,2.2,0,0,1,.77-.87,2.22,2.22,0,0,1,.52-.87,2.3,2.3,0,0,1,.84-.55A5.35,5.35,0,0,1,18.94,0H0V14.52H13.46a13.29,13.29,0,0,1,1.78-.91,6.26,6.26,0,0,0,1.39-.77"/><path class="cls-3" d="M40.06,0H24.44a.44.44,0,0,1,.15.07L25,.31a1.27,1.27,0,0,1,.52.43.47.47,0,0,1,.09.36c-.06.14-.09.37-.22.41a.93.93,0,0,1-.58.06,1.28,1.28,0,0,1-.33-.06,2.21,2.21,0,0,1,1.07.74c0,.06.13.09.25.09s0,.06,0,.09-.12.08-.09.16h.09c.13-.06.12-.34.3-.25a.33.33,0,0,1,.12.41c-.12.11-.22.18-.33.27a.21.21,0,0,0,0,.19.81.81,0,0,1,.13.33c.08.19.11.41.19.61a3.8,3.8,0,0,1,.18,1.24c0,.22-.11.41,0,.62a2,2,0,0,0,.3.58A3.94,3.94,0,0,1,27,7c.16.28.46.55.33.87s-.38.16-.58.28,0,.36.06.49-.16.41-.37.5c.06.08.16.05.19.11s.16.22.09.36-.44.25-.28.5a.66.66,0,0,1,0,.61.65.65,0,0,1-.49.41,1.14,1.14,0,0,1-.52,0,.71.71,0,0,0-.16,0,11.2,11.2,0,0,0-1.4-.19,2.8,2.8,0,0,0-.37.1,2.46,2.46,0,0,0-.34.29s0,0-.06.07,0,0,0,0l0,0a3.05,3.05,0,0,0-.22.32,0,0,0,0,1,0,0,.05.05,0,0,1,0,0,2.45,2.45,0,0,0-.2.51,1.61,1.61,0,0,0,0,1.29s.9.31,1.51.58a4.67,4.67,0,0,1,.65.34H40.07V0Z"/><path class="cls-4" d="M25.37,5.32c.12,0,.28,0,.28.08-.06.22-.38.28-.55.5H25c-.09.06-.06.19-.13.19a.37.37,0,0,0-.25,0,.5.5,0,0,0,.41.16.12.12,0,0,1,.09.11.06.06,0,0,0,.05,0s.06,0,.06,0v.12c-.08.11-.22.06-.33.08a1.16,1.16,0,0,0,.64,0c.16,0,0-.33.11-.46-.05,0,0-.09-.05-.09a.8.8,0,0,1,.16-.16.21.21,0,0,0,.16-.08c0-.06-.12-.09-.09-.13s.3-.28.25-.44-.25-.09-.38-.15a1,1,0,0,0-.47,0,2,2,0,0,0-.4.12,1.8,1.8,0,0,0-.53.28,2.3,2.3,0,0,1,.6-.16,1.18,1.18,0,0,1,.46,0"/></svg>