<svg width="313" height="172" viewBox="0 0 313 172" fill="none" xmlns="http://www.w3.org/2000/svg">
<rect width="312" height="172" transform="translate(0.0302734)" fill="white"/>
<path d="M40.359 39.9526C40.4161 39.9061 40.4692 39.8666 40.5269 39.8242L40.5481 39.8313C40.4956 39.8747 40.438 39.9117 40.3767 39.9414C40.3715 39.9462 40.3655 39.95 40.359 39.9526ZM48.7023 37.1704C48.6811 37.1845 48.6634 37.1986 48.6416 37.2128C48.674 37.2093 48.7023 37.2022 48.7023 37.1704ZM46.0648 40.0789C45.3838 40.578 44.6482 40.9979 43.8722 41.3305C42.9084 41.7315 41.9792 42.211 41.0939 42.7641H19.9922V20.0007H49.7088C49.321 20.1252 48.9402 20.2704 48.568 20.4356C48.0656 20.6198 47.6111 20.9146 47.238 21.2983C46.8711 21.6925 46.5927 22.1606 46.4213 22.6712C45.9097 23.0222 45.4952 23.497 45.2163 24.0513C44.8309 24.7825 44.2676 25.4277 44.3566 26.2439C44.4391 26.9321 44.6135 27.5779 44.742 28.3086C44.7801 28.5564 44.8372 28.8008 44.9128 29.0399C45.0024 29.2962 44.9128 29.5997 45.0413 29.8136C45.1303 29.9414 45.0879 30.1164 45.2587 30.2019V30.3733C45.3053 30.4164 45.3053 30.4588 45.3872 30.4588V30.6303C45.7684 31.0193 46.1001 31.4539 46.3748 31.9243C46.4643 32.1812 45.947 32.0527 45.7331 31.9637C45.3511 31.7269 45.0042 31.4377 44.7025 31.1046C44.6778 31.127 44.6616 31.1571 44.6565 31.19C44.8309 31.4929 45.4726 31.8783 45.1303 32.0922C44.9594 32.1812 44.742 31.9637 44.5705 32.1382C44.5281 32.2236 44.5705 32.309 44.5705 32.3951C44.3106 32.2236 44.0537 32.309 43.7968 32.2236C43.6259 32.1812 43.5794 31.8353 43.369 31.8353C42.8318 31.6944 42.2848 31.5942 41.7327 31.5353C40.9796 31.4004 40.2115 31.3717 39.4505 31.4499C39.1197 31.5088 38.8043 31.6344 38.5235 31.8189C38.2427 32.0035 38.0024 32.2432 37.8171 32.5235V32.6555C38.117 32.6944 38.249 32.4381 38.5053 32.352C38.9331 32.2666 39.322 32.0922 39.7534 32.0062C40.3552 31.8401 40.9763 31.7539 41.6007 31.7498C41.7448 31.7283 41.8914 31.7283 42.0355 31.7498C41.2836 31.7627 40.5398 31.9088 39.8388 32.1812C39.3222 32.2691 38.8167 32.4125 38.3309 32.609C39.4541 32.5738 40.5749 32.7343 41.6431 33.0833C42.0218 33.2111 42.3835 33.3847 42.7202 33.6001C42.8532 33.7272 42.9976 33.8418 43.1516 33.9424C43.2626 34.0032 43.3857 34.0388 43.512 34.0469C43.6384 34.0549 43.765 34.0352 43.8828 33.989H44.1003C44.7523 33.885 45.3623 33.6009 45.8615 33.1688C45.8615 33.2118 45.904 33.2118 45.947 33.2118C45.8829 33.5771 45.7525 33.9276 45.5622 34.2459C45.5622 34.2883 45.5157 34.3738 45.6046 34.4168H45.6907C45.6441 34.4168 45.6046 34.4168 45.6046 34.4592C45.6046 34.5452 45.7331 34.4592 45.7726 34.5452C45.561 34.5591 45.3624 34.6521 45.2163 34.8057C45.2163 34.8481 45.3053 34.8481 45.3448 34.8481C45.2587 34.9342 45.1303 34.8911 45.0879 34.9766C45.1098 34.9994 45.1385 35.0144 45.1698 35.0196C45.1303 35.0196 45.0879 35.0196 45.0879 35.062V35.1905C44.9594 35.1905 44.9128 35.2759 44.8309 35.3225C45.0024 35.4509 45.1303 35.3225 45.3053 35.3225C44.8309 35.4934 44.4391 35.7503 43.9718 35.8787C43.8828 35.8787 43.9718 36.0107 43.8828 36.0107C44.0113 36.0926 44.1003 35.9642 44.2287 35.9642C43.6259 36.3101 43.0231 36.61 42.3743 36.9983C42.3294 37.045 42.3007 37.1049 42.2924 37.1692H42.1174C42.0355 37.2122 42.075 37.3442 41.989 37.4261C42.2035 37.5581 42.4633 37.2552 42.5918 37.4261C42.6348 37.4261 42.5063 37.4727 42.4209 37.4727C42.3743 37.4727 42.3743 37.5581 42.3349 37.5581H42.2035C42.1174 37.6435 42.0355 37.6865 42.0355 37.815C41.9465 37.815 41.8611 37.815 41.8181 37.9004C42.7668 37.772 43.7538 37.8574 44.6565 37.3872C45.3675 37.0296 46.0087 36.5477 46.5498 35.9642C46.5726 35.9889 46.5874 36.0199 46.5922 36.0531C46.4658 36.4549 46.2086 36.8027 45.8615 37.0413C45.6046 37.1692 45.4337 37.3872 45.2163 37.4727C45.0879 37.5581 44.9594 37.6437 44.8309 37.7296C43.2376 38.2888 41.3437 38.0289 39.9672 39.1055C39.9672 39.063 39.9242 39.063 39.8818 39.063C39.7964 39.1485 39.6644 39.1915 39.6255 39.2805C39.6252 39.2857 39.626 39.2909 39.6278 39.2957C39.6297 39.3006 39.6325 39.305 39.6361 39.3088C39.6483 39.3247 39.6649 39.3369 39.6837 39.3439C39.7026 39.3509 39.7231 39.3524 39.7427 39.3482C39.7649 39.3324 39.7888 39.3192 39.814 39.3088C40.0266 39.1676 40.2568 39.0551 40.4988 38.9741C40.4733 38.9922 40.4494 39.0125 40.4275 39.0348C40.2601 39.1273 40.0992 39.2269 39.9354 39.3088H39.946C39.8322 39.3738 39.7328 39.4612 39.6538 39.5657C39.6614 39.5682 39.6683 39.5724 39.674 39.578C39.6798 39.5836 39.6842 39.5905 39.6869 39.598C39.6896 39.6056 39.6906 39.6136 39.6897 39.6216C39.6889 39.6296 39.6863 39.6372 39.6821 39.644C39.6679 39.6694 39.6538 39.6941 39.6396 39.7224C39.6289 39.7372 39.6192 39.7528 39.6108 39.769C39.5931 39.8008 39.5754 39.8297 39.5542 39.8615C39.5465 39.8756 39.5395 39.8862 39.5324 39.901C39.5218 39.9186 39.5147 39.9363 39.5041 39.9546C39.4996 39.966 39.4934 39.9767 39.4858 39.9864C39.48 39.9991 39.4729 40.0111 39.4646 40.0223C39.4595 40.0357 39.4536 40.0486 39.4469 40.0612C39.4434 40.0648 39.4399 40.0683 39.4399 40.0718C39.4363 40.0754 39.4363 40.0789 39.4322 40.0824C39.4293 40.086 39.4293 40.0901 39.4257 40.0931C39.4407 40.099 39.4561 40.1039 39.4717 40.1078C39.4927 40.1129 39.5143 40.1153 39.5359 40.1149C39.6927 40.1184 39.7752 39.9292 39.8783 39.8367C39.9424 39.7842 40.0103 39.7365 40.0816 39.6941C40.0922 39.7083 40.1028 39.7189 40.1099 39.7295C40.1069 39.7401 40.1028 39.7548 40.0992 39.769C40.0745 39.8049 40.0533 39.8473 40.0244 39.8827C40.0032 39.9151 40.0462 39.9398 40.0745 39.9292V39.9363C39.8128 40.0869 39.5698 40.2676 39.3503 40.4749C39.3608 40.4735 39.3716 40.4747 39.3815 40.4784C39.3915 40.4821 39.4004 40.4882 39.4075 40.4961C39.4116 40.4995 39.4149 40.5038 39.4174 40.5086C39.4198 40.5133 39.4212 40.5186 39.4215 40.5239C39.4219 40.5293 39.4211 40.5346 39.4193 40.5397C39.4175 40.5447 39.4147 40.5493 39.411 40.5533C39.3503 40.6387 39.2861 40.7247 39.226 40.8137C39.1865 40.8815 39.1435 40.9457 39.101 41.0135C39.0651 41.0736 39.0298 41.1349 38.9903 41.1955C38.9832 41.2091 38.9726 41.2238 38.9655 41.238C38.9651 41.238 38.9646 41.238 38.9642 41.2382C38.9637 41.2384 38.9633 41.2387 38.963 41.239C38.9627 41.2393 38.9624 41.2397 38.9622 41.2401C38.9621 41.2406 38.962 41.241 38.962 41.2415C39.0067 41.2504 39.0532 41.2442 39.094 41.2238C39.3291 41.0064 39.5542 40.7813 39.7893 40.5603C39.8119 40.5603 39.8341 40.5542 39.8535 40.5427C40.0711 40.3308 40.31 40.142 40.5665 39.9793C40.6814 39.916 40.7821 39.8298 40.8623 39.726L40.9266 39.6511C40.9351 39.644 40.9447 39.638 40.9548 39.6334C41.2076 39.4943 41.4757 39.3854 41.7539 39.3088C41.7715 39.3052 41.7863 39.3017 41.8004 39.2982C42.3176 39.1761 42.8413 39.0832 43.369 39.02C43.7261 39.0478 44.0853 39.0334 44.4391 38.977C44.7101 38.9163 44.9594 38.7596 45.2163 38.6777V38.7596C45.8615 38.5033 46.3359 37.9429 46.9776 37.7296C47.0241 37.7296 47.106 37.815 47.195 37.772C47.3609 37.5676 47.5709 37.4033 47.8093 37.2916C48.0477 37.1799 48.3083 37.1235 48.5715 37.1268C48.5715 37.1692 48.5715 37.2122 48.6145 37.2122H48.6428L48.1826 37.5581C48.1402 37.6011 48.1826 37.6435 48.2292 37.6435C48.4395 37.5581 48.5715 37.3872 48.7854 37.2976C48.7424 37.3442 48.7424 37.4261 48.7035 37.4727C48.5375 37.5855 48.3801 37.7106 48.2327 37.8468C47.7194 38.299 47.2392 38.7876 46.7961 39.3088H46.8026C46.5569 39.5727 46.3106 39.8367 46.0648 40.0789ZM39.4505 36.9983C39.7534 36.8698 40.0992 36.9983 40.3562 36.7414C40.2672 36.6524 40.1387 36.6954 40.0533 36.567C39.9673 36.524 39.8388 36.61 39.7534 36.6524C39.5789 36.7414 39.279 36.7414 39.2366 36.9553C39.1936 37.0413 39.365 36.9983 39.4505 36.9983ZM32.8679 36.0531C33.8144 34.8989 34.9329 33.8972 36.1843 33.0833C36.2662 33.0403 36.0523 33.2118 36.2273 33.1688C36.7871 33.0403 36.9579 32.4805 37.2149 32.0527C37.5607 31.4929 38.163 31.2755 38.5913 30.8047C38.5942 30.8279 38.5919 30.8516 38.5844 30.8738C38.577 30.896 38.5646 30.9163 38.5483 30.9331C38.5653 30.9493 38.5856 30.9614 38.6078 30.9688C38.63 30.9761 38.6536 30.9784 38.6768 30.9756C38.8512 30.8477 39.0651 30.8901 39.1936 30.7192C38.8367 30.5759 38.4415 30.5594 38.074 30.6727C37.1615 31.1512 36.3445 31.7929 35.6634 32.5659C35.2453 33.0447 34.7517 33.4518 34.202 33.771C33.818 34.5456 33.3581 35.2803 32.829 35.9642C32.8321 35.9972 32.8458 36.0284 32.8679 36.0531ZM36.4412 33.2118C36.4412 33.1688 36.4412 33.1257 36.3946 33.1257C36.3093 33.1563 36.2332 33.2081 36.1733 33.2761C36.1135 33.3441 36.0718 33.4262 36.0523 33.5146C36.0523 33.5577 36.0988 33.5577 36.1377 33.5577C36.2153 33.5242 36.2777 33.4631 36.3127 33.3862C36.3516 33.3078 36.3946 33.2972 36.4412 33.2118ZM38.4381 39.6582C38.4735 39.5727 38.2455 39.594 38.2095 39.6193C38.1751 39.6476 38.144 39.6798 38.117 39.7153C38.0611 39.7749 38.0015 39.8308 37.9385 39.8827C37.8318 39.9829 37.7316 40.0901 37.6214 40.1862C37.5501 40.2469 37.7853 40.2822 37.8353 40.2362C37.8884 40.1862 37.9455 40.1361 37.9991 40.086C38.028 40.086 38.0528 40.0789 38.0634 40.0789C38.1867 40.027 38.2974 39.9493 38.3881 39.8509C38.4234 39.8191 38.3845 39.7937 38.3309 39.7831C38.3751 39.7495 38.4117 39.707 38.4381 39.6582ZM37.6674 39.3017C38.0204 39.0807 38.3769 38.8415 38.7658 38.6311C38.6482 38.5629 38.5122 38.533 38.3769 38.5457C38.163 38.5887 37.9031 38.4602 37.6892 38.5457C37.1436 38.7991 36.4518 38.7814 36.0417 39.1809C36.0381 39.1809 36.0381 39.1838 36.0346 39.1838C36 39.2162 35.969 39.2522 35.9421 39.2911C35.9356 39.2979 35.9283 39.3038 35.9203 39.3088C35.8814 39.3447 35.8384 39.373 35.7883 39.4125C35.7094 39.4795 35.6356 39.5522 35.5673 39.6299C35.5673 39.6334 35.5673 39.6334 35.5638 39.637C35.5314 39.6653 35.5031 39.6977 35.4671 39.726C35.4106 39.7654 35.4995 39.8226 35.5426 39.7902C35.6027 39.7442 35.6421 39.6906 35.7028 39.6511L35.7246 39.6405C35.6597 39.7117 35.6023 39.7893 35.5532 39.8721C35.558 39.8809 35.5592 39.8912 35.5567 39.901C35.5532 39.9222 35.5461 39.944 35.5426 39.9652C35.5428 39.9671 35.5425 39.969 35.5419 39.9709C35.5413 39.9727 35.5403 39.9744 35.539 39.9758C35.5356 39.9917 35.5309 40.0072 35.5249 40.0223C35.524 40.0321 35.5214 40.0417 35.5172 40.0506C35.5159 40.052 35.5149 40.0537 35.5142 40.0555C35.5136 40.0574 35.5134 40.0593 35.5137 40.0612C35.5029 40.0954 35.4899 40.1289 35.4748 40.1614C35.4713 40.1679 35.4713 40.172 35.4671 40.1791C35.4642 40.1791 35.4642 40.1826 35.4642 40.1862L35.4565 40.1932C35.4427 40.2225 35.4274 40.251 35.4106 40.2787C35.3929 40.3111 35.3711 40.3394 35.3534 40.3718C35.3484 40.3806 35.3424 40.3889 35.3357 40.3965C35.3322 40.4001 35.3322 40.4001 35.3322 40.4036C35.2892 40.4643 35.2432 40.525 35.1967 40.5851C35.1896 40.5963 35.1784 40.6069 35.1719 40.6175C35.1466 40.6499 35.1218 40.6817 35.0971 40.71C35.0816 40.7282 35.0672 40.7472 35.0541 40.7672C35.0505 40.7672 35.0505 40.7707 35.047 40.7742C35.0004 40.8314 34.9539 40.8815 34.9079 40.931C34.9115 40.938 34.9144 40.9457 34.9185 40.9528V40.9563C34.9294 40.9801 34.9424 41.0027 34.9574 41.0241L34.968 41.0453C34.9734 41.0542 34.9795 41.0627 34.9863 41.0706C34.9931 41.0702 34.9998 41.0684 35.0059 41.0653C35.012 41.0621 35.0174 41.0577 35.0217 41.0524H35.0252C35.0358 41.0377 35.0455 41.0223 35.0541 41.0064L35.0576 41.0029C35.0611 40.9958 35.0647 40.9917 35.0682 40.9846L35.0823 40.9705C35.0859 40.9669 35.0859 40.9598 35.0894 40.9563C35.0899 40.9563 35.0904 40.9562 35.0908 40.9561C35.0912 40.9559 35.0916 40.9556 35.0919 40.9553C35.0923 40.955 35.0925 40.9546 35.0927 40.9541C35.0929 40.9537 35.093 40.9532 35.093 40.9528C35.1691 40.8572 35.254 40.7688 35.3463 40.6888C35.3964 40.6428 35.45 40.5998 35.5031 40.5568C35.5066 40.5497 35.5208 40.5462 35.5314 40.5462C35.5411 40.5454 35.551 40.5466 35.5602 40.5497C35.5814 40.5391 35.6068 40.525 35.628 40.5144C35.6521 40.4996 35.6771 40.4864 35.7028 40.4749V40.482C35.6958 40.532 35.7706 40.532 35.7989 40.5144C35.8197 40.4971 35.8388 40.478 35.856 40.4572C35.8884 40.4142 35.9203 40.3859 35.9485 40.3535V40.35C35.9527 40.3464 35.9562 40.3464 35.9562 40.3429C35.9774 40.3217 35.9986 40.3034 36.0199 40.2822L36.024 40.2787L36.0275 40.2751C36.0487 40.2539 36.0664 40.2362 36.0882 40.218C36.2174 40.0896 36.3623 39.9781 36.5195 39.8862C36.5315 39.8798 36.5455 39.8781 36.5587 39.8815C36.5719 39.8849 36.5834 39.8931 36.5908 39.9045C36.5944 39.908 36.5979 39.9116 36.5979 39.9151C36.7906 39.8261 36.9827 39.7442 37.1648 39.637C37.3357 39.5374 37.4965 39.4231 37.6568 39.3088C37.6603 39.3052 37.6645 39.3052 37.6674 39.3017ZM38.5483 36.3101C38.6768 36.4385 38.9331 36.3961 39.1081 36.3101C39.2381 36.2371 39.3879 36.2071 39.5359 36.2246C39.5789 36.2246 39.5789 36.1386 39.5789 36.0926C39.69 36.1301 39.8072 36.1457 39.9242 36.1386C40.9496 35.9677 41.9482 35.6635 42.8947 35.2335C41.7715 34.3738 40.3562 34.0744 39.0227 33.6855C39.1505 33.6855 39.279 33.814 39.4075 33.6855C39.1936 33.5146 38.9331 33.6001 38.7198 33.4722C38.7658 33.4722 38.8512 33.5146 38.8942 33.4257C38.5596 33.3035 38.213 33.2174 37.8601 33.1688C37.9592 33.1508 38.0485 33.0976 38.1114 33.019C38.1744 32.9404 38.2067 32.8416 38.2024 32.741C38.2024 32.6944 38.117 32.6944 38.074 32.6944C37.5658 32.9761 37.1817 33.438 36.9974 33.989C37.3003 34.1563 37.6462 34.0279 37.9455 34.0744C37.8171 34.2029 37.5996 34.2029 37.4323 34.2459C37.2968 34.2777 37.1718 34.3738 37.2149 34.4592C37.2378 34.4918 37.2721 34.5146 37.3109 34.5234C37.2093 34.5492 37.1167 34.6024 37.0434 34.6772C37.2149 34.8057 37.3857 34.7197 37.5607 34.7197C37.5607 34.8057 37.6462 34.8057 37.6892 34.8481C37.5006 34.9153 37.3457 35.0536 37.2579 35.2335C37.1718 35.4509 36.9579 35.5364 36.8295 35.7078V35.8357C36.3731 36.1612 35.9544 36.5368 35.5814 36.9553C35.6245 36.9553 35.6245 36.9983 35.6245 37.0413C35.5355 37.1692 35.364 37.2122 35.321 37.3442C35.321 37.3872 35.321 37.4261 35.364 37.4261C35.8814 37.2552 36.2662 36.8698 36.7405 36.6954C37.0864 36.61 37.3433 36.3961 37.6462 36.3101C37.8601 36.2676 38.117 36.1816 38.3309 36.1386C38.3309 36.1816 38.3309 36.2246 38.3769 36.2246H38.7198C38.6768 36.3101 38.5053 36.2676 38.5483 36.3101Z" fill="#000091"/>
<path d="M82.7884 19.9999H58.2991C58.3811 20.0241 58.4592 20.0603 58.5307 20.1072C58.7304 20.2138 58.9873 20.3529 59.1517 20.4383C59.4804 20.5906 59.7631 20.8267 59.9714 21.1231C60.0568 21.255 60.1859 21.5114 60.0998 21.6828C60.0144 21.9003 59.9714 22.2426 59.754 22.3281C59.4678 22.4429 59.1545 22.4728 58.8518 22.4141C58.6778 22.4067 58.5054 22.3778 58.3386 22.3281C58.9994 22.5423 59.5823 22.9467 60.0144 23.4907C60.0568 23.5761 60.2283 23.6191 60.4033 23.6191C60.4422 23.6191 60.4422 23.7046 60.4422 23.7476C60.3568 23.8366 60.2743 23.876 60.3137 24.0074H60.4422C60.6596 23.922 60.6172 23.4907 60.9166 23.6191C61.0225 23.6841 61.0993 23.7874 61.1311 23.9075C61.163 24.0277 61.1473 24.1555 61.0874 24.2644C60.927 24.4204 60.7555 24.5645 60.5742 24.6957C60.5532 24.7429 60.5424 24.794 60.5424 24.8457C60.5424 24.8973 60.5532 24.9484 60.5742 24.9956C60.6813 25.1508 60.7542 25.3269 60.7881 25.5124C60.9166 25.8117 60.9596 26.1576 61.0874 26.4611C61.2943 27.0842 61.3969 27.7373 61.3909 28.3938C61.3909 28.7397 61.2159 29.0391 61.3479 29.385C61.4618 29.7063 61.6203 30.0099 61.8187 30.2871C61.9914 30.5059 62.1498 30.7356 62.293 30.9748C62.5494 31.4067 63.0237 31.8345 62.8063 32.3513C62.6814 32.6547 62.2111 32.6117 61.9077 32.7826C61.6478 32.9971 61.8647 33.343 61.9931 33.5569C62.2111 33.9452 61.7362 34.2021 61.4333 34.3306C61.5188 34.459 61.6902 34.416 61.7362 34.5014C61.7757 34.7189 61.9931 34.8473 61.8647 35.0612C61.6902 35.3217 61.1729 35.4501 61.4333 35.8349C61.4952 35.9867 61.5234 36.1501 61.5161 36.3139C61.5088 36.4777 61.4661 36.6379 61.3909 36.7836C61.3258 36.947 61.2209 37.0916 61.0858 37.2043C60.9507 37.3169 60.7897 37.3941 60.6172 37.4288C60.3522 37.5072 60.0723 37.522 59.8005 37.4719C59.7209 37.4247 59.6321 37.3953 59.5401 37.3858C58.8156 37.243 58.0835 37.1419 57.3475 37.083C57.1401 37.1145 56.9376 37.1721 56.7446 37.2544C56.5575 37.3929 56.3832 37.5479 56.2237 37.7176L56.2208 37.7217C56.1864 37.7552 56.1541 37.7908 56.1242 37.8284C56.1065 37.846 56.0882 37.8714 56.0705 37.8926C56.0564 37.9067 56.0458 37.9215 56.0316 37.935C55.909 38.0934 55.7959 38.2589 55.6928 38.4306C55.6857 38.442 55.6796 38.454 55.6746 38.4665C55.664 38.4848 55.6534 38.506 55.6427 38.5237C55.5071 38.7758 55.3971 39.0409 55.3145 39.315C55.0223 40.2997 55.1507 41.1447 55.3575 41.3509C55.4147 41.4087 56.7765 41.8288 57.7252 42.2495C58.0756 42.3963 58.4151 42.568 58.741 42.7633H82.7884V19.9999Z" fill="#E1000F"/>
<path d="M59.7581 28.3048C59.9296 28.3478 60.1859 28.3478 60.1859 28.4332C60.104 28.7791 59.5831 28.8646 59.3268 29.2069H59.1983C59.0698 29.2924 59.1087 29.5098 58.9809 29.5098C58.8512 29.4816 58.7158 29.4967 58.5955 29.5528C58.673 29.6452 58.7721 29.7171 58.8841 29.7619C58.996 29.8067 59.1173 29.8231 59.2372 29.8097C59.275 29.8213 59.3083 29.8443 59.3325 29.8755C59.3568 29.9067 59.3708 29.9447 59.3727 29.9842C59.3888 29.9822 59.4042 29.977 59.4183 29.969C59.4324 29.961 59.4447 29.9504 59.4546 29.9376C59.5012 29.9376 59.5407 29.9376 59.5407 29.9842V30.1556C59.4122 30.3265 59.1983 30.2411 59.0268 30.2835C59.3507 30.369 59.6912 30.369 60.015 30.2835C60.2749 30.1981 60.015 29.7667 60.1859 29.5528C60.104 29.5528 60.1859 29.4208 60.104 29.4208C60.1859 29.3389 60.2749 29.2069 60.3603 29.1639C60.4103 29.165 60.4598 29.1539 60.5045 29.1317C60.5493 29.1094 60.5879 29.0766 60.6172 29.036C60.6172 28.95 60.4428 28.907 60.4888 28.8216C60.7457 28.6507 60.9631 28.3902 60.8741 28.1333C60.8346 28.0054 60.4888 28.0054 60.2749 27.9159C60.0305 27.867 59.7777 27.8819 59.5407 27.9589C59.3214 27.995 59.1063 28.0534 58.899 28.1333C58.6049 28.2329 58.328 28.3774 58.0781 28.5617C58.3868 28.4504 58.7041 28.3644 59.0268 28.3048C59.2695 28.2727 59.5154 28.2727 59.7581 28.3048Z" fill="#808080"/>
<path d="M19.9639 54.1624H24.2765L28.4433 61.326L32.6101 54.1624H36.9227V71.2187H33.4629V58.9869L29.6615 65.3708H27.2251L23.4237 58.9869V71.2187H19.9639V54.1624Z" fill="black"/>
<path d="M41.6738 54.1624H45.1337V71.2187H41.6738V54.1624Z" fill="black"/>
<path d="M49.3848 54.1624H53.8194L61.446 66.4918V54.1624H64.9062V71.2187H60.4715L52.8446 58.8893V71.2187H49.3848V54.1624Z" fill="black"/>
<path d="M69.6826 54.1624H73.1425V71.2187H69.6826V54.1624Z" fill="black"/>
<path d="M79.417 66.5403C79.8457 67.1539 80.4087 67.6616 81.0632 68.0247C81.7177 68.3878 82.4464 68.5968 83.1939 68.6358C84.5583 68.6358 85.3869 67.905 85.3869 66.6865C85.3869 63.5431 77.6383 64.3959 77.6383 58.6214C77.6383 55.9165 79.88 53.6749 83.145 53.6749C84.293 53.6701 85.427 53.9265 86.4613 54.4246C87.4955 54.9227 88.403 55.6495 89.1149 56.5501L86.5807 58.8406C85.5817 57.549 84.461 56.6962 83.1695 56.6962C82.9162 56.6717 82.6606 56.6999 82.4187 56.779C82.1768 56.858 81.9539 56.9862 81.764 57.1556C81.5741 57.3249 81.4212 57.5317 81.315 57.763C81.2089 57.9942 81.1517 58.245 81.1471 58.4994C81.1471 61.5938 88.8957 60.7168 88.8957 66.5648C88.8468 69.7809 86.3614 71.706 83.2184 71.706C82.0163 71.7611 80.8181 71.5316 79.7214 71.0362C78.6248 70.5408 77.6605 69.7935 76.9072 68.855L79.417 66.5403Z" fill="black"/>
<path d="M90.2461 54.1624H104.232V57.3054H98.9692V71.2187H95.5094V57.3054H90.2461V54.1624Z" fill="black"/>
<path d="M107.279 54.1624H117.221V57.0376H110.739V61.0823H116.246V63.9575H110.739V68.3436H117.221V71.2188H107.279V54.1624ZM107.572 49.4109H111.129L113.882 52.7002H110.715L107.572 49.4109Z" fill="black"/>
<path d="M121.239 54.1624H126.454C130.206 54.1624 132.521 56.0872 132.521 59.2547C132.564 60.1824 132.323 61.1012 131.831 61.8889C131.339 62.6767 130.62 63.2962 129.767 63.6652L135.104 71.2187H131.034L126.478 64.3229H124.699V71.2187H121.239L121.239 54.1624ZM124.699 57.0375V61.4477H126.648C128.111 61.4477 128.963 60.5949 128.963 59.2061C128.963 57.9148 128.111 57.0375 126.648 57.0375H124.699Z" fill="black"/>
<path d="M137.296 54.1624H147.238V57.0375H140.756V61.0823H146.263V63.9575H140.756V68.3435H147.238V71.2187H137.296V54.1624Z" fill="black"/>
<path d="M209.024 81.1386L209.236 81.749L216.216 92.7562V81.1386H219.904V98.104H215.386L208.366 86.8681L207.918 86.4864V98.104H204.414V81.1386H209.024Z" fill="#0E0F10"/>
<path d="M108.891 95.2456C108.817 95.5075 107.038 97.0252 106.663 97.2594C101.495 100.474 94.004 97.9454 92.5693 91.836C90.2956 82.1436 102.525 76.6907 108.519 84.1813L105.69 86.2816C101.59 81.3045 94.2916 85.5108 96.3441 91.563C97.2901 94.3568 99.8386 95.5149 102.697 95.1368C103.178 95.0723 105.387 94.1945 105.387 93.7685V91.0946H101.146V87.9597H108.891V95.2438V95.2456Z" fill="#0A0B0B"/>
<path d="M269.509 95.2456C269.436 95.5075 267.656 97.0252 267.282 97.2594C262.113 100.474 254.622 97.9454 253.187 91.836C250.914 82.1436 263.144 76.6907 269.137 84.1813L266.308 86.2816C262.209 81.3045 254.91 85.5108 256.962 91.563C257.908 94.3568 260.457 95.5149 263.315 95.1368C263.796 95.0723 266.006 94.1945 266.006 93.7685V91.0946H261.764V87.9597H269.509V95.2438V95.2456Z" fill="#0A0B0B"/>
<path d="M140.516 81.1386C146.576 81.6513 150.771 87.3513 148.147 93.1951C147.183 95.3416 143.847 98.104 141.439 98.104H133.232V81.1386C135.595 81.2843 138.18 80.9413 140.516 81.1386ZM136.736 94.9691H139.963C143.834 94.9691 146.397 90.7259 144.699 87.2831C144.131 86.1324 142.191 84.4579 140.885 84.4579H136.736V94.9691Z" fill="#070808"/>
<path d="M43.4276 81.1386V87.7772H51.7258V81.1386H55.414V98.104H51.7258V91.0966H43.4276V98.104H39.9238V81.1386H43.4276Z" fill="#0E0F10"/>
<path d="M252.544 98.104H248.395L243.968 91.4672C243.525 91.0966 242.776 91.3418 242.218 91.281V98.104H238.714V81.1386H244.338C245.015 81.1386 246.8 81.583 247.44 81.9094C250.501 83.4714 250.826 87.8768 248.292 90.0713C248.025 90.3036 247.34 90.3774 247.399 90.7904L252.544 98.104ZM242.218 88.3305H244.891C245.159 88.3305 246.092 87.3734 246.192 87.0507C247.014 84.4008 244.228 83.8365 242.218 84.0891V88.3305Z" fill="#070808"/>
<path d="M91.7416 98.104H87.5925L83.1649 91.4672C82.7223 91.0966 81.9736 91.3418 81.4149 91.281V98.104H77.9111V81.1386H83.5355C84.2123 81.1386 85.9974 81.583 86.6372 81.9094C89.6984 83.4714 90.023 87.8768 87.4892 90.0713C87.2218 90.3036 86.5377 90.3774 86.5967 90.7904L91.7416 98.104ZM81.4149 88.3305H84.0887C84.3561 88.3305 85.2892 87.3734 85.3888 87.0507C86.2113 84.4008 83.4249 83.8365 81.4149 84.0891V88.3305Z" fill="#070808"/>
<path d="M57.9951 98.104L64.169 81.3194C64.5323 80.8805 67.8332 81.2825 68.6059 81.1239L75.1449 98.1022H71.549L69.9631 93.8793L63.1788 93.883L61.591 98.1022H57.9951V98.104ZM68.6907 90.7278L66.57 84.8249L64.4493 90.7278H68.6907Z" fill="#070808"/>
<path d="M25.9749 85.6289C23.0724 88.6882 24.5144 94.7054 28.9549 95.1499C31.4997 95.4043 32.5158 94.5524 34.2732 92.9536L36.9637 95.0558C32.6265 101.06 22.6648 99.1865 21.0218 91.8342C18.8439 82.0883 30.8857 76.7074 36.9711 84.1795L34.2658 86.2762C34.0556 86.3076 32.5748 84.8249 32.1249 84.6036C30.1757 83.641 27.4871 84.0338 25.9749 85.6289Z" fill="#0A0B0B"/>
<path d="M291.822 81.1386V83.9969C291.822 84.0172 291.566 84.2735 291.546 84.2735H285.368V87.9616H290.9V90.9122H285.645C285.624 90.9122 285.368 91.1685 285.368 91.1888V95.1535H291.822V98.104H281.864V81.1386H291.822Z" fill="#0A0B0B"/>
<path d="M234.657 81.1386V83.9969C234.657 84.0172 234.401 84.2735 234.381 84.2735H228.203V87.9616H233.735V90.9122H228.48C228.459 90.9122 228.203 91.1685 228.203 91.1888V95.1535H234.657V98.104H224.699V81.1386H234.657Z" fill="#0A0B0B"/>
<path d="M200.356 81.1386V83.9969C200.356 84.0172 200.1 84.2735 200.08 84.2735H193.902V87.9616H199.434V90.9122H194.179C194.158 90.9122 193.902 91.1685 193.902 91.1888V95.1535H200.356V98.104H190.398V81.1386H200.356Z" fill="#0A0B0B"/>
<path d="M122.722 81.1386V83.9969C122.722 84.0172 122.465 84.2735 122.445 84.2735H116.267V87.9616H121.8V90.9122H116.544C116.524 90.9122 116.267 91.1685 116.267 91.1888V95.1535H122.722V98.104H112.764V81.1386H122.722Z" fill="#0A0B0B"/>
<path d="M162.185 81.1386V83.9969C162.185 84.0172 161.929 84.2735 161.909 84.2735H155.731V87.9616H161.263V90.9122H156.008C155.988 90.9122 155.731 91.1685 155.731 91.1888V95.1535H162.185V98.104H152.228V81.1386H162.185Z" fill="#0A0B0B"/>
<path d="M176.2 81.1386V94.6925C176.2 94.7128 176.456 94.9691 176.477 94.9691H182.654V98.104H172.696V81.1386H176.2Z" fill="#050506"/>
<path d="M276.886 81.1386H273.382V98.104H276.886V81.1386Z" fill="#050506"/>
<path d="M187.634 81.1386L184.775 88.3305H181.917L184.222 81.1386H187.634Z" fill="#0E0F10"/>
<path d="M199.988 76.5285C200.069 76.8512 199.855 76.8973 199.713 77.0836C199.473 77.3971 197.14 79.8478 196.945 79.8478H193.718C194.059 79.444 196.178 76.5285 196.392 76.5285H199.988Z" fill="#0E0F10"/>
<path d="M122.353 76.5285C122.434 76.8512 122.22 76.8973 122.078 77.0836C121.838 77.3971 119.506 79.8478 119.31 79.8478H116.083C116.424 79.444 118.543 76.5285 118.757 76.5285H122.353Z" fill="#0E0F10"/>
<path d="M136.737 94.9692V84.458H140.886C142.192 84.458 144.132 86.1343 144.7 87.2831C146.398 90.726 143.835 94.9692 139.964 94.9692H136.737Z" fill="#FBFBFB"/>
<path d="M242.217 88.3304V84.0891C244.227 83.8346 247.013 84.3989 246.191 87.0506C246.091 87.3733 245.156 88.3304 244.891 88.3304H242.217Z" fill="#FAF9FA"/>
<path d="M81.415 88.3304V84.0891C83.4251 83.8346 86.2114 84.3989 85.389 87.0506C85.2894 87.3733 84.3545 88.3304 84.0889 88.3304H81.415Z" fill="#FAF9FA"/>
<path d="M68.6915 90.7278H64.4502L66.5709 84.825L68.6915 90.7278Z" fill="#FBFBFB"/>
<path d="M29.9356 124.674C29.7585 125.019 29.4746 126.994 29.3787 127.072C29.3289 127.112 28.9803 127.048 28.8291 127.072C29.7051 125.279 25.8307 124.844 25.4121 125.406C25.0599 125.878 24.8017 128.209 24.4034 128.914C25.0322 128.929 25.9542 128.849 26.5001 128.523C27.0459 128.196 27.1178 127.479 27.1713 127.439C27.3004 127.341 27.684 127.566 27.7024 127.711C27.7245 127.885 26.7509 130.924 26.6181 131.038C26.4853 131.152 26.4134 131.147 26.2474 131.127C26.2087 130.756 26.3857 129.95 26.0741 129.733C25.9008 129.611 24.3868 129.587 24.2448 129.677C24.077 129.784 23.1088 133.258 23.3172 133.505C24.3241 133.795 26.0889 133.631 26.9758 133.056C27.4018 132.779 28.4161 131.178 28.8291 131.499L27.9071 134.263H20.3464C20.2081 133.673 20.9826 133.889 21.3146 133.71C21.7055 133.5 24.0917 125.606 23.8354 125.244C23.7414 125.113 22.8046 125.135 22.7437 124.674H29.9356Z" fill="#141415"/>
<path d="M36.943 128.18C37.1532 129.561 35.8181 128.938 35.6521 129.1C35.5987 129.152 35.6945 130.179 35.571 130.586C35.0491 132.294 31.94 132.176 31.597 132.884C31.4477 133.192 31.8091 133.183 31.9659 133.242C33.1626 133.695 35.6484 133.642 35.4825 135.466C35.2354 138.162 28.2335 137.959 28.9047 135.554C29.1758 134.584 30.2472 134.354 30.4113 134.083C30.5662 133.828 29.9835 132.454 31.4108 132.418C31.468 131.91 30.8115 131.892 30.4888 131.407C29.4561 129.86 31.042 128.049 32.626 127.828C34.2101 127.606 35.3737 128.403 36.943 128.182V128.18ZM34.1326 128.591C32.7053 127.164 30.6326 130.553 31.9751 131.582C33.3544 132.639 35.0694 129.528 34.1326 128.591ZM34.3299 135.213C34.234 135.056 31.4458 134.28 31.1563 134.311C30.6566 134.367 29.9872 135.143 30.0075 135.648C30.0849 137.487 35.37 136.915 34.3299 135.213Z" fill="#191A1A"/>
<path d="M30.4891 141.455C30.1904 141.789 29.8492 143.947 29.7497 144.037C29.2057 144.537 29.344 143.048 29.3089 142.927C28.9788 141.787 25.7112 141.785 25.4124 142.187C25.0584 142.665 24.8039 144.987 24.4037 145.695C25.8531 145.815 26.9116 145.549 27.6327 144.221C28.066 144.129 27.9333 144.599 27.8908 144.848C27.7378 145.774 27.2749 147.034 26.8895 147.906C26.3732 147.948 26.7254 147.214 26.5244 146.799C26.2699 146.276 24.3613 146.289 24.1216 146.611C24.0165 146.753 23.1959 149.792 23.1995 150.032C23.2124 150.873 24.3134 150.27 24.2175 151.043H20.3449C20.249 150.48 20.9424 150.692 21.3665 150.31C22.272 149.492 23.1645 144.011 23.8155 142.6C23.8671 142.401 23.8191 142.239 23.6864 142.084C23.312 141.651 22.6131 142.086 22.7422 141.453H30.4873L30.4891 141.455Z" fill="#141415"/>
<path d="M36.9433 107.526L35.8405 111.95C37.8653 110.337 39.951 111.314 39.4826 114.027C39.2336 115.471 37.5444 117.505 36.0747 117.809C35.2006 117.99 33.0873 117.829 33.0615 116.66L35.2707 109.075L35.2873 108.448H34.3634C34.3874 108.297 34.3266 107.936 34.3634 107.897C34.4519 107.801 36.5726 107.62 36.9451 107.528L36.9433 107.526ZM34.3763 117.097C36.7386 118.515 38.9054 114.145 38.0276 112.618C36.5155 109.99 34.0592 115.758 34.3763 117.097Z" fill="#191A1A"/>
<path d="M26.8009 108.078C26.8691 108.67 26.1647 108.391 25.6981 108.727C25.475 108.887 25.333 109.114 25.2316 109.367C25.1117 110.534 22.9671 115.959 23.1312 116.638C23.2953 117.317 26.3159 116.938 27.059 116.173C27.2656 115.961 28.5583 113.553 28.195 115.463C28.0714 116.111 27.6547 117.143 27.2619 117.667H20.1622C20.0903 117.044 20.8077 117.396 21.2632 117.016C21.4642 116.848 21.5564 116.549 21.6725 116.319C22.1538 115.354 23.4668 110.879 23.6217 109.787C23.6678 109.466 23.7674 108.874 23.5867 108.62C23.3414 108.271 22.5983 108.738 22.7439 108.08H26.8009V108.078Z" fill="#141415"/>
<path d="M61.4696 144.592L60.9183 146.803C61.3645 146.467 61.6042 145.813 62.0155 145.413C62.5484 144.894 64.0569 144.03 64.5123 144.959C65.1006 146.158 63.4557 148.942 63.4999 150.309C63.6493 150.231 65.0324 148.817 64.7871 149.659C64.5898 150.329 62.8453 151.859 62.2902 151.057C61.7352 150.255 63.192 147.052 63.3082 145.964C63.3487 145.588 63.144 145.634 62.8582 145.7C62.0063 145.899 60.7136 148.085 60.3318 148.891C60.1419 149.289 59.6993 150.961 59.6034 151.022C59.3969 151.155 58.6519 150.985 58.3366 151.044C58.119 150.84 59.8247 146.502 59.8044 145.774C59.7805 144.99 58.9285 145.56 58.8916 145.514C58.9119 145.363 58.8474 145.02 58.8916 144.966C58.9728 144.865 61.3682 144.502 61.4715 144.594L61.4696 144.592Z" fill="#191A1A"/>
<path d="M41.7375 144.592C41.9551 144.793 40.0833 149.545 40.3544 150.307L41.5531 149.387C42.1229 150.01 38.5601 153.036 38.881 149.755C37.1513 152.166 34.3446 151.581 35.3367 148.24C35.794 146.702 37.6344 144.338 39.4195 144.596C39.733 144.642 40.004 144.909 40.2014 144.926C40.4374 144.946 41.2101 144.317 41.7356 144.592H41.7375ZM38.7353 145.175C37.4721 145.551 35.4732 149.958 37.0591 150.27C38.0254 150.46 39.5523 148.177 39.768 147.321C40.0004 146.399 40.1239 144.76 38.7353 145.175Z" fill="#191A1A"/>
<path d="M43.3976 127.811C43.6152 128.012 41.7435 132.764 42.0146 133.526L43.2132 132.606C43.783 133.229 40.2203 136.255 40.5412 132.974C38.8114 135.385 36.0048 134.8 36.9969 131.459C37.4542 129.921 39.2946 127.557 41.0796 127.815C41.3931 127.861 41.6642 128.128 41.8615 128.145C42.0976 128.165 42.8702 127.536 43.3958 127.811H43.3976ZM40.3955 128.394C39.1323 128.77 37.1333 133.177 38.7192 133.489C39.6855 133.679 41.2124 131.396 41.4282 130.54C41.6605 129.618 41.7841 127.979 40.3955 128.394Z" fill="#191A1A"/>
<path d="M57.6168 115.104C57.2148 115.581 57.899 116.653 58.5094 116.848C59.898 117.292 60.3332 116.162 61.1962 115.826C61.6664 115.642 61.4765 116.269 61.1962 116.564C60.2428 117.564 58.0207 118.451 56.8516 117.399C54.8065 115.561 57.3034 111.653 59.5771 111.259C63.2025 110.63 62.487 113.722 59.6674 114.667C59.3005 114.79 57.6851 115.024 57.6168 115.104ZM60.7057 111.79C58.9722 111.493 58.0668 113.119 57.5966 114.53C58.9667 114.414 61.2792 113.481 60.7057 111.79Z" fill="#1C1C1C"/>
<path d="M48.028 148.481C47.626 148.959 48.3101 150.03 48.9205 150.226C50.3091 150.67 50.7443 149.54 51.6073 149.204C52.0775 149.02 51.8876 149.647 51.6073 149.942C50.6539 150.941 48.4318 151.828 47.2627 150.777C45.2176 148.939 47.7145 145.031 49.9882 144.636C53.6136 144.007 52.8981 147.1 50.0786 148.044C49.7116 148.168 48.0962 148.402 48.028 148.481ZM51.1168 145.167C49.3834 144.871 48.4779 146.497 48.0077 147.908C49.3778 147.792 51.6903 146.858 51.1168 145.167Z" fill="#1C1C1C"/>
<path d="M75.1354 148.481C74.7334 148.959 75.4175 150.03 76.0279 150.226C77.4165 150.67 77.8517 149.54 78.7147 149.204C79.185 149.02 78.995 149.647 78.7147 149.942C77.7613 150.941 75.5392 151.828 74.3701 150.777C72.325 148.939 74.8219 145.031 77.0956 144.636C80.7211 144.007 80.0056 147.1 77.186 148.044C76.819 148.168 75.2036 148.402 75.1354 148.481ZM78.2242 145.167C76.4908 144.871 75.5854 146.497 75.1151 147.908C76.4853 147.792 78.7977 146.858 78.2242 145.167Z" fill="#1C1C1C"/>
<path d="M41.7584 115.104C41.3564 115.581 42.0406 116.653 42.651 116.848C44.0396 117.292 44.4748 116.162 45.3378 115.826C45.808 115.642 45.6181 116.269 45.3378 116.564C44.3844 117.564 42.1623 118.451 40.9932 117.399C38.9481 115.561 41.445 111.653 43.7187 111.259C47.3441 110.63 46.6286 113.722 43.809 114.667C43.4421 114.79 41.8267 115.024 41.7584 115.104ZM44.8473 111.79C43.1138 111.493 42.2084 113.119 41.7382 114.53C43.1083 114.414 45.4208 113.481 44.8473 111.79Z" fill="#1C1C1C"/>
<path d="M57.6168 131.7C57.2148 132.178 57.899 133.249 58.5094 133.445C59.898 133.889 60.3332 132.759 61.1962 132.423C61.6664 132.239 61.4765 132.866 61.1962 133.161C60.2428 134.16 58.0207 135.047 56.8516 133.996C54.8065 132.157 57.3034 128.25 59.5771 127.855C63.2025 127.226 62.487 130.319 59.6674 131.263C59.3005 131.387 57.6851 131.621 57.6168 131.7ZM60.7057 128.386C58.9722 128.089 58.0668 129.716 57.5966 131.127C58.9667 131.01 61.2792 130.077 60.7057 128.386Z" fill="#1C1C1C"/>
<path d="M45.6118 133.526C45.8423 133.555 46.9432 131.929 47.0852 132.7C47.1903 133.268 44.651 135.482 44.2324 133.919L46.5338 125.045H45.6099C45.6339 124.894 45.5731 124.531 45.6099 124.492C45.6892 124.407 47.7933 124.101 47.9076 124.125C47.974 124.138 48.2635 124.381 48.1197 124.503L45.6136 133.526H45.6118Z" fill="#191A1A"/>
<path d="M49.4827 111.214L48.9313 113.425C49.4052 113.038 49.6579 112.378 50.1207 111.943C51.9132 110.254 52.6803 111.983 51.7933 112.876C51.0243 113.649 50.9155 112.304 50.4029 112.592C49.6376 113.02 48.3984 115.281 48.0498 116.14C47.5704 117.328 48.107 117.919 46.3496 117.665C46.4123 116.863 48.1531 112.28 47.8249 111.95C47.6736 111.995 46.4768 112.02 46.9028 111.583C47.0135 111.471 49.372 111.113 49.4827 111.213V111.214Z" fill="#191A1A"/>
<path d="M55.9368 144.592L55.3854 146.803C55.8593 146.416 56.112 145.756 56.5748 145.32C58.3673 143.631 59.1344 145.361 58.2474 146.254C57.4784 147.026 57.3696 145.682 56.857 145.97C56.0917 146.397 54.8525 148.658 54.5039 149.518C54.0245 150.705 54.5611 151.297 52.8037 151.043C52.8664 150.24 54.6072 145.658 54.279 145.328C54.1277 145.372 52.931 145.398 53.3569 144.961C53.4676 144.848 55.8261 144.491 55.9368 144.59V144.592Z" fill="#191A1A"/>
<path d="M32.7014 144.592L32.1501 146.803C32.624 146.416 32.8766 145.756 33.3395 145.32C35.1319 143.631 35.899 145.361 35.012 146.254C34.2431 147.026 34.1343 145.682 33.6216 145.97C32.8563 146.397 31.6171 148.658 31.2686 149.518C30.7891 150.705 31.3258 151.297 29.5684 151.043C29.6311 150.24 31.3719 145.658 31.0436 145.328C30.8924 145.372 29.6956 145.398 30.1216 144.961C30.2322 144.848 32.5908 144.491 32.7014 144.59V144.592Z" fill="#191A1A"/>
<path d="M55.0154 111.395L56.12 111.67C55.8526 112.17 55.0024 111.775 54.8088 112.055C54.6742 112.253 53.5549 116.302 53.5346 116.649C53.4774 117.669 54.4787 116.027 54.5543 116.002C55.7585 115.572 54.287 117.447 53.6784 117.711C53.3059 117.871 52.69 117.923 52.3581 117.685C51.7366 117.239 53.3557 112.87 53.5438 112.044L52.4355 111.858C52.7693 111.19 53.5954 111.224 54.1855 110.658C54.4529 110.401 54.9527 109.407 55.1112 109.369C56.0259 109.145 54.89 111.279 55.0172 111.395H55.0154Z" fill="#191A1A"/>
<path d="M45.4255 144.773L46.5301 145.047C46.2627 145.547 45.4126 145.153 45.219 145.433C45.0844 145.63 43.965 149.68 43.9447 150.026C43.8876 151.046 44.8889 149.405 44.9645 149.379C46.1687 148.95 44.6971 150.825 44.0886 151.089C43.7161 151.249 43.1001 151.301 42.7682 151.063C42.1468 150.617 43.7659 146.248 43.954 145.422L42.8457 145.236C43.1794 144.568 44.0056 144.601 44.5957 144.035C44.8631 143.779 45.3628 142.785 45.5214 142.746C46.4361 142.523 45.3001 144.657 45.4274 144.773H45.4255Z" fill="#191A1A"/>
<path d="M72.7185 144.773L73.8231 145.047C73.5557 145.547 72.7056 145.153 72.5119 145.433C72.3773 145.63 71.258 149.68 71.2377 150.026C71.1805 151.046 72.1819 149.405 72.2575 149.379C73.4616 148.95 71.9901 150.825 71.3815 151.089C71.009 151.249 70.3931 151.301 70.0612 151.063C69.4397 150.617 71.0588 146.248 71.2469 145.422L70.1386 145.236C70.4724 144.568 71.2986 144.601 71.8887 144.035C72.156 143.779 72.6558 142.785 72.8144 142.746C73.729 142.523 72.5931 144.657 72.7203 144.773H72.7185Z" fill="#191A1A"/>
<path d="M55.0154 127.992L56.12 128.267C55.8526 128.766 55.0024 128.372 54.8088 128.652C54.6742 128.849 53.5549 132.899 53.5346 133.245C53.4774 134.265 54.4787 132.624 54.5543 132.598C55.7585 132.169 54.287 134.044 53.6784 134.308C53.3059 134.468 52.69 134.52 52.3581 134.282C51.7366 133.836 53.3557 129.467 53.5438 128.641L52.4355 128.455C52.7693 127.787 53.5954 127.82 54.1855 127.254C54.4529 126.998 54.9527 126.004 55.1112 125.965C56.0259 125.742 54.89 127.876 55.0172 127.992H55.0154Z" fill="#191A1A"/>
<path d="M31.9643 111.214L30.4872 116.835C30.9556 117.221 31.376 116.05 31.5033 116.003C32.7001 115.576 31.2488 117.455 30.6273 117.711C29.4914 118.179 29.082 117.829 29.2129 116.669C29.3051 115.849 30.5702 112.645 30.4724 112.242C30.3581 111.777 28.881 112.109 29.3844 111.585C29.4748 111.491 31.8702 111.124 31.9643 111.214Z" fill="#191A1A"/>
<path d="M68.6615 144.592L67.1844 150.213C67.6528 150.598 68.0733 149.427 68.2005 149.381C69.3973 148.953 67.946 150.832 67.3246 151.089C66.1886 151.557 65.7793 151.207 65.9102 150.047C66.0024 149.226 67.2674 146.023 67.1697 145.619C67.0554 145.154 65.5783 145.486 66.0817 144.963C66.1721 144.869 68.5675 144.502 68.6615 144.592Z" fill="#191A1A"/>
<path d="M51.142 127.811L49.6649 133.432C50.1333 133.817 50.5537 132.646 50.681 132.6C51.8778 132.172 50.4265 134.051 49.8051 134.308C48.6691 134.776 48.2597 134.426 48.3907 133.266C48.4829 132.445 49.7479 129.242 49.6502 128.838C49.5358 128.373 48.0587 128.705 48.5622 128.182C48.6525 128.088 51.048 127.721 51.142 127.811Z" fill="#191A1A"/>
<path d="M61.8385 124.307C61.431 124.982 60.8058 125.759 60.2729 126.336C60.0534 126.574 59.81 126.931 59.4412 126.885C59.3195 126.741 59.9115 124.411 60.011 124.324C60.1586 124.195 61.4863 124.374 61.8367 124.307H61.8385Z" fill="#1C1C1C"/>
<path d="M79.3561 141.088C78.9485 141.763 78.3234 142.54 77.7905 143.117C77.571 143.355 77.3276 143.712 76.9588 143.666C76.8371 143.522 77.429 141.192 77.5286 141.105C77.6761 140.976 79.0039 141.155 79.3542 141.088H79.3561Z" fill="#1C1C1C"/>
<path d="M61.8385 107.711C61.431 108.386 60.8058 109.162 60.2729 109.739C60.0534 109.977 59.81 110.335 59.4412 110.289C59.3195 110.145 59.9115 107.814 60.011 107.727C60.1586 107.598 61.4863 107.777 61.8367 107.711H61.8385Z" fill="#1C1C1C"/>
<path d="M27.9054 121.541C27.9903 121.862 27.7708 121.91 27.6307 122.094C27.4186 122.375 25.9231 124.114 25.7866 124.119C25.5635 124.127 25.5487 123.787 25.5911 123.562C25.8899 121.945 26.0688 121.233 27.9073 121.541H27.9054Z" fill="#191A1A"/>
<path d="M68.2386 141.855C69.6622 141.433 69.8356 143.506 68.3953 143.305C67.5784 143.191 67.5028 142.075 68.2386 141.855Z" fill="#1C1C1C"/>
<path d="M50.72 125.074C52.1437 124.652 52.317 126.725 50.8768 126.524C50.0599 126.409 49.9843 125.294 50.72 125.074Z" fill="#1C1C1C"/>
<path d="M31.5413 108.478C32.9649 108.056 33.1383 110.128 31.6981 109.927C30.8812 109.813 30.8055 108.697 31.5413 108.478Z" fill="#1C1C1C"/>
<path d="M34.3299 135.213C35.3699 136.917 30.0867 137.489 30.0074 135.648C29.9852 135.143 30.6565 134.367 31.1562 134.311C31.4457 134.28 34.234 135.054 34.3299 135.213Z" fill="#FAF9FA"/>
<path d="M34.1326 128.591C35.0694 129.528 33.3544 132.639 31.975 131.582C30.6325 130.553 32.7034 127.164 34.1326 128.591Z" fill="#FAF9FA"/>
<path d="M34.3756 117.097C34.0584 115.758 36.5147 109.99 38.0268 112.618C38.9046 114.145 36.7378 118.515 34.3756 117.097Z" fill="#FBFBFB"/>
<path d="M38.7356 145.175C40.1242 144.76 40.0006 146.399 39.7683 147.321C39.5525 148.177 38.0256 150.46 37.0593 150.27C35.4734 149.958 37.4743 145.551 38.7356 145.175Z" fill="#FBFBFB"/>
<path d="M40.3957 128.394C41.7843 127.979 41.6608 129.618 41.4284 130.54C41.2127 131.396 39.6858 133.679 38.7195 133.489C37.1336 133.177 39.1344 128.77 40.3957 128.394Z" fill="#FBFBFB"/>
<path d="M60.7058 111.79C61.2793 113.479 58.9668 114.414 57.5967 114.53C58.0669 113.119 58.9723 111.495 60.7058 111.79Z" fill="#F6F5F6"/>
<path d="M51.1159 145.167C51.6894 146.857 49.377 147.792 48.0068 147.908C48.4771 146.497 49.3825 144.872 51.1159 145.167Z" fill="#F6F5F6"/>
<path d="M78.2243 145.167C78.7978 146.857 76.4854 147.792 75.1152 147.908C75.5855 146.497 76.4909 144.872 78.2243 145.167Z" fill="#F6F5F6"/>
<path d="M44.8474 111.79C45.4209 113.479 43.1084 114.414 41.7383 114.53C42.2085 113.119 43.114 111.495 44.8474 111.79Z" fill="#F6F5F6"/>
<path d="M60.7058 128.386C61.2793 130.076 58.9668 131.011 57.5967 131.127C58.0669 129.716 58.9723 128.091 60.7058 128.386Z" fill="#F6F5F6"/>
</svg>
