<svg width="237" height="172" viewBox="0 0 237 172" fill="none" xmlns="http://www.w3.org/2000/svg">
<rect width="237" height="172" fill="white"/>
<rect width="55" height="20" transform="translate(20 20)" fill="white"/>
<path fill-rule="evenodd" clip-rule="evenodd" d="M42.7378 37.6409C42.9525 37.4262 43.1692 37.1957 43.3846 36.9644C43.7695 36.5066 44.1906 36.0767 44.6404 35.6779C44.7706 35.5598 44.908 35.4501 45.052 35.3493C45.0709 35.3304 45.0804 35.302 45.0898 35.2737C45.0992 35.2453 45.1087 35.217 45.1276 35.1981C45.0332 35.2359 44.9576 35.2926 44.882 35.3492C44.8064 35.4059 44.7308 35.4626 44.6363 35.5004C44.5985 35.5004 44.5607 35.4627 44.5985 35.4249L45.0023 35.122C44.994 35.1225 44.9852 35.1225 44.9764 35.1225C44.9387 35.1225 44.9387 35.0848 44.9387 35.0469C44.4514 34.972 44.0758 35.3058 43.7378 35.6061L43.7292 35.6138C43.6788 35.6391 43.6284 35.6138 43.5892 35.5942C43.5697 35.5844 43.5529 35.576 43.5403 35.576C43.2432 35.6751 42.9876 35.8572 42.7301 36.0407L42.73 36.0407C42.4961 36.2074 42.2606 36.3752 41.9909 36.4831V36.4075C41.8969 36.4388 41.804 36.4807 41.7109 36.5227C41.5793 36.5821 41.4472 36.6417 41.3106 36.672C41.0548 36.7288 40.8204 36.7216 40.5913 36.7145H40.5912H40.5911H40.5911H40.591H40.5909H40.5909C40.5154 36.7121 40.4405 36.7098 40.3656 36.7098C39.9035 36.766 39.4447 36.8477 38.9915 36.9545L38.9717 36.9594L38.9627 36.9616L38.952 36.9644C38.7068 37.0305 38.4704 37.1257 38.2478 37.248C38.239 37.2527 38.2304 37.2578 38.222 37.263C38.2032 37.2866 38.1847 37.3092 38.1673 37.3284C38.096 37.4195 38.008 37.4962 37.9081 37.5545C37.7438 37.6381 37.6006 37.7657 37.4584 37.8923C37.3997 37.9446 37.3412 37.9968 37.2814 38.0456C37.2636 38.058 37.2425 38.0647 37.2208 38.0648C37.1585 38.1246 37.0965 38.1846 37.0344 38.2446L37.0344 38.2446L37.0344 38.2446L37.0344 38.2447L37.0343 38.2447L37.0343 38.2447L37.0343 38.2447L37.0343 38.2448C36.8945 38.3799 36.7547 38.5152 36.6121 38.6474C36.5761 38.6641 36.5358 38.6689 36.4968 38.6612C36.5072 38.6457 36.5146 38.6338 36.5218 38.6218C36.5536 38.5684 36.5859 38.5153 36.6186 38.4624C36.6552 38.4033 36.6925 38.3448 36.7307 38.2869C36.7822 38.2087 36.8352 38.1314 36.8916 38.0568C36.9047 38.0426 36.9041 38.0206 36.8902 38.0072C36.876 37.9937 36.857 37.9866 36.8374 37.9874C37.0307 37.8066 37.2435 37.6478 37.4718 37.514C37.4466 37.5163 37.4099 37.4961 37.429 37.4695C37.4431 37.4499 37.4554 37.4296 37.4676 37.4092C37.4763 37.3949 37.4849 37.3806 37.4942 37.3665C37.4985 37.3553 37.5024 37.344 37.5063 37.3328C37.5004 37.3263 37.4945 37.3203 37.4886 37.3142L37.4777 37.303C37.4155 37.3399 37.3561 37.3814 37.3001 37.4271C37.2727 37.4518 37.2471 37.4843 37.2209 37.5176L37.2209 37.5176C37.1607 37.5942 37.0973 37.6748 37.0017 37.6737C36.9823 37.6734 36.963 37.6706 36.9444 37.6655C36.9304 37.6636 36.9169 37.659 36.9047 37.652L36.9096 37.6433L36.9152 37.6327L36.9207 37.6229L36.9387 37.5904L36.9484 37.5729L36.9567 37.5578L36.9712 37.5316C36.9802 37.5156 36.9889 37.4999 36.998 37.4837L37.0056 37.4704L37.0097 37.4634L37.0178 37.4495C37.0291 37.43 37.0404 37.4107 37.0518 37.3913L37.0521 37.3907L37.0666 37.3661L37.0899 37.326L37.1065 37.2975L37.1067 37.2973L37.1068 37.297L37.1069 37.2968L37.107 37.2968L37.1184 37.2771L37.1301 37.2573C37.1379 37.2449 37.1391 37.2296 37.1335 37.2161C37.1278 37.2027 37.116 37.1928 37.1017 37.1897C37.172 37.098 37.26 37.0213 37.3605 36.9642H37.3491C37.4487 36.914 37.5483 36.8565 37.6479 36.7989L37.648 36.7988L37.6483 36.7987C37.6932 36.7727 37.7382 36.7467 37.7831 36.7214C37.7971 36.7095 37.8107 36.6975 37.8244 36.6856L37.8456 36.6674C37.6329 36.7393 37.4306 36.8391 37.244 36.9641C37.2216 36.9729 37.2003 36.9845 37.1807 36.9986C37.1452 37.0063 37.1085 36.9928 37.0864 36.9641C37.0803 36.9561 37.0771 36.9463 37.0773 36.9363C37.0994 36.8923 37.1471 36.861 37.198 36.8277C37.2345 36.8038 37.2726 36.7788 37.3042 36.7473C37.3418 36.7473 37.3796 36.7473 37.3796 36.7851C38.1301 36.1988 39.055 36.0637 39.9831 35.9282C40.5507 35.8454 41.1196 35.7623 41.6503 35.5757L41.9904 35.349C42.0876 35.3101 42.1748 35.2412 42.2674 35.1681C42.3549 35.099 42.4471 35.0261 42.5572 34.971C42.8626 34.7614 43.0889 34.4553 43.1997 34.1019C43.1957 34.0732 43.1825 34.0466 43.162 34.0262C42.687 34.5383 42.1238 34.9608 41.4991 35.2734C40.9268 35.5732 40.3152 35.6175 39.7068 35.6615C39.4715 35.6785 39.2366 35.6955 39.0047 35.7273C39.0426 35.6518 39.1182 35.6518 39.1937 35.6518C39.1937 35.562 39.241 35.5196 39.2982 35.4684C39.3133 35.4549 39.3291 35.4408 39.3449 35.425H39.4584C39.4772 35.425 39.4866 35.4061 39.496 35.3872C39.5055 35.3683 39.5149 35.3494 39.5338 35.3494C39.6094 35.3494 39.7229 35.3116 39.6851 35.3116C39.6275 35.2348 39.5407 35.2652 39.4444 35.299C39.3511 35.3316 39.249 35.3674 39.156 35.3116C39.1925 35.2751 39.2025 35.2297 39.2117 35.1883C39.2214 35.1441 39.2302 35.1044 39.2693 35.0849H39.4205C39.4284 35.0276 39.455 34.9744 39.4961 34.9337C39.8328 34.7316 40.1562 34.5562 40.4742 34.3838C40.6916 34.2659 40.9065 34.1494 41.1215 34.0266C41.0775 34.0266 41.0393 34.0436 41.0023 34.0601C40.9438 34.0862 40.8886 34.1108 40.8192 34.0645C40.857 34.0645 40.857 34.0361 40.857 34.0078C40.857 33.9794 40.857 33.951 40.8948 33.951C41.1327 33.8862 41.3458 33.7842 41.5625 33.6804C41.7245 33.6029 41.8885 33.5245 42.0663 33.4598C42.0145 33.4598 41.967 33.4732 41.921 33.4861C41.8329 33.5109 41.7499 33.5343 41.6506 33.4598C41.6757 33.4472 41.6967 33.4304 41.7177 33.4136C41.7597 33.38 41.8017 33.3464 41.8773 33.3464V33.233C41.8773 33.1952 41.9152 33.1952 41.953 33.1952C41.9243 33.1912 41.8977 33.178 41.8773 33.1574C41.8969 33.1184 41.9366 33.1096 41.9808 33.0998C42.0222 33.0906 42.0676 33.0806 42.1041 33.0441C42.0663 33.0441 41.9907 33.0441 41.9907 33.0063C42.1041 32.8551 42.293 32.8172 42.4821 32.7795C42.4631 32.7417 42.4253 32.7417 42.3922 32.7417C42.3592 32.7417 42.3308 32.7417 42.3308 32.7039C42.3308 32.6661 42.3686 32.6661 42.4064 32.6661H42.3308C42.2722 32.6368 42.2818 32.5848 42.289 32.5453L42.289 32.5453C42.2911 32.5338 42.293 32.5234 42.293 32.515C42.4442 32.3386 42.4946 32.1286 42.5449 31.9187C42.5701 31.8137 42.5953 31.7087 42.6331 31.6079C42.5953 31.6079 42.5575 31.6079 42.5575 31.5701C42.1907 31.9737 41.61 32.1279 41.0579 32.2746L41.0081 32.2878H40.8192C40.6098 32.37 40.3749 32.3562 40.1766 32.25C40.0851 32.2042 40.0213 32.1446 39.9517 32.0796C39.9063 32.0371 39.8584 31.9924 39.7988 31.9476C39.5032 31.7589 39.186 31.6065 38.8539 31.4938C37.9155 31.187 36.9307 31.0464 35.9439 31.0782C36.2155 30.93 36.5055 30.8704 36.7989 30.8101C36.9546 30.7781 37.1113 30.7459 37.2667 30.7002C37.3606 30.6726 37.4538 30.6441 37.5464 30.6158C38.0876 30.4505 38.6132 30.29 39.194 30.3222C39.1172 30.2966 39.023 30.3057 38.9349 30.3143C38.8931 30.3183 38.8526 30.3222 38.8161 30.3222C38.3905 30.2918 37.9648 30.3837 37.5192 30.4799C37.411 30.5033 37.3016 30.5269 37.1907 30.5491C37.0019 30.5868 36.8226 30.6435 36.6432 30.7001C36.4636 30.7568 36.284 30.8135 36.0948 30.8513C36.0077 30.8804 35.9373 30.9317 35.8686 30.9818C35.7586 31.0621 35.653 31.1392 35.49 31.1158V31.0025C35.868 30.5486 36.3215 30.0955 36.9262 30.0577C37.5011 29.9619 38.0491 30.0281 38.6157 30.0965L38.616 30.0965C38.7197 30.109 38.824 30.1216 38.9293 30.1333C39.4138 30.1848 39.8936 30.2732 40.3647 30.3978C40.4686 30.3978 40.5268 30.4891 40.5832 30.5776C40.6295 30.6502 40.6746 30.721 40.7428 30.738C40.8334 30.7682 40.9242 30.7743 41.0149 30.7803C41.151 30.7894 41.2871 30.7984 41.4229 30.8891C41.4229 30.8639 41.4187 30.8387 41.4145 30.8136C41.4061 30.7632 41.3977 30.7128 41.4229 30.6624C41.5082 30.577 41.6056 30.6001 41.7014 30.6228C41.7754 30.6403 41.8485 30.6575 41.9143 30.6246C42.1194 30.4964 41.9244 30.2986 41.7306 30.102C41.6388 30.0089 41.5472 29.916 41.4986 29.8309C41.5026 29.8023 41.5158 29.7757 41.5363 29.7553C41.6269 29.8346 41.7107 29.9173 41.7938 29.9993C41.9881 30.1909 42.1787 30.3788 42.4433 30.5112C42.6323 30.5867 43.0858 30.7002 43.0102 30.4735C42.8778 30.182 42.6524 29.9277 42.4254 29.6715C42.3285 29.5622 42.2314 29.4526 42.141 29.3396V29.189C42.0857 29.189 42.0709 29.1687 42.0521 29.1431C42.0452 29.1337 42.0378 29.1235 42.0277 29.1134V28.9623C41.9326 28.9148 41.9123 28.8374 41.8915 28.7583C41.8792 28.7116 41.8668 28.6643 41.8387 28.6222C41.7755 28.5169 41.771 28.3882 41.7663 28.2556C41.7626 28.1501 41.7588 28.0422 41.7253 27.9418C41.6571 27.7323 41.6066 27.5174 41.574 27.2994C41.5296 27.0473 41.4794 26.8069 41.4303 26.5713L41.4302 26.5713L41.4302 26.5712L41.4302 26.5712L41.4302 26.5712C41.3541 26.2062 41.2803 25.8528 41.234 25.4854C41.1758 24.9327 41.4537 24.4693 41.7399 23.992C41.8254 23.8495 41.9117 23.7057 41.9899 23.558C42.2544 23.1041 42.5567 22.6509 43.048 22.3486C43.1612 21.896 43.4622 21.5192 43.7632 21.1424L43.7657 21.1393C44.0675 20.7704 44.569 20.5457 44.9323 20.3833C45.26 20.2378 45.5952 20.1098 45.9365 20H20V39.9994H38.3682C38.8695 39.6385 39.3703 39.4096 39.9676 39.1366C40.2277 39.0177 40.506 38.8905 40.8106 38.7404C40.8691 38.7116 40.9368 38.6789 41.0112 38.6428L41.0119 38.6425L41.0129 38.642L41.0133 38.6418C41.5439 38.385 42.416 37.9629 42.7378 37.6409ZM36.7372 34.8958C36.7637 34.7632 36.9017 34.7237 37.0341 34.6857C37.0905 34.6696 37.1458 34.6538 37.191 34.6312L37.2091 34.6219L37.2295 34.611L37.2296 34.6109C37.3017 34.5723 37.392 34.5239 37.4556 34.5556C37.4984 34.6198 37.5533 34.6355 37.6066 34.6508C37.6474 34.6625 37.6874 34.674 37.7202 34.7068C37.5837 34.8431 37.42 34.8565 37.2537 34.8701C37.1433 34.8792 37.0317 34.8883 36.9262 34.9336C36.9078 34.9336 36.885 34.9358 36.8615 34.9381C36.7883 34.9452 36.7086 34.953 36.7372 34.8958ZM32.3154 32.0991C31.976 32.7794 31.5709 33.4249 31.1061 34.0265C31.11 34.0552 31.1233 34.0818 31.1439 34.1022C32.051 33.0817 32.8824 32.2125 34.0535 31.4944C34.0825 31.48 34.0726 31.4932 34.0579 31.5129C34.0343 31.5447 33.9981 31.5933 34.0913 31.57C34.4841 31.4794 34.6595 31.1472 34.8299 30.8245C34.8726 30.7435 34.915 30.6632 34.9605 30.5874C35.1362 30.3019 35.3885 30.1186 35.6431 29.9335C35.8267 29.8 36.0116 29.6656 36.1699 29.4915C36.175 29.533 36.1611 29.5747 36.1321 29.6048C36.1623 29.6339 36.204 29.6478 36.2455 29.6426C36.3114 29.5933 36.3843 29.5726 36.455 29.5525C36.547 29.5264 36.6353 29.5013 36.6994 29.4159C36.386 29.2904 36.0389 29.277 35.7167 29.378C34.923 29.756 34.2429 30.3607 33.6003 31.041C33.2146 31.4494 32.8067 31.8346 32.3154 32.0991ZM34.1672 31.759C34.1375 31.8265 34.0836 31.8804 34.0161 31.9102C33.9783 31.9102 33.9405 31.9102 33.9405 31.8724C33.9744 31.7137 34.0892 31.5845 34.2429 31.5322C34.2807 31.5321 34.2807 31.57 34.2807 31.6078C34.2613 31.6467 34.2408 31.6677 34.2208 31.6881C34.202 31.7074 34.1836 31.7262 34.1672 31.759ZM35.9925 37.4389C36.023 37.4109 35.9899 37.39 35.9426 37.3804C35.9814 37.3509 36.0131 37.3133 36.0356 37.2701C36.0665 37.1959 35.8667 37.2137 35.8356 37.2353C35.8051 37.2596 35.7778 37.2878 35.7544 37.319C35.705 37.3722 35.6525 37.4224 35.5973 37.4695C35.5558 37.5075 35.5155 37.5466 35.4752 37.5856C35.4235 37.6358 35.3718 37.6859 35.3179 37.7334C35.2543 37.7893 35.4621 37.8186 35.5069 37.7788C35.5552 37.736 35.6017 37.6914 35.6479 37.6466C35.6675 37.6458 35.687 37.6432 35.7061 37.6387C35.8147 37.5933 35.9124 37.5252 35.9925 37.4389ZM35.3491 36.9644L35.3046 36.9958C35.1779 37.0852 35.051 37.1747 34.9176 37.2522C34.7978 37.3217 34.6739 37.3788 34.5496 37.4362C34.5061 37.4562 34.4625 37.4763 34.4191 37.497C34.4179 37.4937 34.4162 37.4906 34.4142 37.4878C34.3998 37.4676 34.3728 37.4611 34.3509 37.4726C34.2119 37.5518 34.0841 37.6492 33.9709 37.7622C33.9533 37.7789 33.9357 37.7959 33.9181 37.8131C33.8942 37.8366 33.8763 37.8544 33.8584 37.8724L33.8521 37.8787C33.8515 37.8793 33.8512 37.88 33.8509 37.8806L33.8498 37.8822C33.8229 37.9089 33.7971 37.9359 33.7675 37.9706C33.7539 37.9909 33.7368 38.0088 33.7171 38.0233C33.6936 38.0389 33.6286 38.0386 33.6346 37.995V37.9876L33.6319 37.9891C33.6105 38.0003 33.5891 38.0116 33.5675 38.022C33.5479 38.0312 33.5304 38.0415 33.5126 38.052L33.5085 38.0544C33.5002 38.0512 33.4913 38.0499 33.4824 38.0506C33.4726 38.0507 33.4631 38.0539 33.4552 38.0597C33.409 38.0959 33.3633 38.1345 33.3187 38.1749C33.2393 38.2464 33.1659 38.3244 33.0994 38.408L33.0886 38.422L33.0773 38.4366C33.0737 38.4416 33.0692 38.4472 33.0653 38.4523L33.0616 38.4569L33.056 38.4649L33.0451 38.4809L33.036 38.4945C33.026 38.5049 33.0151 38.5101 33.0035 38.5117L32.9972 38.5025C32.9941 38.4981 32.991 38.4937 32.9883 38.4891L32.982 38.4784L32.9777 38.4708C32.9662 38.4513 32.9555 38.4311 32.9454 38.4103L32.9443 38.408L32.94 38.3992L32.9354 38.3893C32.9763 38.3453 33.0158 38.2998 33.054 38.2532L33.0616 38.2441C33.0749 38.2279 33.0879 38.2118 33.1009 38.1956L33.1642 38.1147C33.1688 38.1085 33.1733 38.1027 33.1779 38.0969L33.1873 38.0848C33.2288 38.0306 33.2685 37.978 33.3055 37.9252L33.3083 37.9211L33.3149 37.9113C33.3181 37.9067 33.3212 37.902 33.3246 37.8973C33.3427 37.8706 33.3601 37.8436 33.3764 37.8161C33.3911 37.7914 33.4049 37.7663 33.4177 37.7407L33.4208 37.7351L33.4247 37.7273C33.4258 37.7251 33.4268 37.7228 33.4277 37.7205C33.4288 37.7181 33.4298 37.7156 33.4309 37.7132C33.4442 37.6847 33.4562 37.6554 33.4668 37.6251L33.4702 37.6153L33.4723 37.6091C33.4745 37.603 33.4767 37.5968 33.4786 37.5905C33.4829 37.5769 33.4868 37.5629 33.4905 37.5488C33.4912 37.5457 33.4917 37.5426 33.4926 37.5396L33.4959 37.5264L33.4959 37.5263C33.4994 37.5125 33.5029 37.4987 33.5057 37.4842C33.5073 37.4754 33.5057 37.4664 33.5011 37.4588C33.5437 37.3857 33.5939 37.3173 33.6509 37.2547C33.6482 37.2564 33.6453 37.258 33.6424 37.2595L33.6424 37.2595C33.6394 37.2611 33.6364 37.2628 33.6336 37.2646C33.6035 37.284 33.579 37.3076 33.5545 37.3313C33.5351 37.3502 33.5156 37.369 33.4933 37.3857C33.4521 37.4164 33.3763 37.3655 33.425 37.329C33.4552 37.3049 33.4839 37.2789 33.5109 37.2511C33.5747 37.1765 33.639 37.1124 33.7078 37.0532L33.724 37.0415C33.7608 37.0148 33.7934 36.9911 33.8239 36.9645C33.8277 36.9612 33.8312 36.9577 33.835 36.9543L33.8404 36.9494C33.8662 36.9157 33.8944 36.8839 33.9249 36.8544L33.9265 36.8528C33.9272 36.852 33.9279 36.8513 33.9288 36.8507C34.1499 36.6373 34.4634 36.5601 34.7827 36.4816C34.9857 36.4316 35.1911 36.381 35.3765 36.2945C35.4817 36.2524 35.5987 36.2689 35.7144 36.2853C35.8063 36.2984 35.8974 36.3113 35.981 36.2945C36.0996 36.2829 36.2187 36.3095 36.3212 36.3702C36.0593 36.5128 35.8125 36.6697 35.5712 36.8232C35.4999 36.8686 35.4292 36.9136 35.3586 36.9578L35.3491 36.9644ZM35.9812 34.2533H36.2836C36.2623 34.296 36.2048 34.3025 36.1656 34.307C36.1354 34.3104 36.1161 34.3126 36.1325 34.3291C36.246 34.4422 36.4727 34.4045 36.6238 34.3289C36.7386 34.2643 36.8709 34.2378 37.0017 34.2533C37.0395 34.2533 37.0395 34.1777 37.0395 34.14C37.137 34.171 37.2395 34.1839 37.3417 34.1777C38.2488 33.9887 39.1181 33.7998 39.9495 33.384C39.1105 32.7387 38.0786 32.4515 37.0656 32.1696L37.0656 32.1696L37.0656 32.1696C36.8922 32.1214 36.7194 32.0733 36.5481 32.0235C36.5859 32.0235 36.6237 32.0361 36.6615 32.0487C36.7371 32.0739 36.8127 32.0991 36.8883 32.0235C36.7855 31.9413 36.6714 31.9262 36.5583 31.9112C36.4637 31.8987 36.3697 31.8863 36.2836 31.8346C36.2921 31.8346 36.3025 31.8365 36.314 31.8386C36.3535 31.8459 36.4055 31.8554 36.4348 31.7968C36.2333 31.6961 36.0318 31.6625 35.8303 31.6289L35.8303 31.6289C35.7295 31.6121 35.6286 31.5952 35.5277 31.57C35.7088 31.5374 35.838 31.376 35.8301 31.1921C35.8301 31.1544 35.7545 31.1544 35.7167 31.1544C35.2632 31.3811 34.9608 31.7968 34.7719 32.2881C34.9407 32.3846 35.1248 32.3733 35.3047 32.3624C35.4068 32.3562 35.5076 32.35 35.6034 32.3637C35.5192 32.4476 35.3938 32.4694 35.273 32.4904C35.2306 32.4978 35.1888 32.505 35.1495 32.5149C35.0335 32.5438 34.9227 32.6282 34.9605 32.7038C34.9811 32.7324 35.0118 32.7519 35.0464 32.7585C34.9571 32.782 34.8755 32.8283 34.8094 32.8928C34.9176 32.9738 35.0257 32.9584 35.1337 32.9429C35.1769 32.9368 35.22 32.9306 35.2632 32.9306C35.2632 32.981 35.2968 32.9978 35.3305 33.0146L35.3305 33.0146C35.3473 33.023 35.3641 33.0314 35.3767 33.044C35.2115 33.1042 35.076 33.2261 34.9987 33.384C34.9533 33.4975 34.8671 33.57 34.781 33.6426L34.781 33.6426C34.7235 33.691 34.6661 33.7393 34.6208 33.7998V33.9131C34.4923 34.0287 34.3595 34.1311 34.2284 34.2324L34.2284 34.2324C33.9734 34.4292 33.7244 34.6213 33.5248 34.8958C33.5625 34.8958 33.5625 34.9336 33.5625 34.9713C33.5283 35.0227 33.4786 35.0586 33.4309 35.093C33.3733 35.1345 33.3187 35.1738 33.2979 35.2358C33.2979 35.2737 33.2979 35.3115 33.3358 35.3115C33.5735 35.2323 33.78 35.1012 33.9825 34.9726C34.1665 34.8558 34.3473 34.741 34.5452 34.6691C34.7068 34.6286 34.8467 34.5559 34.9824 34.4853C35.1006 34.4239 35.2156 34.3641 35.3388 34.3289C35.4332 34.31 35.5372 34.2817 35.6411 34.2533L35.6411 34.2533L35.6411 34.2533C35.7451 34.225 35.849 34.1966 35.9435 34.1777C35.9435 34.2155 35.9435 34.2533 35.9812 34.2533ZM37.7243 37.5846C37.7273 37.5824 37.7303 37.58 37.7333 37.5776L37.74 37.5722C37.7947 37.5336 37.8455 37.4842 37.891 37.4252C37.8879 37.4242 37.8848 37.4231 37.8817 37.4218C37.8788 37.4207 37.876 37.4193 37.8732 37.4179C37.8228 37.4695 37.7738 37.525 37.7243 37.5846ZM45.0965 35.1046L45.018 35.1633C45.0614 35.1613 45.0965 35.1503 45.0965 35.1046Z" fill="#000091"/>
<path d="M74.9993 20H53.4856C53.5572 20.0235 53.6257 20.0554 53.6898 20.095C53.8645 20.1887 54.0909 20.3096 54.2326 20.3839C54.5225 20.5174 54.7714 20.7262 54.9532 20.9885C55.0288 21.1019 55.1422 21.3287 55.0666 21.4799C54.991 21.6688 54.9532 21.9712 54.7643 22.0468C54.5375 22.1601 54.2351 22.1601 53.9706 22.1223C53.8168 22.1157 53.6644 22.0903 53.5167 22.0468C54.0835 22.2735 54.6126 22.5381 54.9906 23.0672C55.0284 23.1428 55.1795 23.1805 55.3308 23.1805C55.3686 23.1805 55.3686 23.2561 55.3686 23.2939C55.2929 23.3696 55.2173 23.4073 55.2551 23.5206H55.3686C55.5575 23.445 55.5197 23.0668 55.7843 23.1805C55.9772 23.2994 56.0435 23.5483 55.9354 23.7474C55.7937 23.8844 55.642 24.0107 55.4816 24.1253C55.4438 24.2094 55.4438 24.3057 55.4816 24.3899C55.5762 24.526 55.6406 24.6807 55.6705 24.8437C55.784 25.1082 55.8217 25.4106 55.9351 25.6751C56.0863 26.242 56.2374 26.8089 56.1996 27.3758C56.1996 27.6782 56.0484 27.9427 56.1618 28.2451C56.2374 28.5474 56.4263 28.7742 56.5776 29.0387C56.7286 29.2654 56.8799 29.4166 56.9933 29.6434C57.2199 30.0213 57.6357 30.3992 57.4472 30.8527C57.3338 31.1172 56.9181 31.0795 56.6536 31.2307C56.4268 31.4196 56.6158 31.7219 56.7291 31.9109C56.9181 32.2511 56.5023 32.4778 56.2378 32.5912C56.3134 32.7045 56.4646 32.6667 56.5023 32.7423C56.5401 32.9313 56.7291 33.0447 56.6158 33.2336C56.4646 33.4604 56.0111 33.5738 56.2378 33.9139C56.389 34.1785 56.2906 34.4723 56.2001 34.7454C56.0867 35.0855 55.7844 35.2366 55.5198 35.3123C55.2869 35.3812 55.041 35.3941 54.8021 35.35C54.7331 35.3082 54.6557 35.2823 54.5754 35.2745C53.9328 35.1988 53.2903 35.0099 52.6479 35.0099C52.4658 35.0376 52.288 35.0884 52.1188 35.161C51.9542 35.2817 51.8011 35.4171 51.6612 35.5657L51.6568 35.5704C51.6284 35.6006 51.6012 35.6312 51.5744 35.662C51.5579 35.6811 51.5418 35.7006 51.5257 35.72C51.5148 35.7329 51.5041 35.7459 51.4935 35.759C51.3838 35.8967 51.2844 36.0423 51.196 36.1946C51.1904 36.2042 51.1847 36.2138 51.1793 36.2235C51.1694 36.241 51.1598 36.2587 51.1501 36.2763C51.0312 36.497 50.9353 36.7293 50.8639 36.9697C50.607 37.8351 50.7193 38.5777 50.8997 38.7579C50.9499 38.8081 52.1471 39.1777 52.981 39.5487C53.2886 39.6779 53.5867 39.8287 53.873 40H74.9993V20Z" fill="#E1000F"/>
<path d="M54.7651 27.296C54.9164 27.3338 55.143 27.3338 55.143 27.4094C55.0675 27.7116 54.6138 27.7872 54.3871 28.0897H54.274C54.1607 28.1653 54.1985 28.3542 54.0851 28.3542C53.9707 28.3291 53.8512 28.3424 53.745 28.392C53.8962 28.5431 54.0851 28.6567 54.3118 28.6187C54.3769 28.6413 54.4218 28.7012 54.4252 28.7701C54.4542 28.7673 54.4812 28.7538 54.5008 28.7322C54.5387 28.7322 54.5765 28.7322 54.5765 28.7701V28.9212C54.463 29.0724 54.274 28.9967 54.1227 29.0346C54.4075 29.1102 54.7071 29.1102 54.9918 29.0346C55.2187 28.959 54.9918 28.5807 55.1431 28.392C55.0676 28.392 55.1431 28.2786 55.0676 28.2786C55.1431 28.2031 55.2187 28.0897 55.2943 28.0519C55.3841 28.0543 55.4692 28.0118 55.5211 27.9385C55.5211 27.863 55.37 27.8252 55.4077 27.7494C55.6344 27.5985 55.8233 27.3716 55.7479 27.1449C55.71 27.0315 55.4077 27.0315 55.2187 26.9559C55.0296 26.8804 54.8029 26.9559 54.5763 26.9937C54.3872 26.9937 54.1982 27.1071 54.0093 27.1449C53.7519 27.2328 53.5097 27.3602 53.2916 27.5227C53.5622 27.4249 53.8403 27.3491 54.1231 27.296C54.3495 27.296 54.542 27.2402 54.7651 27.296Z" fill="#808080"/>
<mask id="mask0" mask-type="alpha" maskUnits="userSpaceOnUse" x="18" y="20" width="57" height="20">
<rect x="18" y="20" width="57" height="20" fill="#C4C4C4"/>
</mask>
<g mask="url(#mask0)">
</g>
<path d="M20.06 65H22.9V54.96L26.02 60.2H28.02L31.14 54.96V65H33.98V51H30.44L27.02 56.88L23.6 51H20.06V65ZM38.1873 65H41.0273V51H38.1873V65ZM45.2405 65H48.0805V54.88L54.3405 65H57.9805V51H55.1405V61.12L48.8805 51H45.2405V65ZM62.1959 65H65.0359V51H62.1959V65ZM67.9891 63.06C69.2291 64.54 70.8091 65.4 73.1691 65.4C75.7491 65.4 77.7891 63.82 77.8291 61.18C77.8291 56.38 71.4691 57.1 71.4691 54.56C71.4691 53.72 72.1291 53.08 73.1291 53.08C74.1891 53.08 75.1091 53.78 75.9291 54.84L78.0091 52.96C76.8091 51.54 75.2091 50.6 73.1091 50.6C70.4291 50.6 68.5891 52.44 68.5891 54.66C68.5891 59.4 74.9491 58.7 74.9491 61.28C74.9491 62.28 74.2691 62.88 73.1491 62.88C72.0091 62.88 70.8891 62.24 70.0491 61.16L67.9891 63.06ZM79.5692 53.58H83.8892V65H86.7292V53.58H91.0492V51H79.5692V53.58ZM96.6636 49.8H99.2636L97.0036 47.1H94.0836L96.6636 49.8ZM93.8436 65H102.004V62.64H96.6836V59.04H101.204V56.68H96.6836V53.36H102.004V51H93.8436V65ZM105.604 65H108.444V59.34H109.904L113.644 65H116.984L112.604 58.8C114.044 58.14 114.864 56.88 114.864 55.18C114.864 52.58 112.964 51 109.884 51H105.604V65ZM110.044 53.36C111.244 53.36 111.944 54.08 111.944 55.14C111.944 56.28 111.244 56.98 110.044 56.98H108.444V53.36H110.044ZM119.083 65H127.243V62.64H121.923V59.04H126.443V56.68H121.923V53.36H127.243V51H119.083V65ZM20.06 86H25.56C30 86 33 82.78 33 79C33 75.22 30 72 25.56 72H20.06V86ZM25.6 74.58C28.2 74.58 30.08 76.5 30.08 79C30.08 81.48 28.2 83.42 25.6 83.42H22.9V74.58H25.6ZM36.0389 86H44.1989V83.64H38.8789V80.04H43.3989V77.68H38.8789V74.36H44.1989V72H36.0389V86ZM53.2897 86H61.4497V83.42H56.1297V72H53.2897V86ZM63.0945 86H66.1145L67.4545 82.36H73.0545L74.3945 86H77.4145L72.1145 72H68.3945L63.0945 86ZM68.3345 79.94L70.2545 74.68L72.1745 79.94H68.3345ZM83.927 74.58H88.247V86H91.087V74.58H95.407V72H83.927V74.58ZM98.2014 86H101.041V80.34H102.501L106.241 86H109.581L105.201 79.8C106.641 79.14 107.461 77.88 107.461 76.18C107.461 73.58 105.561 72 102.481 72H98.2014V86ZM102.641 74.36C103.841 74.36 104.541 75.08 104.541 76.14C104.541 77.28 103.841 77.98 102.641 77.98H101.041V74.36H102.641ZM110.526 86H113.546L114.886 82.36H120.486L121.826 86H124.846L119.546 72H115.826L110.526 86ZM115.766 79.94L117.686 74.68L119.606 79.94H115.766ZM127.308 86H130.148V75.88L136.408 86H140.048V72H137.208V82.12L130.948 72H127.308V86ZM143.003 84.06C144.243 85.54 145.823 86.4 148.183 86.4C150.763 86.4 152.803 84.82 152.843 82.18C152.843 77.38 146.483 78.1 146.483 75.56C146.483 74.72 147.143 74.08 148.143 74.08C149.203 74.08 150.123 74.78 150.943 75.84L153.023 73.96C151.823 72.54 150.223 71.6 148.123 71.6C145.443 71.6 143.603 73.44 143.603 75.66C143.603 80.4 149.963 79.7 149.963 82.28C149.963 83.28 149.283 83.88 148.163 83.88C147.023 83.88 145.903 83.24 145.063 82.16L143.003 84.06ZM156.121 86H158.961V72H156.121V86ZM161.734 74.58H166.054V86H168.894V74.58H173.214V72H161.734V74.58ZM176.008 86H178.848V72H176.008V86ZM189.302 71.6C184.882 71.6 181.862 75 181.862 79C181.862 83 184.882 86.4 189.302 86.4C193.702 86.4 196.722 83 196.722 79C196.722 75 193.702 71.6 189.302 71.6ZM189.302 83.74C186.662 83.74 184.782 81.68 184.782 79C184.782 76.32 186.662 74.26 189.302 74.26C191.922 74.26 193.802 76.32 193.802 79C193.802 81.68 191.922 83.74 189.302 83.74ZM199.744 86H202.584V75.88L208.844 86H212.484V72H209.644V82.12L203.384 72H199.744V86ZM25.4 91.8L28 89.1H25.08L22.82 91.8H25.4ZM20.06 107H28.22V104.64H22.9V101.04H27.42V98.68H22.9V95.36H28.22V93H20.06V107ZM37.7477 104.74C35.1077 104.74 33.2277 102.68 33.2277 100C33.2277 97.32 35.1077 95.26 37.7477 95.26C39.3477 95.26 40.6077 96.04 41.4077 97.18L43.6477 95.44C42.3677 93.74 40.2877 92.6 37.7477 92.6C33.3277 92.6 30.3077 96 30.3077 100C30.3077 104 33.3277 107.4 37.7477 107.4C40.2877 107.4 42.3677 106.28 43.6477 104.54L41.4077 102.82C40.6077 103.96 39.3477 104.74 37.7477 104.74ZM52.5547 92.6C48.1347 92.6 45.1147 96 45.1147 100C45.1147 104 48.1347 107.4 52.5547 107.4C56.9547 107.4 59.9747 104 59.9747 100C59.9747 96 56.9547 92.6 52.5547 92.6ZM52.5547 104.74C49.9147 104.74 48.0347 102.68 48.0347 100C48.0347 97.32 49.9147 95.26 52.5547 95.26C55.1747 95.26 57.0547 97.32 57.0547 100C57.0547 102.68 55.1747 104.74 52.5547 104.74ZM62.9967 107H71.1567V104.42H65.8367V93H62.9967V107ZM79.6883 92.6C75.2683 92.6 72.2483 96 72.2483 100C72.2483 104 75.2683 107.4 79.6883 107.4C84.0883 107.4 87.1083 104 87.1083 100C87.1083 96 84.0883 92.6 79.6883 92.6ZM79.6883 104.74C77.0483 104.74 75.1683 102.68 75.1683 100C75.1683 97.32 77.0483 95.26 79.6883 95.26C82.3083 95.26 84.1883 97.32 84.1883 100C84.1883 102.68 82.3083 104.74 79.6883 104.74ZM96.9219 104.74C94.1819 104.74 92.2019 102.68 92.2019 100C92.2019 97.32 94.0819 95.26 96.7219 95.26C98.3219 95.26 99.5819 96.04 100.382 97.18L102.622 95.44C101.342 93.74 99.2619 92.6 96.7219 92.6C92.3019 92.6 89.2819 96 89.2819 100C89.2819 104 92.3819 107.4 96.9219 107.4C99.5419 107.4 101.722 106.28 103.022 104.54V98.66H96.6219V101.08H100.182V103.52C99.3819 104.28 98.2419 104.74 96.9219 104.74ZM106.48 107H109.32V93H106.48V107ZM125.273 106.64L124.433 105.84C126.153 104.48 127.193 102.34 127.193 100C127.193 96 124.173 92.6 119.773 92.6C115.353 92.6 112.333 96 112.333 100C112.333 104 115.353 107.4 119.773 107.4C120.453 107.4 121.093 107.32 121.693 107.16L123.353 108.64C124.733 109.84 126.173 110.48 127.733 110.48C128.353 110.48 128.753 110.4 129.213 110.22V107.82C128.913 107.94 128.513 107.98 128.213 107.98C127.313 107.98 126.353 107.62 125.273 106.64ZM119.773 104.74C117.133 104.74 115.253 102.68 115.253 100C115.253 97.32 117.133 95.26 119.773 95.26C122.393 95.26 124.273 97.32 124.273 100C124.273 102.68 122.393 104.74 119.773 104.74ZM138.472 101.76C138.472 103.64 137.392 104.74 135.652 104.74C133.872 104.74 132.812 103.64 132.812 101.76V93H129.972V101.52C129.972 105.2 132.132 107.4 135.632 107.4C139.152 107.4 141.312 105.2 141.312 101.52V93H138.472V101.76ZM145.14 107H153.3V104.64H147.98V101.04H152.5V98.68H147.98V95.36H153.3V93H145.14V107Z" fill="#1E1E1E"/>
<path fill-rule="evenodd" clip-rule="evenodd" d="M71.96 142.7L70.1 144.4H69.62L70.72 142.46H71.96V142.7ZM70.62 149.28H70.22C69.72 149.88 69.16 150.36 68.62 150.36C68.06 150.36 67.78 150.02 67.78 149.28C67.78 148.98 67.82 148.66 67.88 148.38L71.14 147.3C71.78 145.78 71.02 145.12 70.12 145.12C68.58 145.12 66.82 147.82 66.82 149.98C66.82 151 67.3 151.56 68.06 151.56C68.94 151.54 69.86 150.68 70.62 149.28ZM69.5 146C69.94 146 70.32 146.34 70.12 147.12L68.1 147.66C68.42 146.7 69.02 146 69.5 146ZM63.14 146.04H64.22L62.5 150.76C62.34 151.16 62.56 151.56 62.98 151.56C64.2 151.56 65.66 150.52 66.22 149.04H65.92C65.48 149.66 64.52 150.34 63.8 150.46L65.38 146.04H67L67.2 145.36H65.62L66.22 143.66H65.6L64.48 145.36L63.14 145.54V146.04ZM61.64 145.14C61.86 145.14 62.16 145.38 62.02 145.82L60.08 150.52C60.58 150.44 61.1 149.96 61.4 149.52H61.72C61.26 150.7 60.22 151.56 59.32 151.56C59.1 151.56 58.78 151.32 58.94 150.88L60.74 146.18C60.24 146.26 59.72 146.74 59.42 147.18H59.12C59.58 145.98 60.7 145.14 61.64 145.14ZM62.2 143.94C62.6 143.94 62.94 143.62 62.94 143.2C62.94 142.8 62.6 142.46 62.2 142.46C61.78 142.46 61.46 142.8 61.46 143.2C61.46 143.6 61.8 143.94 62.2 143.94ZM53.46 147.84C53.9 146.88 53.74 146.44 53.46 146.44C53.22 146.44 52.94 146.7 52.66 147.18H52.36C52.82 146.16 53.42 145.14 54.08 145.14C54.64 145.14 54.84 145.7 54.84 146.32V147.2C54.931 147.094 55.0195 146.99 55.106 146.889L55.1061 146.889C55.951 145.897 56.5961 145.14 57.34 145.14C57.92 145.14 58.22 145.5 58.22 146.04C58.22 146.36 58.12 146.76 57.9 147.18L56.24 150.52C56.74 150.44 57.26 149.96 57.56 149.52H57.86C57.4 150.72 56.28 151.56 55.34 151.56C54.92 151.56 54.68 151.12 54.86 150.76L56.78 147.06C57 146.64 57.04 146.36 56.7 146.36C56.24 146.36 55.16 147.12 54.58 147.82L53.32 151.14C53.18 151.48 53.04 151.56 52.72 151.56C52.2 151.56 51.94 151.22 52.18 150.68L53.46 147.84ZM52.16 146.56C52.38 145.8 52.26 145.12 51.68 145.12C50.9567 145.12 50.7302 145.598 50.0292 147.076L49.98 147.18V146.3C49.98 145.68 49.78 145.12 49.22 145.12C48.56 145.12 47.96 146.14 47.5 147.16H47.8C48.12 146.7 48.42 146.42 48.66 146.42C48.94 146.42 49.1 146.86 48.66 147.82L47.38 150.66C47.14 151.2 47.4 151.54 47.92 151.54C48.24 151.54 48.38 151.46 48.52 151.12L49.78 147.8C50.14 147.36 50.46 146.98 50.86 146.56H52.16ZM45.84 147.12C46.04 146.34 45.66 146 45.22 146C44.74 146 44.14 146.7 43.82 147.66L45.84 147.12ZM46.34 149.28H45.94C45.44 149.88 44.88 150.36 44.34 150.36C43.78 150.36 43.5 150.02 43.5 149.28C43.5 148.98 43.54 148.66 43.6 148.38L46.86 147.3C47.5 145.78 46.74 145.12 45.84 145.12C44.3 145.12 42.54 147.82 42.54 149.98C42.54 151 43.02 151.56 43.78 151.56C44.66 151.54 45.58 150.68 46.34 149.28ZM39.94 146.04H38.86V145.54L40.2 145.36L41.32 143.66H41.94L41.34 145.36H42.92L42.72 146.04H41.1L39.52 150.46C40.24 150.34 41.2 149.66 41.64 149.04H41.94C41.38 150.52 39.92 151.56 38.7 151.56C38.28 151.56 38.06 151.16 38.22 150.76L39.94 146.04ZM33.14 149.7C33.14 148.24 34.76 146.28 35.66 146.28C35.86 146.28 36.06 146.3 36.22 146.36L35.28 148.88C34.74 149.54 33.9 150.34 33.5 150.34C33.28 150.34 33.14 150.14 33.14 149.7ZM37.6 144.82L38.1 144.86L36.36 148.86C35.94 149.82 36.12 150.26 36.36 150.26C36.6 150.26 36.9 149.98 37.22 149.52H37.52C37.06 150.54 36.46 151.56 35.8 151.56C35.24 151.56 34.9 150.96 35 149.88L35.04 149.5L34.9311 149.652C34.2147 150.654 33.5664 151.56 32.9 151.56C32.32 151.56 32.02 151.2 32.02 150.66C32.02 148.34 34.56 145.38 36.94 145.38H37.04L37.6 144.82ZM33.02 146.56C33.24 145.8 33.12 145.12 32.54 145.12C31.8167 145.12 31.5902 145.598 30.8892 147.076L30.84 147.18V146.3C30.84 145.68 30.64 145.12 30.08 145.12C29.42 145.12 28.82 146.14 28.36 147.16H28.66C28.98 146.7 29.28 146.42 29.5 146.42C29.78 146.42 29.94 146.86 29.5 147.82L28.22 150.68C27.98 151.22 28.24 151.56 28.76 151.56C29.08 151.56 29.22 151.48 29.36 151.14L30.62 147.82C30.98 147.38 31.3 147 31.7 146.58H33.02V146.56ZM24.78 150.96L24.66 151.32H20L20.12 150.94C21.56 150.68 21.8 150.56 22.4 148.94L23.7 145.46C24.28 143.84 24.16 143.72 22.9 143.46L23.02 143.1H29.08L28.72 145.04H28.28C28.28 143.88 28.16 143.58 27.06 143.58H26.78C25.7 143.58 25.56 143.74 25.26 144.58L24.4 146.92H25.66C26.5 146.92 26.82 146.4 27.2 145.72H27.64L26.6 148.56H26.16C26.26 147.7 26.26 147.36 25.48 147.36H24.22L23.64 148.96C23.013 150.625 23.1922 150.659 24.6851 150.942C24.7162 150.948 24.7478 150.954 24.78 150.96Z" fill="black"/>
<path fill-rule="evenodd" clip-rule="evenodd" d="M28.74 127.4L26.88 128.74V128.76H26.4L27.5 127.16H28.74V127.4ZM41.74 136.78L44.72 128.86L44.62 128.74L42.56 128.98V129.22L42.96 129.52C43.3015 129.786 43.2111 130.033 42.9277 130.809L42.88 130.94L40.6 137.02C40.42 137.38 40.66 137.82 41.08 137.82C42.02 137.82 43.02 136.96 43.48 135.78H43.18C42.86 136.22 42.22 136.7 41.74 136.78ZM55.4 130.68L57.26 128.98V128.74H56.02L54.92 130.68H55.4ZM55.52 135.54H55.92C55.18 136.96 54.26 137.82 53.38 137.82C52.62 137.82 52.14 137.26 52.14 136.24C52.14 134.08 53.9 131.38 55.44 131.38C56.32 131.38 57.1 132.04 56.46 133.56L53.18 134.64C53.12 134.92 53.08 135.24 53.08 135.54C53.08 136.28 53.36 136.62 53.92 136.62C54.46 136.62 55.02 136.14 55.52 135.54ZM55.42 133.38C55.62 132.62 55.24 132.28 54.8 132.28C54.34 132.28 53.74 132.98 53.4 133.92L55.42 133.38ZM49.54 132.32H48.46V131.82L49.8 131.64L50.92 129.94H51.54L50.94 131.64H52.52L52.32 132.32H50.7L49.12 136.74C49.84 136.62 50.8 135.94 51.24 135.32H51.54C50.98 136.8 49.52 137.84 48.3 137.84C47.88 137.84 47.66 137.44 47.82 137.04L49.54 132.32ZM47.34 132.08C47.46 131.64 47.18 131.4 46.94 131.4C46 131.4 44.88 132.26 44.42 133.44H44.72C45.02 133 45.54 132.52 46.04 132.44L44.24 137.14C44.08 137.58 44.4 137.82 44.62 137.82C45.52 137.82 46.56 136.96 47.02 135.78H46.72C46.42 136.22 45.9 136.7 45.4 136.78L47.34 132.08ZM48.26 129.48C48.26 129.88 47.92 130.22 47.52 130.22C47.12 130.22 46.78 129.88 46.78 129.48C46.78 129.08 47.1 128.74 47.52 128.74C47.92 128.74 48.26 129.08 48.26 129.48ZM38.16 132.56C37.26 132.56 35.64 134.52 35.64 135.98C35.64 136.42 35.78 136.62 36.02 136.62C36.4 136.62 37.24 135.82 37.78 135.16L38.72 132.64C38.54 132.58 38.36 132.56 38.16 132.56ZM40.6 131.14L40.1 131.1L39.54 131.66H39.44C37.06 131.66 34.52 134.62 34.52 136.94C34.52 137.48 34.82 137.84 35.4 137.84C36.0664 137.84 36.7147 136.934 37.4311 135.932L37.54 135.78L37.5 136.16C37.4 137.24 37.74 137.84 38.3 137.84C38.96 137.84 39.56 136.82 40.02 135.8H39.72C39.4 136.26 39.1 136.54 38.86 136.54C38.62 136.54 38.44 136.1 38.86 135.14L40.6 131.14ZM30.52 137.62C29.66 137.96 29.06 138.36 29.06 138.98C29.06 139.56 29.6 139.8 30.72 139.8C32.22 139.8 33.04 139.36 33.04 138.78C33.04 138.52 32.7 138.4 31.8 138.1C31.22 137.92 30.8 137.76 30.52 137.62ZM31.52 135.16C31.12 135.16 30.98 134.82 30.98 134.46C30.98 133.3 31.54 131.86 32.44 131.86C32.84 131.86 32.98 132.2 32.98 132.56C32.96 133.74 32.4 135.16 31.52 135.16ZM32.28 137.04C33.38 137.38 34.06 137.64 34.06 138.4C34.06 139.38 32.26 140.54 30.08 140.52C28.82 140.52 27.74 140.18 27.74 139.36C27.74 138.58 28.46 137.94 30.22 137.42C29.98 137.26 29.88 137.06 29.88 136.78C29.88 136.3 30.32 135.92 31.08 135.56C30.34 135.46 29.86 134.9 29.86 134.08C29.86 132.82 30.9 131.38 32.54 131.38C32.88 131.38 33.18 131.46 33.42 131.62H35.22L35.02 132.3H33.96C34.02 132.48 34.06 132.68 34.06 132.9C34.06 134.12 33.08 135.52 31.52 135.6C31.12 135.82 30.92 136.12 30.92 136.36C30.92 136.642 31.2472 136.738 31.9702 136.949L31.9705 136.949C32.0666 136.977 32.1697 137.007 32.28 137.04ZM25.94 133.62C26.72 133.62 26.74 133.96 26.62 134.82H27.06L28.1 131.98H27.66C27.28 132.66 26.96 133.18 26.12 133.18H24.4L25.24 130.84C25.54 130 25.68 129.84 26.76 129.84H27.52C28.62 129.84 28.74 130.14 28.74 131.3H29.18L29.54 129.36H23.02L22.9 129.72C24.16 129.98 24.28 130.1 23.7 131.72L22.4 135.22C21.8 136.84 21.56 136.96 20.1 137.22L20 137.6H27.24L28.54 135.54H28.04C27.2 136.36 26.36 137.12 24.72 137.12C22.9161 137.12 22.9483 137.032 23.4895 135.545C23.5243 135.449 23.5613 135.348 23.6 135.24L24.2 133.64H25.94V133.62Z" fill="black"/>
<path fill-rule="evenodd" clip-rule="evenodd" d="M31.92 116.48C32.32 116.48 32.66 116.14 32.66 115.74C32.66 115.34 32.32 115 31.92 115C31.5 115 31.18 115.34 31.18 115.74C31.18 116.16 31.5 116.48 31.92 116.48ZM33.66 124.08C35.22 124.1 37.84 121.22 37.84 119C37.84 118.04 37.6 117.68 36.92 117.68C36.08 117.68 35.3 118.58 34.52 119.66L36.2 115.16L36.1 115.02L34.04 115.26V115.5L34.44 115.8C34.7883 116.071 34.6873 116.342 34.3906 117.138L34.36 117.22L32.54 121.98C32.38 122.38 32.2 122.86 32.2 122.98C32.2 123.54 32.96 124.08 33.66 124.08ZM55.18 116.96L57.04 115.26V115.02H55.8L54.7 116.96H55.18ZM55.3 121.82H55.7C54.94 123.24 54.02 124.1 53.14 124.08C52.38 124.08 51.9 123.54 51.9 122.52C51.9 120.36 53.66 117.66 55.2 117.66C56.08 117.66 56.86 118.32 56.22 119.84L52.96 120.92C52.9 121.2 52.86 121.52 52.86 121.82C52.86 122.56 53.14 122.9 53.7 122.9C54.24 122.9 54.8 122.42 55.3 121.82ZM55.2 119.66C55.4 118.9 55.02 118.56 54.58 118.56C54.1 118.56 53.5 119.26 53.18 120.2L55.2 119.66ZM49.3 118.6H48.22V118.1L49.56 117.92L50.68 116.22H51.3L50.7 117.92H52.28L52.08 118.6H50.46L48.88 123.02C49.6 122.9 50.56 122.22 51 121.6H51.3C50.74 123.08 49.28 124.12 48.06 124.12C47.64 124.12 47.42 123.72 47.58 123.32L49.3 118.6ZM47.66 119.12C47.88 118.36 47.76 117.68 47.18 117.68C46.4567 117.68 46.2302 118.158 45.5292 119.636L45.48 119.74V118.86C45.48 118.24 45.28 117.68 44.72 117.68C44.06 117.68 43.46 118.7 43 119.72H43.3C43.62 119.26 43.92 118.98 44.14 118.98C44.42 118.98 44.58 119.42 44.14 120.38L42.86 123.22C42.62 123.76 42.88 124.1 43.4 124.1C43.72 124.1 43.86 124.02 44 123.68L45.26 120.36C45.62 119.92 45.94 119.54 46.34 119.12H47.66ZM41.32 119.66C41.52 118.9 41.14 118.56 40.7 118.56C40.22 118.56 39.64 119.26 39.3 120.2L41.32 119.66ZM41.82 121.82H41.42C40.92 122.42 40.36 122.9 39.82 122.9C39.26 122.9 38.98 122.56 38.98 121.82C38.98 121.52 39.02 121.2 39.08 120.92L42.34 119.84C42.98 118.32 42.22 117.66 41.32 117.66C39.78 117.66 38.02 120.36 38.02 122.52C38.02 123.54 38.5 124.08 39.26 124.08C40.14 124.1 41.06 123.24 41.82 121.82ZM33.42 122.58C33.42 122.84 33.88 123.14 34.2 123.14C35.5 123.14 36.72 120.8 36.7 119.5C36.7 119.06 36.48 118.88 36.18 118.88C35.7 118.88 34.82 119.6 34.26 120.28L33.74 121.68C33.56 122.14 33.42 122.5 33.42 122.58ZM31.32 117.68C31.56 117.68 31.84 117.92 31.72 118.36L29.8 123.06C30.3 122.98 30.82 122.5 31.12 122.06H31.42C30.96 123.24 29.92 124.1 29.02 124.1C28.78 124.1 28.46 123.86 28.62 123.42L30.42 118.72C29.92 118.8 29.4 119.28 29.1 119.72H28.8C29.26 118.54 30.38 117.68 31.32 117.68ZM23.02 115.6H27.32L27.2 115.98C25.74 116.24 25.5 116.36 24.9 117.98L23.62 121.5C23 123.18 23.16 123.38 24.26 123.38C25.619 123.38 26.5102 122.392 27.2883 121.53C27.3461 121.466 27.4033 121.402 27.46 121.34H27.96L26.54 123.86H20L20.12 123.5C21.56 123.24 21.8 123.12 22.4 121.5L23.7 117.96C24.28 116.34 24.16 116.22 22.9 115.96L23.02 115.6Z" fill="black"/>
<mask id="mask1" mask-type="alpha" maskUnits="userSpaceOnUse" x="18" y="115" width="54" height="37">
<rect x="18" y="115" width="54" height="37" fill="#C4C4C4"/>
</mask>
<g mask="url(#mask1)">
</g>
</svg>