<svg width="332" height="243" viewBox="0 0 332 243" fill="none" xmlns="http://www.w3.org/2000/svg">
<path fill-rule="evenodd" clip-rule="evenodd" d="M73.4839 30.1663C70.7968 27.0122 68.9781 23.1467 69.282 18.8154C70.1576 6.33575 87.5298 9.08112 90.909 15.3798C94.2883 21.6785 93.8867 37.6556 89.5193 38.7813C87.7776 39.2303 84.0673 38.1306 80.291 35.8544L82.6613 52.6233H68.6657L73.4839 30.1663Z" fill="#B28B67"/>
<path fill-rule="evenodd" clip-rule="evenodd" d="M84.7366 16.2933C82.8373 17.3557 81.4857 19.3464 79.8586 21.9577C79.4624 21.8019 79.0308 21.7164 78.5792 21.7164C76.6469 21.7164 75.0803 23.2829 75.0803 25.2153C75.0803 26.1963 75.4841 27.083 76.1344 27.7183C75.3248 28.861 74.4175 30.0548 73.3778 31.2866C69.4979 28.9588 66.6121 22.1744 70.3167 15.6249C73.504 2.5059 91.565 10.6487 95.0398 8.43616C95.7994 13.1968 93.3495 17.0355 84.7366 16.2933Z" fill="#191847"/>
<path fill-rule="evenodd" clip-rule="evenodd" d="M68.1022 103.25L96.7241 175.692L115.921 236.937H123.501L94.1536 103.25L68.1022 103.25Z" fill="#997659"/>
<path fill-rule="evenodd" clip-rule="evenodd" d="M62.3386 103.25C62.0338 128.706 57.5889 162.98 56.8788 164.567C56.4054 165.625 40.062 179.078 7.84857 204.926L13.0696 210.513C51.0785 188.352 70.9623 175.793 72.7212 172.837C75.3595 168.403 83.9488 127.604 90.8449 103.25H62.3386Z" fill="#B28B67"/>
<path fill-rule="evenodd" clip-rule="evenodd" d="M7.15032 203.061C5.39685 203.681 4.18894 204.269 3.5266 204.824C2.72104 205.5 1.65813 206.621 0.337876 208.186C1.12202 209.121 8.16927 217.519 21.4796 233.382C24.1936 232.22 25.045 230.862 24.0339 229.306C23.0229 227.751 22.1954 226.448 21.5515 225.399L16.9458 209.307C16.8571 208.997 16.5343 208.818 16.2246 208.907C16.2194 208.908 16.2141 208.91 16.2088 208.912L13.7512 209.691C12.0461 208.897 10.851 208.091 10.1659 207.274C9.60928 206.611 9.10849 205.47 8.66353 203.852L8.66353 203.852C8.49278 203.231 7.85086 202.866 7.22977 203.036C7.203 203.044 7.1765 203.052 7.15032 203.061Z" fill="#B9B59E"/>
<path fill-rule="evenodd" clip-rule="evenodd" d="M112.817 234.11C112.165 235.851 111.838 237.154 111.838 238.019C111.838 239.07 112.014 240.605 112.364 242.622C113.584 242.622 124.547 242.622 145.255 242.622C146.109 239.797 145.616 238.271 143.774 238.046C141.933 237.821 140.403 237.617 139.185 237.436L123.898 230.62C123.604 230.489 123.259 230.622 123.128 230.916C123.126 230.921 123.123 230.926 123.121 230.931L122.139 233.315C120.434 234.11 119.049 234.508 117.983 234.508C117.117 234.508 115.921 234.158 114.395 233.458L114.395 233.458C113.81 233.19 113.117 233.447 112.849 234.033C112.837 234.058 112.827 234.084 112.817 234.11Z" fill="#B9B59E"/>
<path fill-rule="evenodd" clip-rule="evenodd" d="M87.3461 230.629L123.387 226.717L96.6765 103.25H64.3956L87.3461 230.629Z" fill="#3E98A0"/>
<path fill-rule="evenodd" clip-rule="evenodd" d="M15.3036 195.912L38.9446 223.895C63.8451 196.699 78.3621 178.954 82.4957 170.659C86.6293 162.365 90.3452 139.895 93.6434 103.25H57.3011C55.4994 135.488 54.285 152.358 53.6578 153.858C53.0306 155.358 40.2458 169.376 15.3036 195.912Z" fill="#89C5CC"/>
<path fill-rule="evenodd" clip-rule="evenodd" d="M117.932 96.2197L136.079 111.723C141.188 113.519 145.412 115.591 148.751 117.94C149.52 118.752 150.401 120.344 146.992 119.821C143.582 119.298 139.972 118.9 139.409 120.027C138.845 121.153 140.812 122.702 139.733 124.197C139.014 125.194 136.205 122.343 131.306 115.644L112.865 106.343L117.932 96.2197ZM33.348 86.4756L46.5727 85.6935C38.5413 118.742 34.2631 136.05 33.7383 137.618C32.5575 141.146 35.8436 146.2 37.285 148.936C33.2822 151.026 33.2946 144.218 28.2509 146.946C23.6473 149.436 20.2903 153.634 14.601 150.62C13.9015 150.249 13.0657 148.741 14.7725 147.414C19.0248 144.108 25.0937 138.408 25.8491 136.61C26.8792 134.159 29.3788 117.447 33.348 86.4756Z" fill="#B28B67"/>
<path fill-rule="evenodd" clip-rule="evenodd" d="M117.932 96.2197L136.079 111.723C141.188 113.519 145.412 115.591 148.751 117.94C149.52 118.752 150.401 120.344 146.992 119.821C143.582 119.298 139.972 118.9 139.409 120.027C138.845 121.153 140.812 122.702 139.733 124.197C139.014 125.194 136.205 122.343 131.306 115.644L112.865 106.343L117.932 96.2197ZM33.348 86.4756L46.5727 85.6935C38.5413 118.742 34.2631 136.05 33.7383 137.618C32.5575 141.146 35.8436 146.2 37.285 148.936C33.2822 151.026 33.2946 144.218 28.2509 146.946C23.6473 149.436 20.2903 153.634 14.601 150.62C13.9015 150.249 13.0657 148.741 14.7725 147.414C19.0248 144.108 25.0937 138.408 25.8491 136.61C26.8792 134.159 29.3788 117.447 33.348 86.4756Z" fill="#B28B67"/>
<path fill-rule="evenodd" clip-rule="evenodd" d="M77.2792 43.828L82.5107 42.9365C90.7517 71.8802 133.094 91.6094 135.694 102.429C136.647 106.397 133.773 108.403 135.257 109.612L128.457 114.557C127.306 113.223 124.849 115.664 119.717 113.956C114.586 112.248 77.2792 78.0998 77.2792 43.828Z" fill="#DB2721"/>
<path fill-rule="evenodd" clip-rule="evenodd" d="M86.0796 47.654C85.4675 85.9917 107.772 95.7671 102.805 111.142C98.7042 123.836 59.4515 137.482 52.6591 125.039C49.9096 120.002 48.6622 113.911 48.5206 107.288C46.7846 112.376 45.4116 116.756 44.4017 120.429C42.6593 126.764 35.9046 127.771 35.9046 130.212L27.0054 127.771C27.6091 124.456 23.4138 122.841 24.5386 115.433C29.5787 82.2423 43.1206 58.1832 65.1643 43.2561L65.3991 39.9446C65.4895 38.6603 66.6033 37.6921 67.8876 37.7813L67.8878 37.7792L84.357 38.9214C85.6422 39.0107 86.6116 40.1249 86.5223 41.41C86.5223 41.4107 86.5222 41.4114 86.5222 41.4121L86.0796 47.654Z" fill="#FF4133"/>
<rect x="169.184" y="122.494" width="2.59458" height="7.17101" rx="1.29729" transform="rotate(80.325 169.184 122.494)" fill="#ACE9BD"/>
<rect x="169.184" y="122.494" width="2.59458" height="7.17101" rx="1.29729" transform="rotate(80.325 169.184 122.494)" fill="#ACE9BD"/>
<rect x="169.184" y="122.494" width="2.59458" height="7.17101" rx="1.29729" transform="rotate(80.325 169.184 122.494)" fill="#ACE9BD"/>
<rect x="169.776" y="118.918" width="3.94303" height="9.4979" rx="1.97152" transform="rotate(80.325 169.776 118.918)" fill="#ACE9BD"/>
<rect x="169.776" y="118.918" width="3.94303" height="9.4979" rx="1.97152" transform="rotate(80.325 169.776 118.918)" fill="#ACE9BD"/>
<rect x="169.776" y="118.918" width="3.94303" height="9.4979" rx="1.97152" transform="rotate(80.325 169.776 118.918)" fill="#89CC9C"/>
<rect x="125.352" y="132.284" width="50.2433" height="56.5238" rx="10" transform="rotate(-9.67585 125.352 132.284)" fill="#89CC9C"/>
<rect x="123.625" y="122.153" width="5.70947" height="18.2703" rx="2.85474" transform="rotate(-9.67585 123.625 122.153)" fill="#89CC9C"/>
<rect x="145.575" y="118.411" width="5.70947" height="18.2703" rx="2.85474" transform="rotate(-9.67585 145.575 118.411)" fill="#89CC9C"/>
<rect x="130.719" y="136.582" width="41.6791" height="46.8177" rx="10" transform="rotate(-9.67585 130.719 136.582)" fill="#ACE9BD"/>
<circle cx="154.915" cy="156.203" r="11.9899" transform="rotate(-9.67585 154.915 156.203)" fill="#FCE762"/>
<path d="M154.237 150.527L154.41 150.604C155.493 151.086 156.31 152.02 156.644 153.157L152.77 153.817C152.751 152.621 153.235 151.472 154.105 150.651L154.237 150.527Z" fill="#D2C051"/>
<rect x="152.483" y="152.129" width="3.94303" height="9.4979" rx="1.97152" transform="rotate(-9.67585 152.483 152.129)" fill="#D2C051"/>
<path d="M160.504 151.512L160.585 151.684C161.085 152.759 161.089 153.999 160.596 155.077L157.239 153.034C158.009 152.118 159.128 151.569 160.323 151.52L160.504 151.512Z" fill="#D2C051"/>
<rect x="158.129" y="151.571" width="3.94303" height="9.4979" rx="1.97152" transform="rotate(31.3241 158.129 151.571)" fill="#D2C051"/>
<path d="M148.459 153.53L148.641 153.474C149.775 153.128 151.004 153.297 152.002 153.936L149.512 156.975C148.713 156.085 148.324 154.9 148.442 153.71L148.459 153.53Z" fill="#D2C051"/>
<rect x="148.187" y="155.89" width="3.94303" height="9.4979" rx="1.97152" transform="rotate(-50.6758 148.187 155.89)" fill="#D2C051"/>
<rect x="151.056" y="117.477" width="5.70947" height="27.8266" rx="2.85474" transform="rotate(80.325 151.056 117.477)" fill="#89CC9C"/>
<path d="M139.125 116.412C139.565 114.351 142.675 115.91 147.767 116.996C148.566 117.283 149.252 117.523 149.842 117.726C151.985 118.464 151.31 120.08 149.053 119.869C148.788 119.845 148.693 119.81 148.436 119.739C145.912 119.043 138.709 118.363 139.125 116.412Z" fill="#B28B67"/>
<path fill-rule="evenodd" clip-rule="evenodd" d="M278.486 33.6015C280.238 29.9026 280.98 25.7456 279.581 21.6852C275.552 9.9858 259.71 17.0409 258.105 23.9206C256.499 30.8004 260.972 45.962 265.42 45.9233C267.194 45.9078 270.446 43.9105 273.459 40.7725L275.496 57.3978L288.825 53.8271L278.486 33.6015Z" fill="#D4A181"/>
<path fill-rule="evenodd" clip-rule="evenodd" d="M273.655 34.0139C276.161 36.7537 279.09 38.5373 281.375 37.9239C285.716 36.7588 287.246 30.1105 285.572 23.8532C285.513 23.6333 285.45 23.4161 285.384 23.2017C290.821 25.129 296.025 30.4077 302.101 28.7769C310.367 26.5583 309.177 8.95784 297.629 12.0576C289.775 14.1656 286.219 16.3509 283.344 18.9426C282.19 17.2624 280.771 15.9703 279.256 15.209C278.872 14.9555 278.335 14.7586 277.674 14.62C277.265 14.5202 276.854 14.46 276.443 14.4419C274.238 14.2408 271.19 14.4995 267.91 15.2577C267.298 15.3993 266.701 15.553 266.122 15.7169C265.291 12.6495 262.142 10.8307 259.078 11.653C256.009 12.4768 254.188 15.6398 255.011 18.7178C255.808 21.6944 258.785 23.5014 261.756 22.872C263.571 22.9407 265.826 22.7436 268.256 22.2632C268.258 23.1997 268.398 24.2266 268.698 25.3489C268.963 26.3399 269.353 27.3616 269.84 28.3749C270.192 27.6186 270.777 27.03 271.48 26.8413C273.446 26.3137 275.248 27.5682 275.709 29.2902C276.293 31.4757 275.458 33.3945 273.655 34.0139Z" fill="#191847"/>
<path fill-rule="evenodd" clip-rule="evenodd" d="M305.845 104.774L284.761 177.547L274.844 232.185H264.89L274.826 104.774H305.845Z" fill="#BA8B72"/>
<path fill-rule="evenodd" clip-rule="evenodd" d="M315.32 104.774C313.849 142.579 314.429 163.199 314.759 166.634C315.088 170.068 316.957 193.072 329.695 233.338H319.342C302.473 194.71 296.584 171.706 294.65 166.634C292.715 161.561 287.001 140.941 278.658 104.774H315.32Z" fill="#D4A181"/>
<path fill-rule="evenodd" clip-rule="evenodd" d="M306.298 104.774C300.813 129.815 291.328 169.788 277.841 224.691H263.283C262.207 168.338 266.782 131.248 274.703 104.774H306.298Z" fill="#3E98A0"/>
<path fill-rule="evenodd" clip-rule="evenodd" d="M315.394 104.774C313.953 142.579 317.687 179.824 329.254 225.279H313.721C296.821 187.227 284.708 150.166 276.429 104.774H315.394Z" fill="#89C5CC"/>
<path fill-rule="evenodd" clip-rule="evenodd" d="M331.171 240.833L330.599 231.609C327.255 232.589 323.066 232.204 318.033 230.456C312.62 234.296 305.807 236.918 297.593 238.322V238.322C296.966 238.429 296.545 239.025 296.651 239.653C296.658 239.693 296.668 239.733 296.679 239.773L297.468 242.563H318.033H330.028L331.171 240.833Z" fill="#191847"/>
<path fill-rule="evenodd" clip-rule="evenodd" d="M277.066 240.833L276.494 231.609C273.15 232.589 268.961 232.204 263.927 230.456C258.515 234.296 251.702 236.918 243.488 238.322V238.322C242.861 238.429 242.44 239.025 242.546 239.653C242.553 239.693 242.562 239.733 242.574 239.773L243.363 242.563H263.927H275.923L277.066 240.833Z" fill="#191847"/>
<path fill-rule="evenodd" clip-rule="evenodd" d="M264.654 72.3744L243.08 65.0436C239.123 61.7267 235.366 59.271 231.812 57.6765C230.77 57.4416 229.031 57.495 231.115 60.0378C233.199 62.5807 235.277 65.3492 234.622 66.3613C233.967 67.3734 231.738 66.5139 231.028 68.1288C230.555 69.2053 234.267 70.1198 242.163 70.8723L258.768 81.47L264.654 72.3744ZM235.454 86.9173L225.975 83.6829C223.948 79.2725 222.088 77.2015 220.397 77.4698C218.995 77.094 222.281 82.5393 219.736 82.4655C217.192 82.3917 210.411 78.9806 209.538 80.0698C208.247 81.6812 210.336 85.5618 212.303 87.3287C215.978 90.6311 218.693 91.5034 225.134 92.1367C228.501 92.4679 232.288 93.6541 236.495 95.6954L235.454 86.9173Z" fill="#D4A181"/>
<path fill-rule="evenodd" clip-rule="evenodd" d="M273.814 68.2688C266.912 69.411 257.468 69.5723 246.565 65.0618L244.233 74.3495C252.181 79.8857 262.663 83.7373 270.935 82.037C277.454 80.697 279.401 72.1604 273.814 68.2688Z" fill="#000091"/>
<path fill-rule="evenodd" clip-rule="evenodd" d="M266.967 83.6978C259.976 86.8156 247.331 86.8218 229.033 83.7167C226.325 93.3245 225.464 99.9855 226.451 103.7C242.583 108.828 255.848 110.044 266.316 108.433C267.079 114.694 268.873 120.463 272.354 125.409C279.51 135.578 308.156 119.942 318.753 120.157C321.485 98.15 307.589 91.8522 305.224 78.4962C302.633 63.8699 286.944 43.4197 285.22 43.7237L269.498 46.4957C270.6 57.8204 268.405 70.9025 266.967 83.6978Z" fill="#4941C0"/>
</svg>
